STARTFONT 2.1
COMMENT
COMMENT Converted from OpenType font "MFMiMeng_Noncommercial-Regular.ttf" by "otf2bdf 3.0".
COMMENT
FONT -FreeType-MF MiMeng(Noncommercial)-Medium-R-Normal--33-240-100-100-P-249-ISO10646-1
SIZE 24 100 100
FONTBOUNDINGBOX 30 42 0 -11
STARTPROPERTIES 19
FOUNDRY "FreeType"
FAMILY_NAME "MF MiMeng(Noncommercial)"
WEIGHT_NAME "Medium"
SLANT "R"
SETWIDTH_NAME "Normal"
ADD_STYLE_NAME ""
PIXEL_SIZE 33
POINT_SIZE 240
RESOLUTION_X 100
RESOLUTION_Y 100
SPACING "P"
AVERAGE_WIDTH 249
CHARSET_REGISTRY "ISO10646"
CHARSET_ENCODING "1"
FONT_ASCENT 29
FONT_DESCENT 3
COPYRIGHT "© 2018 SN. All rights reserved."
_OTF_FONTFILE "MFMiMeng_Noncommercial-Regular.ttf"
_OTF_PSNAME "MF MiMeng(Noncommercial)-Regular"
ENDPROPERTIES
CHARS 7226
STARTCHAR 0020
ENCODING 32
SWIDTH 240 0
DWIDTH 8 0
BBX 0 0 0 0
BITMAP
ENDCHAR
STARTCHAR 0021
ENCODING 33
SWIDTH 120 0
DWIDTH 4 0
BBX 2 29 1 -1
BITMAP
C0
C0
C0
C0
C0
C0
C0
C0
C0
C0
C0
C0
C0
C0
C0
C0
C0
C0
C0
C0
C0
C0
00
00
00
00
C0
C0
80
ENDCHAR
STARTCHAR 0022
ENCODING 34
SWIDTH 240 0
DWIDTH 8 0
BBX 6 4 1 25
BITMAP
44
CC
CC
88
ENDCHAR
STARTCHAR 0023
ENCODING 35
SWIDTH 720 0
DWIDTH 24 0
BBX 22 29 1 -2
BITMAP
000040
0040C0
0060C0
0040C0
00C0C0
00C080
00C180
008180
7D8180
7FFF80
01FFFC
01033C
030300
030300
030200
030600
060600
060600
FFFFF8
FFFFF8
040C00
0C0C00
0C0C00
0C0C00
081800
181800
181800
001800
001000
ENDCHAR
STARTCHAR 0024
ENCODING 36
SWIDTH 540 0
DWIDTH 18 0
BBX 16 30 1 -1
BITMAP
00C0
00C0
00C0
00C0
0FE0
3FF8
719C
E186
C180
C180
C180
C180
C180
7180
3FF8
0FFE
0306
0303
0303
0301
8301
C303
6303
3B0E
1FFC
07F0
0300
0300
0300
0300
ENDCHAR
STARTCHAR 0025
ENCODING 37
SWIDTH 720 0
DWIDTH 24 0
BBX 23 30 0 -2
BITMAP
000060
000060
0000C0
0000C0
1C0180
7F0180
630300
C18300
C18200
C18600
C18600
630C00
7E0C00
1C1800
001800
003000
003000
006000
006000
00C060
00C1F8
00830C
01820C
010606
030606
030606
06030C
0601F8
0C00F0
0C0000
ENDCHAR
STARTCHAR 0026
ENCODING 38
SWIDTH 660 0
DWIDTH 22 0
BBX 20 27 1 0
BITMAP
03C000
0FF000
1C3800
381800
300C00
300C00
300C00
300C00
301800
103800
18F000
1BC000
1F0000
3C0000
760300
630300
C38300
C1C300
C0E300
C07200
C01A00
C00E00
600700
700FC0
381CF0
1FF830
03C000
ENDCHAR
STARTCHAR 0027
ENCODING 39
SWIDTH 150 0
DWIDTH 5 0
BBX 3 4 1 24
BITMAP
60
C0
C0
80
ENDCHAR
STARTCHAR 0028
ENCODING 40
SWIDTH 180 0
DWIDTH 6 0
BBX 4 31 1 -2
BITMAP
30
30
20
60
60
60
60
40
C0
C0
C0
C0
C0
C0
C0
C0
C0
C0
C0
C0
C0
C0
40
40
60
60
60
20
30
30
10
ENDCHAR
STARTCHAR 0029
ENCODING 41
SWIDTH 180 0
DWIDTH 6 0
BBX 4 31 1 -2
BITMAP
80
C0
C0
C0
60
60
60
60
60
20
30
30
30
30
30
30
30
30
30
30
20
20
60
60
60
60
40
C0
C0
C0
80
ENDCHAR
STARTCHAR 002A
ENCODING 42
SWIDTH 360 0
DWIDTH 12 0
BBX 10 10 1 19
BITMAP
0C00
0C00
0C00
CCC0
FFC0
3F00
1E00
3F00
3380
6180
ENDCHAR
STARTCHAR 002B
ENCODING 43
SWIDTH 510 0
DWIDTH 17 0
BBX 17 21 0 2
BITMAP
00C000
00C000
00C000
00C000
00C000
00C000
00C000
00C000
00C000
FFFF80
FFFF80
00C000
00C000
00C000
00C000
00C000
00C000
00C000
00C000
00C000
00C000
ENDCHAR
STARTCHAR 002C
ENCODING 44
SWIDTH 180 0
DWIDTH 6 0
BBX 3 5 1 -5
BITMAP
40
60
C0
C0
80
ENDCHAR
STARTCHAR 002D
ENCODING 45
SWIDTH 630 0
DWIDTH 21 0
BBX 17 2 2 12
BITMAP
FFFF80
FFFF80
ENDCHAR
STARTCHAR 002E
ENCODING 46
SWIDTH 60 0
DWIDTH 2 0
BBX 2 3 0 -4
BITMAP
C0
C0
C0
ENDCHAR
STARTCHAR 002F
ENCODING 47
SWIDTH 390 0
DWIDTH 13 0
BBX 10 30 2 -2
BITMAP
00C0
0080
0180
0180
0180
0100
0300
0300
0300
0600
0600
0600
0400
0C00
0C00
0C00
1800
1800
1800
1000
3000
3000
3000
2000
6000
6000
6000
C000
C000
C000
ENDCHAR
STARTCHAR 0030
ENCODING 48
SWIDTH 510 0
DWIDTH 17 0
BBX 15 24 1 0
BITMAP
0380
0F80
1C00
3860
3070
6038
6018
400C
C00C
C004
C006
C006
C006
C006
C006
C006
C006
4004
600C
600C
3018
3830
0FE0
0780
ENDCHAR
STARTCHAR 0031
ENCODING 49
SWIDTH 360 0
DWIDTH 12 0
BBX 12 24 0 0
BITMAP
7E00
7E00
0600
0600
0600
0600
0600
0600
0600
0600
0600
0600
0600
0600
0600
0600
0600
0600
0600
0600
0000
0000
FFF0
FFF0
ENDCHAR
STARTCHAR 0032
ENCODING 50
SWIDTH 510 0
DWIDTH 17 0
BBX 15 24 1 0
BITMAP
07C0
1FF0
3830
6018
6008
400C
C00C
C00C
000C
000C
0018
0018
0030
0070
00E0
01C0
0380
0E00
1C00
3800
7000
6000
FFFE
FFFE
ENDCHAR
STARTCHAR 0033
ENCODING 51
SWIDTH 540 0
DWIDTH 18 0
BBX 16 25 1 0
BITMAP
07E0
1FF8
3818
300C
6004
6006
4006
0006
0006
000C
003C
1FF0
1FF0
003C
000E
0006
0003
0003
4003
C003
6006
7006
381C
1FF8
07E0
ENDCHAR
STARTCHAR 0034
ENCODING 52
SWIDTH 510 0
DWIDTH 17 0
BBX 17 24 0 0
BITMAP
003000
183000
183000
183000
103000
303000
303000
303000
603000
603000
603000
403000
C03000
FFFF80
FFFF80
003000
003000
003000
003000
003000
003000
003000
003000
003000
ENDCHAR
STARTCHAR 0035
ENCODING 53
SWIDTH 510 0
DWIDTH 17 0
BBX 15 25 1 -1
BITMAP
6000
6000
6006
67FE
67E0
6000
6000
6000
6000
6000
6FE0
7FF8
701C
000C
0006
0006
0006
0006
0006
C006
C00C
600C
3038
1FF0
07C0
ENDCHAR
STARTCHAR 0036
ENCODING 54
SWIDTH 510 0
DWIDTH 17 0
BBX 15 24 1 0
BITMAP
07E0
1FF8
381C
300C
6006
6004
C000
C000
C000
C1C0
C7F0
CC1C
D80C
C006
C006
C006
C006
C006
6006
600C
700C
3818
1FF0
07E0
ENDCHAR
STARTCHAR 0037
ENCODING 55
SWIDTH 450 0
DWIDTH 15 0
BBX 14 23 0 0
BITMAP
FFFC
FFFC
000C
0018
0018
0018
0030
0030
0030
0060
0060
0060
00C0
00C0
00C0
0180
0180
0180
0300
0300
0300
0600
0600
ENDCHAR
STARTCHAR 0038
ENCODING 56
SWIDTH 510 0
DWIDTH 17 0
BBX 15 25 1 -1
BITMAP
03C0
1FF0
3838
701C
600C
C00C
C000
C000
C004
607C
71F0
3F80
1FE0
3878
701C
600C
C006
C006
C006
C006
400C
600C
3838
1FF0
07C0
ENDCHAR
STARTCHAR 0039
ENCODING 57
SWIDTH 510 0
DWIDTH 17 0
BBX 14 24 1 0
BITMAP
07C0
1FE0
3030
6018
6018
C00C
C00C
C00C
C00C
C00C
C00C
602C
70EC
1FCC
070C
000C
000C
0008
0008
C018
6010
7070
3FE0
0F80
ENDCHAR
STARTCHAR 003A
ENCODING 58
SWIDTH 120 0
DWIDTH 4 0
BBX 2 16 1 2
BITMAP
C0
C0
C0
00
00
00
00
00
00
00
00
00
00
C0
C0
C0
ENDCHAR
STARTCHAR 003B
ENCODING 59
SWIDTH 180 0
DWIDTH 6 0
BBX 3 17 1 1
BITMAP
C0
C0
C0
00
00
00
00
00
00
00
00
00
00
60
C0
C0
80
ENDCHAR
STARTCHAR 003C
ENCODING 60
SWIDTH 270 0
DWIDTH 9 0
BBX 8 15 0 5
BITMAP
02
06
06
0C
18
30
60
C0
C0
60
30
18
0C
06
03
ENDCHAR
STARTCHAR 003D
ENCODING 61
SWIDTH 660 0
DWIDTH 22 0
BBX 18 10 2 8
BITMAP
FFFFC0
FFFFC0
000000
000000
000000
000000
000000
000000
FFFFC0
FFFFC0
ENDCHAR
STARTCHAR 003E
ENCODING 62
SWIDTH 270 0
DWIDTH 9 0
BBX 7 16 1 5
BITMAP
80
C0
60
30
18
0C
06
06
06
0E
0C
18
30
60
C0
80
ENDCHAR
STARTCHAR 003F
ENCODING 63
SWIDTH 420 0
DWIDTH 14 0
BBX 14 29 0 -1
BITMAP
0780
1FF0
3838
3018
600C
600C
C00C
C00C
4008
0018
0030
0060
00C0
0180
0380
0300
0300
0300
0300
0300
0300
0000
0000
0000
0000
0000
0300
0300
0300
ENDCHAR
STARTCHAR 0040
ENCODING 64
SWIDTH 900 0
DWIDTH 30 0
BBX 27 28 1 -1
BITMAP
003F8000
01FFF000
07803C00
0E000E00
1C000300
18000100
30000180
60386080
60FE60C0
40C76040
C1816040
C1806040
C3006060
C3006060
C3006060
C3006060
C1006060
C18160C0
61C360C0
60FE6180
607C6380
30003E00
18001860
1C0000C0
0E000380
03800F00
01FFFC00
003FE000
ENDCHAR
STARTCHAR 0041
ENCODING 65
SWIDTH 600 0
DWIDTH 20 0
BBX 18 24 1 0
BITMAP
00C000
004000
006000
016000
033000
033000
063000
061800
061800
0C1800
0C0C00
0C0C00
180400
180600
19F600
33E300
300300
300300
600180
600180
600180
C000C0
C000C0
800040
ENDCHAR
STARTCHAR 0042
ENCODING 66
SWIDTH 600 0
DWIDTH 20 0
BBX 17 25 2 -1
BITMAP
CFE000
DFF800
D83C00
C00E00
C00600
C00300
C00300
C00300
C00300
C00600
C00E00
C01C00
CFF800
CFFC00
C00600
C00300
C00100
C00180
C00180
C00180
C00300
C00300
C00E00
DFFC00
C7E000
ENDCHAR
STARTCHAR 0043
ENCODING 67
SWIDTH 630 0
DWIDTH 21 0
BBX 18 25 1 -1
BITMAP
01F800
07FE00
0E0700
1C0180
3800C0
3000C0
600000
600000
C00000
C00000
C00000
C00000
C00000
C00000
C00000
C00000
C00000
600000
600000
600000
300040
1800C0
0E0380
07FF00
01F800
ENDCHAR
STARTCHAR 0044
ENCODING 68
SWIDTH 630 0
DWIDTH 21 0
BBX 18 24 2 0
BITMAP
C00000
CFC000
DFF800
C01C00
C00600
C00300
C00180
C00180
C00080
C000C0
C000C0
C000C0
C000C0
C000C0
C000C0
C00080
C00180
C00180
C00300
C00300
C00E00
C01C00
DFF000
DF8000
ENDCHAR
STARTCHAR 0045
ENCODING 69
SWIDTH 540 0
DWIDTH 18 0
BBX 16 24 2 0
BITMAP
DFFF
DFFF
C000
C000
C000
C000
C000
C000
C000
C000
C01E
CFFE
CF80
C000
C000
C000
C000
C000
C000
C000
C000
DFFF
DFFF
C000
ENDCHAR
STARTCHAR 0046
ENCODING 70
SWIDTH 570 0
DWIDTH 19 0
BBX 17 24 2 0
BITMAP
C00000
CFFF80
CFFF80
C00000
C00000
C00000
C00000
C00000
C00000
C00000
C00000
C7FF00
C0FF00
C00000
C00000
C00000
C00000
C00000
C00000
C00000
C00000
C00000
C00000
C00000
ENDCHAR
STARTCHAR 0047
ENCODING 71
SWIDTH 630 0
DWIDTH 21 0
BBX 18 26 1 -2
BITMAP
01F800
07FE00
1C0780
3801C0
3000C0
600000
600000
400000
C00000
C00000
C00000
C00E00
C03F80
C03180
C000C0
C000C0
C002C0
6006C0
6006C0
3004C0
300CC0
1C1CC0
0FF8C0
03E0C0
0000C0
0000C0
ENDCHAR
STARTCHAR 0048
ENCODING 72
SWIDTH 600 0
DWIDTH 20 0
BBX 16 24 2 0
BITMAP
C003
C003
C003
C003
C003
C003
C003
C003
C003
C003
CF03
CFF3
C033
C003
C003
C003
C003
C003
C003
C003
C003
C003
C003
C003
ENDCHAR
STARTCHAR 0049
ENCODING 73
SWIDTH 450 0
DWIDTH 15 0
BBX 15 26 0 -1
BITMAP
4000
FFE0
0FF0
0000
0300
0300
0300
0300
0300
0300
0300
0300
0300
0300
0300
0300
0300
0300
0300
0300
0300
0300
0000
01FE
7FFC
7800
ENDCHAR
STARTCHAR 004A
ENCODING 74
SWIDTH 330 0
DWIDTH 11 0
BBX 10 25 0 -1
BITMAP
00C0
00C0
00C0
00C0
00C0
00C0
00C0
00C0
00C0
00C0
00C0
00C0
00C0
00C0
00C0
00C0
00C0
00C0
C0C0
C0C0
C0C0
C0C0
6180
3F00
1E00
ENDCHAR
STARTCHAR 004B
ENCODING 75
SWIDTH 540 0
DWIDTH 18 0
BBX 16 24 2 0
BITMAP
C000
C000
C000
C000
C000
C000
C00F
C01E
C078
C1E0
C380
C000
C000
C000
C180
C1C0
C0E0
C070
C038
C01C
C00E
C007
C001
C000
ENDCHAR
STARTCHAR 004C
ENCODING 76
SWIDTH 510 0
DWIDTH 17 0
BBX 15 24 2 0
BITMAP
C000
C000
C000
C000
C000
C000
C000
C000
C000
C000
C000
C000
C000
C000
C000
C000
C000
C000
C000
C000
C000
C000
FFFE
FFFE
ENDCHAR
STARTCHAR 004D
ENCODING 77
SWIDTH 690 0
DWIDTH 23 0
BBX 21 24 1 -1
BITMAP
0C0180
0C0180
0E0180
0E0380
0E03C0
1B03C0
1B06C0
1B06C0
198640
118440
318C60
30CC60
30CC60
305860
307820
207830
603030
603030
603030
600010
400018
C00018
C00018
C00018
ENDCHAR
STARTCHAR 004E
ENCODING 78
SWIDTH 570 0
DWIDTH 19 0
BBX 16 24 1 0
BITMAP
C003
C003
C803
CC03
CC03
C603
C603
C303
C103
C183
C083
C0C3
C063
C063
C033
C033
C01B
C01B
C00F
C00F
C007
C007
C003
C003
ENDCHAR
STARTCHAR 004F
ENCODING 79
SWIDTH 630 0
DWIDTH 21 0
BBX 19 24 1 0
BITMAP
01F800
07FE00
0E0700
180300
300180
300180
6000C0
6000C0
C00040
C00060
C00060
C00060
C00060
C00060
C00060
C00060
600040
6000C0
7000C0
300180
180180
0E0700
07FE00
01F800
ENDCHAR
STARTCHAR 0050
ENCODING 80
SWIDTH 510 0
DWIDTH 17 0
BBX 16 24 1 0
BITMAP
CFE0
DFF8
C00C
C006
C002
C003
C003
C003
C003
C003
C006
C00E
C01C
DFF8
C7C0
C000
C000
C000
C000
C000
C000
C000
C000
C000
ENDCHAR
STARTCHAR 0051
ENCODING 81
SWIDTH 660 0
DWIDTH 22 0
BBX 19 24 1 0
BITMAP
01F800
07FE00
0E0700
180300
300180
300180
6000C0
6000C0
C00040
C00040
C00060
C00060
C00060
C00060
C00060
C00060
4000C0
6000C0
6018C0
301F80
180780
0E07C0
07FE60
01F800
ENDCHAR
STARTCHAR 0052
ENCODING 82
SWIDTH 570 0
DWIDTH 19 0
BBX 17 24 1 0
BITMAP
DFE000
DFF800
C01C00
C00600
C00600
C00300
C00300
C00300
C00300
C00600
C00E00
C03C00
DFF000
C78000
C00000
C00000
C18000
C1E000
C07000
C03C00
C00F00
C00380
C00080
C00000
ENDCHAR
STARTCHAR 0053
ENCODING 83
SWIDTH 600 0
DWIDTH 20 0
BBX 17 24 2 0
BITMAP
07E000
1FFC00
780E00
600700
C00300
C00100
C00000
C00000
C00000
600000
780000
1FE000
03FC00
000E00
000300
000300
000180
000180
800180
C00300
E00700
700E00
3FFC00
07E000
ENDCHAR
STARTCHAR 0054
ENCODING 84
SWIDTH 540 0
DWIDTH 18 0
BBX 18 24 0 1
BITMAP
FF8000
7FFFC0
000FC0
000000
006000
006000
006000
006000
006000
006000
006000
006000
006000
006000
006000
006000
006000
006000
006000
006000
006000
006000
006000
006000
ENDCHAR
STARTCHAR 0055
ENCODING 85
SWIDTH 540 0
DWIDTH 18 0
BBX 16 24 1 0
BITMAP
C003
C003
C003
C003
C003
C003
C003
C003
C003
C003
C003
C003
C003
C003
C003
C003
C003
C003
C003
6006
700E
381C
1FF8
07E0
ENDCHAR
STARTCHAR 0056
ENCODING 86
SWIDTH 540 0
DWIDTH 18 0
BBX 16 24 1 0
BITMAP
8001
C001
C003
C003
6002
6006
6006
3004
300C
300C
1818
1818
1818
0C30
0C30
0430
0660
0660
0260
03C0
03C0
01C0
0180
0180
ENDCHAR
STARTCHAR 0057
ENCODING 87
SWIDTH 690 0
DWIDTH 23 0
BBX 21 24 1 1
BITMAP
C00018
C00018
C00018
400018
600010
602030
607030
607030
207030
305820
30D860
30D860
308860
118C60
198C40
1984C0
1B06C0
1B06C0
0B02C0
0E0380
0E0380
0E0380
0C0180
040180
ENDCHAR
STARTCHAR 0058
ENCODING 88
SWIDTH 630 0
DWIDTH 21 0
BBX 19 24 1 1
BITMAP
0000C0
3000C0
380180
180180
0C0300
060300
060600
030C00
018C00
01D800
00F800
007000
007000
00F000
00D800
018C00
030E00
060600
0E0300
1C0180
380180
7000C0
E00060
C00020
ENDCHAR
STARTCHAR 0059
ENCODING 89
SWIDTH 570 0
DWIDTH 19 0
BBX 17 25 1 0
BITMAP
000080
000180
800380
E00300
700700
380600
180C00
0C0800
000000
000000
00C000
00C000
00C000
00C000
00C000
00C000
00C000
00C000
00C000
00C000
00C000
00C000
00C000
00C000
00C000
ENDCHAR
STARTCHAR 005A
ENCODING 90
SWIDTH 570 0
DWIDTH 19 0
BBX 18 23 1 0
BITMAP
FFFF80
FFFF80
000300
000600
000600
000C00
001800
003800
003000
006000
00C000
00C000
018000
030000
070000
060000
0C0000
180000
180000
300000
600000
FFFFC0
FFFFC0
ENDCHAR
STARTCHAR 005B
ENCODING 91
SWIDTH 240 0
DWIDTH 8 0
BBX 7 30 1 -2
BITMAP
FE
FC
C0
C0
C0
C0
C0
C0
C0
C0
C0
C0
C0
C0
C0
C0
C0
C0
C0
C0
C0
C0
C0
C0
C0
C0
C0
C0
FC
FE
ENDCHAR
STARTCHAR 005C
ENCODING 92
SWIDTH 330 0
DWIDTH 11 0
BBX 10 30 0 -2
BITMAP
C000
C000
6000
6000
6000
2000
3000
3000
3000
1000
1800
1800
0800
0C00
0C00
0C00
0400
0600
0600
0200
0300
0300
0300
0100
0180
0180
0180
00C0
00C0
00C0
ENDCHAR
STARTCHAR 005D
ENCODING 93
SWIDTH 240 0
DWIDTH 8 0
BBX 7 30 0 -2
BITMAP
FE
FE
06
06
06
06
06
06
06
06
06
06
06
06
06
06
06
06
06
06
06
06
06
06
06
06
06
06
FE
FE
ENDCHAR
STARTCHAR 005E
ENCODING 94
SWIDTH 420 0
DWIDTH 14 0
BBX 12 9 1 22
BITMAP
0600
0E00
1F00
1980
31C0
60C0
E060
C030
8000
ENDCHAR
STARTCHAR 005F
ENCODING 95
SWIDTH 780 0
DWIDTH 26 0
BBX 24 2 1 -1
BITMAP
FFFFFF
FFFFFF
ENDCHAR
STARTCHAR 0060
ENCODING 96
SWIDTH 150 0
DWIDTH 5 0
BBX 3 4 0 24
BITMAP
C0
60
60
20
ENDCHAR
STARTCHAR 0061
ENCODING 97
SWIDTH 510 0
DWIDTH 17 0
BBX 15 14 1 0
BITMAP
0E30
3F30
71B0
60B0
C030
C030
C030
C030
C030
C030
60B0
61B8
3F9E
1E0E
ENDCHAR
STARTCHAR 0062
ENCODING 98
SWIDTH 420 0
DWIDTH 14 0
BBX 13 23 1 0
BITMAP
C000
C000
C000
C000
C000
C000
C000
C000
C000
CF80
DFE0
C070
C030
C018
C018
C018
C018
C018
C010
C030
C070
DFE0
CF80
ENDCHAR
STARTCHAR 0063
ENCODING 99
SWIDTH 450 0
DWIDTH 15 0
BBX 12 14 1 -1
BITMAP
0380
1FE0
3870
6010
E000
C000
C000
C000
C000
C000
6010
7030
3FE0
0FC0
ENDCHAR
STARTCHAR 0064
ENCODING 100
SWIDTH 420 0
DWIDTH 14 0
BBX 13 24 0 0
BITMAP
0018
0018
0018
0018
0018
0018
0018
0018
0018
0018
0018
1F18
3FD8
6018
6018
C018
C018
C018
C018
C018
C018
6018
3FD8
1F98
ENDCHAR
STARTCHAR 0065
ENCODING 101
SWIDTH 450 0
DWIDTH 15 0
BBX 13 15 1 -2
BITMAP
0F80
3FC0
7060
6030
C030
C030
C030
CFE0
CFC0
C000
C000
6018
7030
3FE0
0F80
ENDCHAR
STARTCHAR 0066
ENCODING 102
SWIDTH 450 0
DWIDTH 15 0
BBX 14 24 0 0
BITMAP
0078
00F8
0180
0180
0180
0180
0180
0180
0180
0180
03FC
FFF8
7180
0180
0180
0180
0180
0180
0180
0180
0180
0180
0180
0180
ENDCHAR
STARTCHAR 0067
ENCODING 103
SWIDTH 420 0
DWIDTH 14 0
BBX 12 23 1 -11
BITMAP
1F30
3FB0
60B0
4030
C030
C030
C030
C030
C030
C030
6030
3FB0
1F30
0030
0030
0030
0030
C030
C030
6060
70E0
3FC0
0F00
ENDCHAR
STARTCHAR 0068
ENCODING 104
SWIDTH 360 0
DWIDTH 12 0
BBX 11 23 1 0
BITMAP
C000
C000
C000
C000
C000
C000
C000
C000
C000
CF00
DFC0
C0C0
C060
C060
C060
C060
C060
C060
C060
C060
C060
C060
C060
ENDCHAR
STARTCHAR 0069
ENCODING 105
SWIDTH 120 0
DWIDTH 4 0
BBX 2 22 1 0
BITMAP
C0
C0
C0
00
00
00
00
00
C0
C0
C0
C0
C0
C0
C0
C0
C0
C0
C0
C0
C0
C0
ENDCHAR
STARTCHAR 006A
ENCODING 106
SWIDTH 180 0
DWIDTH 6 0
BBX 5 31 0 -10
BITMAP
18
18
18
00
00
00
00
18
18
18
18
18
18
18
18
18
18
18
18
18
18
18
18
18
18
18
10
30
30
E0
E0
ENDCHAR
STARTCHAR 006B
ENCODING 107
SWIDTH 420 0
DWIDTH 14 0
BBX 12 23 1 0
BITMAP
C000
C000
C000
C000
C000
C000
C000
C000
C000
C000
C060
C0C0
C380
C200
C000
C000
C600
C700
C380
C0E0
C070
C010
C000
ENDCHAR
STARTCHAR 006C
ENCODING 108
SWIDTH 120 0
DWIDTH 4 0
BBX 2 23 1 0
BITMAP
C0
C0
C0
C0
C0
C0
C0
C0
C0
C0
C0
C0
C0
C0
C0
C0
C0
C0
C0
C0
C0
C0
C0
ENDCHAR
STARTCHAR 006D
ENCODING 109
SWIDTH 540 0
DWIDTH 18 0
BBX 16 15 1 -1
BITMAP
C01C
CE7E
DF7F
D3A3
C183
C183
C183
C183
C183
C183
C183
C183
C183
C183
C183
ENDCHAR
STARTCHAR 006E
ENCODING 110
SWIDTH 420 0
DWIDTH 14 0
BBX 12 15 1 -1
BITMAP
CF80
DFC0
C060
C030
C030
C030
C030
C030
C030
C030
C030
C030
C030
C030
C030
ENDCHAR
STARTCHAR 006F
ENCODING 111
SWIDTH 450 0
DWIDTH 15 0
BBX 13 15 1 -1
BITMAP
0F80
1FC0
3060
6030
6030
C018
C018
C018
C018
C018
C018
6030
3060
1FC0
0F80
ENDCHAR
STARTCHAR 0070
ENCODING 112
SWIDTH 420 0
DWIDTH 14 0
BBX 13 23 1 -10
BITMAP
DF80
DFE0
C070
C030
C010
C018
C018
C018
C018
C010
C030
D8F0
DFE0
C000
C000
C000
C000
C000
C000
C000
C000
C000
C000
ENDCHAR
STARTCHAR 0071
ENCODING 113
SWIDTH 420 0
DWIDTH 14 0
BBX 13 23 0 -10
BITMAP
0FD8
3FD8
7018
6018
C018
C018
C018
C018
C018
C018
6018
3FD8
1F98
0018
0018
0018
0018
0018
0018
0018
0018
0018
0018
ENDCHAR
STARTCHAR 0072
ENCODING 114
SWIDTH 360 0
DWIDTH 12 0
BBX 10 15 1 -1
BITMAP
C000
C000
C040
C1C0
C780
CE00
C000
C000
C000
C000
C000
C000
C000
C000
C000
ENDCHAR
STARTCHAR 0073
ENCODING 115
SWIDTH 450 0
DWIDTH 15 0
BBX 11 16 1 -3
BITMAP
1F00
7FC0
60E0
C060
C000
C000
E000
7F80
1FC0
0060
0060
8020
C060
E060
79C0
1F80
ENDCHAR
STARTCHAR 0074
ENCODING 116
SWIDTH 390 0
DWIDTH 13 0
BBX 13 23 0 0
BITMAP
0300
0300
0300
0300
0300
0300
0300
0300
0338
3FF8
FF00
0300
0300
0300
0300
0300
0300
0300
0300
0300
0180
01C0
00E0
ENDCHAR
STARTCHAR 0075
ENCODING 117
SWIDTH 420 0
DWIDTH 14 0
BBX 12 15 1 -1
BITMAP
C030
C030
C030
C030
C030
C030
C030
C030
C030
C030
C030
C030
6030
7FB0
1F30
ENDCHAR
STARTCHAR 0076
ENCODING 118
SWIDTH 420 0
DWIDTH 14 0
BBX 12 14 1 0
BITMAP
8030
C030
C060
4060
6060
60C0
30C0
3180
1180
1900
1B00
0F00
0E00
0600
ENDCHAR
STARTCHAR 0077
ENCODING 119
SWIDTH 570 0
DWIDTH 19 0
BBX 17 14 1 1
BITMAP
C00180
C18100
C18300
41C300
63C300
634300
636600
226600
366600
362C00
143C00
1C3C00
1C1800
0C1800
ENDCHAR
STARTCHAR 0078
ENCODING 120
SWIDTH 450 0
DWIDTH 15 0
BBX 12 14 1 0
BITMAP
0060
0060
6040
70C0
3880
1D80
0F00
0700
0780
0DC0
1CE0
3870
6030
C000
ENDCHAR
STARTCHAR 0079
ENCODING 121
SWIDTH 450 0
DWIDTH 15 0
BBX 12 23 1 -10
BITMAP
0010
0030
8030
C030
6030
7060
3060
1840
08C0
00C0
0180
0180
0300
0300
0600
0600
0C00
0C00
1800
3000
3000
6000
4000
ENDCHAR
STARTCHAR 007A
ENCODING 122
SWIDTH 420 0
DWIDTH 14 0
BBX 12 14 1 -1
BITMAP
FFE0
FFE0
00C0
01C0
0180
0300
0600
0C00
1C00
1800
3000
6000
FFF0
FFF0
ENDCHAR
STARTCHAR 007B
ENCODING 123
SWIDTH 360 0
DWIDTH 12 0
BBX 11 30 0 -2
BITMAP
03E0
07E0
0600
0600
0600
0600
0600
0600
0600
0600
0600
0600
0600
0600
FC00
FC00
0C00
0600
0600
0600
0600
0600
0600
0600
0600
0600
0600
0600
07E0
07E0
ENDCHAR
STARTCHAR 007C
ENCODING 124
SWIDTH 120 0
DWIDTH 4 0
BBX 2 31 1 -3
BITMAP
C0
C0
C0
C0
C0
C0
C0
C0
C0
C0
C0
C0
C0
C0
C0
C0
C0
C0
C0
C0
C0
C0
C0
C0
C0
C0
C0
C0
C0
C0
C0
ENDCHAR
STARTCHAR 007D
ENCODING 125
SWIDTH 330 0
DWIDTH 11 0
BBX 10 30 1 -2
BITMAP
F800
FC00
0C00
0C00
0C00
0C00
0C00
0C00
0C00
0C00
0C00
0C00
0C00
0C00
07C0
07C0
0C00
0C00
0C00
0C00
0C00
0C00
0C00
0C00
0C00
0C00
0C00
0C00
FC00
F800
ENDCHAR
STARTCHAR 007E
ENCODING 126
SWIDTH 540 0
DWIDTH 18 0
BBX 16 3 1 14
BITMAP
3F03
F3CF
807C
ENDCHAR
STARTCHAR 00A5
ENCODING 165
SWIDTH 570 0
DWIDTH 19 0
BBX 19 27 0 -1
BITMAP
180700
1C0F00
0C0C00
000000
000000
000000
FFFF80
FFFFC0
000000
00C000
00C000
00C000
00C000
00C000
FFFFE0
FFFFE0
00C000
00C000
00C000
00C000
00C000
00C000
00C000
00C000
00C000
00C000
00C000
ENDCHAR
STARTCHAR 00A9
ENCODING 169
SWIDTH 870 0
DWIDTH 29 0
BBX 27 28 1 -1
BITMAP
003F8000
01FFF000
03803800
0E000E00
1C000700
18000300
30000180
601F00C0
603FC0C0
6060E0C0
C0C02060
C0C00060
C1800060
C1800060
C1800060
C1800060
C0C00060
C0C02060
6070E0C0
603FC0C0
600F00C0
30000180
18000300
1C000700
0E000E00
03803800
01FFF000
003F8000
ENDCHAR
STARTCHAR 00B0
ENCODING 176
SWIDTH 270 0
DWIDTH 9 0
BBX 7 8 1 22
BITMAP
38
7C
C6
C6
C6
C6
7C
38
ENDCHAR
STARTCHAR 00B7
ENCODING 183
SWIDTH 900 0
DWIDTH 30 0
BBX 2 3 14 12
BITMAP
C0
C0
C0
ENDCHAR
STARTCHAR 2014
ENCODING 8212
SWIDTH 930 0
DWIDTH 31 0
BBX 29 2 1 13
BITMAP
FFFFFFF8
FFFFFFF8
ENDCHAR
STARTCHAR 2018
ENCODING 8216
SWIDTH 900 0
DWIDTH 30 0
BBX 3 4 26 23
BITMAP
20
60
60
C0
ENDCHAR
STARTCHAR 2019
ENCODING 8217
SWIDTH 900 0
DWIDTH 30 0
BBX 2 4 1 23
BITMAP
40
40
C0
C0
ENDCHAR
STARTCHAR 201C
ENCODING 8220
SWIDTH 900 0
DWIDTH 30 0
BBX 7 4 22 23
BITMAP
22
66
66
CC
ENDCHAR
STARTCHAR 201D
ENCODING 8221
SWIDTH 900 0
DWIDTH 30 0
BBX 6 4 1 23
BITMAP
44
CC
CC
88
ENDCHAR
STARTCHAR 2022
ENCODING 8226
SWIDTH 900 0
DWIDTH 30 0
BBX 2 3 14 12
BITMAP
C0
C0
C0
ENDCHAR
STARTCHAR 2026
ENCODING 8230
SWIDTH 930 0
DWIDTH 31 0
BBX 28 3 2 12
BITMAP
C0060030
C0060030
C0060030
ENDCHAR
STARTCHAR 205D
ENCODING 8285
SWIDTH 870 0
DWIDTH 29 0
BBX 3 27 13 1
BITMAP
E0
60
00
00
00
00
00
00
00
00
00
00
60
E0
00
00
00
00
00
00
00
00
00
00
00
60
E0
ENDCHAR
STARTCHAR 20AC
ENCODING 8364
SWIDTH 840 0
DWIDTH 28 0
BBX 27 27 0 -1
BITMAP
0007C000
001FF000
00303800
00600C00
00C00C00
01800000
01800000
01800000
7B000000
7FF00000
03FFE000
0303FF80
03000780
03000000
03000000
FFFFFFE0
FFFFFFE0
03000000
01000000
01800000
01800000
00C00000
00C00400
00600C00
00303800
001FF000
000FC000
ENDCHAR
STARTCHAR 2122
ENCODING 8482
SWIDTH 930 0
DWIDTH 31 0
BBX 29 12 1 17
BITMAP
FFF6F1E0
FFF6FBF0
00061C10
06060C18
06060C18
06060C18
06060C18
06060C18
06060C18
06060C18
06060C18
06060C18
ENDCHAR
STARTCHAR 22EF
ENCODING 8943
SWIDTH 930 0
DWIDTH 31 0
BBX 28 3 2 12
BITMAP
C0060030
C0060030
C0060030
ENDCHAR
STARTCHAR 2F00
ENCODING 12032
SWIDTH 900 0
DWIDTH 30 0
BBX 22 2 4 12
BITMAP
FFFFFC
FFFFFC
ENDCHAR
STARTCHAR 2F01
ENCODING 12033
SWIDTH 900 0
DWIDTH 30 0
BBX 2 23 14 0
BITMAP
C0
C0
C0
C0
C0
C0
C0
C0
C0
C0
C0
C0
C0
C0
C0
C0
C0
C0
C0
C0
C0
C0
C0
ENDCHAR
STARTCHAR 2F02
ENCODING 12034
SWIDTH 900 0
DWIDTH 30 0
BBX 8 6 11 10
BITMAP
E0
70
38
1C
0E
03
ENDCHAR
STARTCHAR 2F03
ENCODING 12035
SWIDTH 870 0
DWIDTH 29 0
BBX 7 29 11 -3
BITMAP
06
06
06
06
06
06
06
04
04
04
0C
0C
0C
0C
0C
08
08
18
18
18
10
30
30
30
60
60
40
C0
C0
ENDCHAR
STARTCHAR 2F04
ENCODING 12036
SWIDTH 900 0
DWIDTH 30 0
BBX 22 25 4 -1
BITMAP
FFFF80
FFFF80
000180
000300
000600
000E00
000C00
001800
003000
007000
006000
00C000
018000
038000
030000
060000
0C0000
1C0000
180000
300000
600010
600018
C00018
FFFFFC
FFFFFC
ENDCHAR
STARTCHAR 2F06
ENCODING 12038
SWIDTH 870 0
DWIDTH 29 0
BBX 21 22 4 1
BITMAP
3FFFE0
3FFFE0
000000
000000
000000
000000
000000
000000
000000
000000
000000
000000
000000
000000
000000
000000
000000
000000
000000
000000
FFFFF8
FFFFF8
ENDCHAR
STARTCHAR 2F07
ENCODING 12039
SWIDTH 900 0
DWIDTH 30 0
BBX 24 7 3 21
BITMAP
001800
001800
001800
001000
000000
FFFFFF
FFFFFF
ENDCHAR
STARTCHAR 2F08
ENCODING 12040
SWIDTH 900 0
DWIDTH 30 0
BBX 19 26 5 -1
BITMAP
002000
006000
006000
006000
004000
00C000
00C000
00C000
008000
018000
018000
010000
030000
030000
060000
060000
060000
0C0E00
0C07C0
1801E0
180000
300000
600000
600000
C00000
800000
ENDCHAR
STARTCHAR 2F09
ENCODING 12041
SWIDTH 900 0
DWIDTH 30 0
BBX 21 28 5 -3
BITMAP
060000
060000
060000
060C00
060C00
060C00
060C00
060C00
040C00
040C00
0C0C00
0C0C00
0C0C00
0C0C00
0C0C00
080C00
180C00
180C00
180C00
180C00
300C10
300C10
300C18
600FF8
6007F8
400000
C00000
800000
ENDCHAR
STARTCHAR 2F0A
ENCODING 12042
SWIDTH 900 0
DWIDTH 30 0
BBX 22 26 4 0
BITMAP
006000
002000
003000
003000
003000
001800
001800
009800
018C00
018C00
018C00
030600
030600
030300
060300
060300
060180
0C0180
0C00C0
1800C0
180060
300030
300030
600018
400018
C0000C
ENDCHAR
STARTCHAR 2F0B
ENCODING 12043
SWIDTH 900 0
DWIDTH 30 0
BBX 23 29 4 -3
BITMAP
000400
000600
000600
000600
018600
018600
018200
018300
018300
010300
030300
030100
030180
030180
060180
060080
0600C0
0C00C0
0C00C0
0C0060
180060
180060
180030
300030
300018
600018
600008
C0000C
800006
ENDCHAR
STARTCHAR 2F0C
ENCODING 12044
SWIDTH 930 0
DWIDTH 31 0
BBX 21 28 5 -4
BITMAP
8FFFF0
DFFFF8
C00018
C00018
C00018
C00018
C00018
C00018
C00018
C00018
C00018
C00018
C00018
C00018
C00018
C00018
C00018
C00018
C00018
C00018
C00018
C00018
C00018
C00018
C00018
C00018
C00078
C00038
ENDCHAR
STARTCHAR 2F0D
ENCODING 12045
SWIDTH 900 0
DWIDTH 30 0
BBX 22 7 4 20
BITMAP
CFFFF8
CFFFFC
C0000C
C0000C
C0000C
C0000C
C0000C
ENDCHAR
STARTCHAR 2F0E
ENCODING 12046
SWIDTH 900 0
DWIDTH 30 0
BBX 4 20 6 1
BITMAP
60
70
00
00
00
00
00
00
00
00
00
00
00
00
00
00
00
30
F0
C0
ENDCHAR
STARTCHAR 2F0F
ENCODING 12047
SWIDTH 900 0
DWIDTH 30 0
BBX 22 27 4 -3
BITMAP
08FE00
0CFF00
0C0300
0C0300
0C0300
0C0300
0C0300
080300
080300
180300
180300
180300
180300
180300
100300
300300
300300
300300
300300
600300
600308
60030C
4003FC
C003FC
C00000
800000
800000
ENDCHAR
STARTCHAR 2F10
ENCODING 12048
SWIDTH 900 0
DWIDTH 30 0
BBX 22 22 4 -1
BITMAP
C0000C
C0000C
C0000C
C0000C
C0000C
C0000C
C0000C
C0000C
C0000C
C0000C
C0000C
C0000C
C0000C
C0000C
C0000C
C0000C
C0000C
C0000C
C0000C
C0000C
FFFFFC
FFFFFC
ENDCHAR
STARTCHAR 2F11
ENCODING 12049
SWIDTH 900 0
DWIDTH 30 0
BBX 19 26 6 -3
BITMAP
FFFFC0
FFFFE0
000060
000060
000060
000060
030060
030060
030060
030060
060060
060060
060060
0C0060
0C0060
0C0060
180060
180060
180060
300060
3001E0
6000C0
600000
C00000
C00000
800000
ENDCHAR
STARTCHAR 2F12
ENCODING 12050
SWIDTH 900 0
DWIDTH 30 0
BBX 18 29 6 -3
BITMAP
018000
018000
018000
018000
018000
018000
010000
030000
FFFF80
FFFFC0
0300C0
0300C0
0200C0
0600C0
0600C0
0600C0
0400C0
0C00C0
0C00C0
0C00C0
1800C0
1800C0
1800C0
3000C0
3003C0
6001C0
600000
C00000
C00000
ENDCHAR
STARTCHAR 2F13
ENCODING 12051
SWIDTH 900 0
DWIDTH 30 0
BBX 20 29 5 -3
BITMAP
040000
0E0000
0C0000
180000
380000
30FFE0
60FFF0
400030
C00030
800030
000030
000030
000030
000030
000030
000030
000030
000030
000030
000030
000030
000030
000030
000030
000030
000030
000030
0001F0
000070
ENDCHAR
STARTCHAR 2F14
ENCODING 12052
SWIDTH 900 0
DWIDTH 30 0
BBX 18 25 6 -1
BITMAP
C00000
C00000
C00000
C00000
C00000
C00100
C00780
C01F00
C07C00
C0E000
C10000
C00000
C00000
C00000
C00000
C00000
C00000
C00000
C00000
C00000
C00080
C00080
C000C0
FFFFC0
FFFFC0
ENDCHAR
STARTCHAR 2F15
ENCODING 12053
SWIDTH 900 0
DWIDTH 30 0
BBX 20 28 5 -2
BITMAP
FFFFF0
FFFFF0
C00000
C00000
C00000
C00000
C00000
C00000
C00000
C00000
C00000
C00000
C00000
C00000
C00000
C00000
C00000
C00000
C00000
C00000
C00000
C00000
C00000
C00000
C00000
C00000
FFFFF0
FFFFF0
ENDCHAR
STARTCHAR 2F17
ENCODING 12055
SWIDTH 900 0
DWIDTH 30 0
BBX 22 29 4 -2
BITMAP
003000
003000
003000
003000
003000
003000
003000
003000
003000
003000
003000
FFFFFC
FFFFFC
003000
003000
003000
003000
003000
003000
003000
003000
003000
003000
003000
003000
003000
003000
003000
003000
ENDCHAR
STARTCHAR 2F18
ENCODING 12056
SWIDTH 900 0
DWIDTH 30 0
BBX 11 28 9 -2
BITMAP
C000
C000
C000
C000
C000
C000
C000
C000
C000
C000
C700
C3C0
C0E0
C060
C000
C000
C000
C000
C000
C000
C000
C000
C000
C000
C000
C000
C000
C000
ENDCHAR
STARTCHAR 2F19
ENCODING 12057
SWIDTH 900 0
DWIDTH 30 0
BBX 9 23 19 -1
BITMAP
FF00
FF80
0180
0180
0180
C180
C180
C180
C180
C180
C180
C180
C180
C180
C780
C380
C000
C000
C000
C000
C000
C000
C000
ENDCHAR
STARTCHAR 2F1A
ENCODING 12058
SWIDTH 900 0
DWIDTH 30 0
BBX 22 29 4 -3
BITMAP
1FFFFC
1FFFFC
000000
000000
180000
180000
180000
180000
180000
180000
180000
180000
180000
180000
180000
180000
180000
380000
300000
300000
300000
300000
300000
600000
600000
600000
400000
C00000
400000
ENDCHAR
STARTCHAR 2F1B
ENCODING 12059
SWIDTH 900 0
DWIDTH 30 0
BBX 22 22 4 2
BITMAP
008000
018000
018000
030000
030000
030000
060000
060000
0E0000
0C0000
0C0000
180300
180380
380180
3000C0
3000E0
700060
600030
E00038
C1F818
FFF00C
FE0000
ENDCHAR
STARTCHAR 2F1C
ENCODING 12060
SWIDTH 900 0
DWIDTH 30 0
BBX 22 23 4 -1
BITMAP
1FFFF0
1FFFF0
000030
000060
000060
0000E0
0000C0
0001C0
018180
01C300
00E700
007E00
001C00
001E00
003F00
007380
00E0E0
01C070
038038
0E000C
1C0004
380000
E00000
ENDCHAR
STARTCHAR 2F1D
ENCODING 12061
SWIDTH 930 0
DWIDTH 31 0
BBX 19 22 6 1
BITMAP
7FFFC0
FFFFE0
C00060
C00060
C00060
C00060
C00060
C00060
C00060
C00060
C00060
C00060
C00060
C00060
C00060
C00060
C00060
C00060
C00060
C00060
FFFFE0
FFFFE0
ENDCHAR
STARTCHAR 2F1E
ENCODING 12062
SWIDTH 900 0
DWIDTH 30 0
BBX 22 30 4 -2
BITMAP
7FFFF8
FFFFFC
C0000C
C0000C
C0000C
C0000C
C0000C
C0000C
C0000C
C0000C
C0000C
C0000C
C0000C
C0000C
C0000C
C0000C
C0000C
C0000C
C0000C
C0000C
C0000C
C0000C
C0000C
C0000C
C0000C
C0000C
C0000C
C0000C
FFFFFC
FFFFFC
ENDCHAR
STARTCHAR 2F1F
ENCODING 12063
SWIDTH 930 0
DWIDTH 31 0
BBX 23 26 4 -1
BITMAP
001800
001800
001800
001800
001800
001800
001800
001800
001800
0FFFF0
0FFFF0
001800
001800
001800
001800
001800
001800
001800
001800
001800
001800
001800
000000
000000
FFFFFE
FFFFFE
ENDCHAR
STARTCHAR 2F20
ENCODING 12064
SWIDTH 900 0
DWIDTH 30 0
BBX 22 25 4 0
BITMAP
003000
003000
003000
003000
003000
003000
003000
003000
003000
FFFFFC
FFFFFC
003000
003000
003000
003000
003000
003000
003000
003000
003000
003000
000000
000000
0FFFC0
0FFFC0
ENDCHAR
STARTCHAR 2F21
ENCODING 12065
SWIDTH 900 0
DWIDTH 30 0
BBX 21 28 4 -2
BITMAP
060000
0C0000
1C0000
180000
380000
70FF80
60FFC0
C000C0
8001C0
000180
000380
000300
000300
060600
078E00
01EC00
007C00
003F00
0037C0
0060F0
00E038
01C000
038000
070000
0E0000
380000
700000
C00000
ENDCHAR
STARTCHAR 2F23
ENCODING 12067
SWIDTH 900 0
DWIDTH 30 0
BBX 18 28 6 -2
BITMAP
060000
0C0000
0C0000
180000
380000
30FF80
60FFC0
4000C0
C000C0
000180
000180
000180
0C0300
0E0300
070600
018C00
000C00
001800
003000
007000
006000
00C000
018000
070000
0E0000
1C0000
300000
600000
ENDCHAR
STARTCHAR 2F24
ENCODING 12068
SWIDTH 930 0
DWIDTH 31 0
BBX 21 27 5 -1
BITMAP
006000
006000
006000
006000
006000
004000
00C000
00C000
00C000
FFFFF0
FFFFF8
018000
018000
018000
030000
030000
030000
060E00
0607C0
0C01E0
0C0010
080000
180000
300000
300000
600000
400000
ENDCHAR
STARTCHAR 2F25
ENCODING 12069
SWIDTH 900 0
DWIDTH 30 0
BBX 20 29 5 -2
BITMAP
004000
00C000
00C000
008000
018000
018000
010000
FFFFF0
FFFFF0
020000
060000
060400
040C00
0C0C00
0C1800
0C1800
0F3800
03F000
00F000
007C00
00CF80
01C1E0
018070
030000
060000
1C0000
380000
600000
400000
ENDCHAR
STARTCHAR 2F26
ENCODING 12070
SWIDTH 900 0
DWIDTH 30 0
BBX 22 27 4 -3
BITMAP
0FFFC0
0FFFC0
000180
000380
000300
000600
000E00
000C00
001800
003800
003000
003000
FFFFFC
FFFFFC
003000
003000
003000
003000
003000
003000
003000
003000
003000
003000
003000
00F000
007000
ENDCHAR
STARTCHAR 2F27
ENCODING 12071
SWIDTH 900 0
DWIDTH 30 0
BBX 22 10 4 19
BITMAP
003000
003000
003000
001000
C00000
DFFFFC
CFFFFC
C0000C
C0000C
C0000C
ENDCHAR
STARTCHAR 2F28
ENCODING 12072
SWIDTH 930 0
DWIDTH 31 0
BBX 21 27 5 -2
BITMAP
000600
000600
000600
000600
000600
000600
000600
FFFFF8
FFFFF8
000600
000600
000600
000600
000600
000600
0C0600
060600
020600
000600
000600
000600
000600
000600
000600
000600
001E00
000E00
ENDCHAR
STARTCHAR 2F29
ENCODING 12073
SWIDTH 900 0
DWIDTH 30 0
BBX 22 24 4 -1
BITMAP
003000
003000
003000
003000
003000
003000
003000
003000
003000
003000
003070
383038
70301C
E03000
C03000
003000
003000
003000
003000
003000
003000
003000
01F000
007000
ENDCHAR
STARTCHAR 2F2A
ENCODING 12074
SWIDTH 900 0
DWIDTH 30 0
BBX 22 28 4 -2
BITMAP
00C000
00C000
00C000
00C000
00C000
00C000
00C000
018000
FFFFF8
FFFFF8
018000
018000
018000
030000
030C00
030C00
030C00
060C00
060C00
0E0C00
0C0C10
0C0C18
180C18
180FFC
3007FC
300000
600000
600000
ENDCHAR
STARTCHAR 2F2B
ENCODING 12075
SWIDTH 900 0
DWIDTH 30 0
BBX 22 25 4 -1
BITMAP
18FFF8
18FFFC
18000C
18000C
18000C
18000C
18000C
18000C
18FFFC
18FFF8
180000
180000
180000
100000
300000
300000
300000
300000
300000
600000
600000
600000
400000
C00000
800000
ENDCHAR
STARTCHAR 2F2C
ENCODING 12076
SWIDTH 870 0
DWIDTH 29 0
BBX 19 29 5 -2
BITMAP
00C000
00C000
00C000
00C000
00C000
00C000
00C000
C0C060
C0C060
C0C060
C0C060
C0C060
C0C060
C0C060
C0C060
C0C060
C0C060
FFFFE0
7FFFC0
00C000
00C000
00C000
00C000
00C000
00C000
00C000
00C000
00C000
00C000
ENDCHAR
STARTCHAR 2F2D
ENCODING 12077
SWIDTH 900 0
DWIDTH 30 0
BBX 21 25 5 0
BITMAP
006000
006000
006000
006000
006000
006000
006000
006000
C06018
C06018
C06018
C06018
C06018
C06018
C06018
C06018
C06018
C06018
C06018
C06018
C00018
C00018
C00018
FFFFF8
FFFFF0
ENDCHAR
STARTCHAR 2F2E
ENCODING 12078
SWIDTH 900 0
DWIDTH 30 0
BBX 22 24 4 -1
BITMAP
0C0008
0C0808
081818
181818
181818
103030
303030
303030
306060
606060
606060
60C0C0
C0C0C0
60C0C0
606060
606060
306060
303030
303030
181030
181818
181818
0C0818
0C000C
ENDCHAR
STARTCHAR 2F2F
ENCODING 12079
SWIDTH 900 0
DWIDTH 30 0
BBX 22 22 4 1
BITMAP
1FFFF0
1FFFF0
000000
000000
000000
003000
003000
003000
003000
003000
003000
003000
003000
003000
003000
003000
003000
003000
000000
000000
FFFFFC
FFFFFC
ENDCHAR
STARTCHAR 2F30
ENCODING 12080
SWIDTH 900 0
DWIDTH 30 0
BBX 20 26 5 -1
BITMAP
FFFE00
FFFF00
000300
000300
000300
000300
000300
000300
000300
000300
000300
7FFF00
7FFE00
600000
600000
600000
600000
600000
600000
600000
600000
600020
600020
600030
7FFFF0
7FFFF0
ENDCHAR
STARTCHAR 2F31
ENCODING 12081
SWIDTH 900 0
DWIDTH 30 0
BBX 21 30 5 -3
BITMAP
003000
003000
003000
003000
003000
003000
003000
9FFFF0
DFFFF8
C03018
C03018
C03018
C03018
C03018
C03018
C03018
C03018
C03018
C03018
C03018
C03078
C03038
003000
003000
003000
003000
003000
003000
003000
003000
ENDCHAR
STARTCHAR 2F32
ENCODING 12082
SWIDTH 930 0
DWIDTH 31 0
BBX 23 28 4 -2
BITMAP
1FFFF0
1FFFF0
000000
000000
000000
003000
003000
003000
003000
003000
003000
FFFFFE
FFFFFE
003000
003000
003000
003000
003000
003000
003000
003000
003000
003000
003000
003000
003000
003000
003000
ENDCHAR
STARTCHAR 2F33
ENCODING 12083
SWIDTH 900 0
DWIDTH 30 0
BBX 22 27 4 -1
BITMAP
060000
060000
0C0000
0C0000
1C0000
180000
380000
300000
700300
600700
E00600
FF8C00
FE1800
003800
003000
006000
00E000
00C000
018000
038000
070060
060070
0C0038
1C0018
18FF0C
3FFC00
1F0000
ENDCHAR
STARTCHAR 2F34
ENCODING 12084
SWIDTH 900 0
DWIDTH 30 0
BBX 22 29 4 -3
BITMAP
001800
001800
001800
000000
000000
1FFFFC
1FFFFC
000000
000000
180000
180000
180000
180000
180000
180000
180000
100000
100000
100000
300000
300000
300000
300000
200000
600000
600000
600000
400000
C00000
ENDCHAR
STARTCHAR 2F35
ENCODING 12085
SWIDTH 900 0
DWIDTH 30 0
BBX 24 25 3 -3
BITMAP
FE0000
FE0000
0E0000
0C0000
0C0000
180000
300000
300000
7F0000
3F0000
070000
060000
060000
C60000
CE0000
4C0000
6C0000
7C0000
380000
380000
3E0000
77FFFF
61FFFF
C00000
800000
ENDCHAR
STARTCHAR 2F36
ENCODING 12086
SWIDTH 900 0
DWIDTH 30 0
BBX 22 27 4 -3
BITMAP
030000
030000
030300
030300
030300
030300
020300
020300
060300
060300
FFFFFC
FFFFFC
060300
060300
040300
0C0300
0C0300
0C0300
0C0300
080300
180300
180300
180300
100300
300000
300000
200000
ENDCHAR
STARTCHAR 2F37
ENCODING 12087
SWIDTH 900 0
DWIDTH 30 0
BBX 22 30 4 -2
BITMAP
00C000
00C000
00C180
00C1C0
00C040
00C000
00C000
004000
0060FC
007FF8
3FFE00
FF6000
007000
003000
003000
003000
001800
001800
001800
000C00
000C00
000E00
000600
000700
000380
000380
0001C8
0000F8
000078
000030
ENDCHAR
STARTCHAR 2F38
ENCODING 12088
SWIDTH 900 0
DWIDTH 30 0
BBX 17 27 7 -3
BITMAP
FFFE00
FFFF00
000300
000300
000300
000300
000300
000300
FFFF00
FFFE00
C00000
C00000
C00000
C00000
C00000
FFFF00
FFFF80
000180
000180
000180
000180
000180
000180
000180
000180
000780
000380
ENDCHAR
STARTCHAR 2F39
ENCODING 12089
SWIDTH 900 0
DWIDTH 30 0
BBX 19 23 5 0
BITMAP
FFFFE0
FFFFE0
000060
000060
000060
000060
000060
000060
000060
000060
1FFC60
1FFC60
000060
000060
000060
000060
000060
000060
000060
000060
000060
FFFFE0
FFFFE0
ENDCHAR
STARTCHAR 2F3A
ENCODING 12090
SWIDTH 900 0
DWIDTH 30 0
BBX 17 24 7 3
BITMAP
001C00
007800
00F000
03C000
078000
1E0000
380000
600000
000000
000000
000F80
00FF00
07F800
3F0000
000000
000000
000000
000000
000100
001F00
00FE00
07F000
3F0000
F00000
ENDCHAR
STARTCHAR 2F3B
ENCODING 12091
SWIDTH 900 0
DWIDTH 30 0
BBX 7 25 5 1
BITMAP
0C
1C
38
30
60
C0
00
00
06
0E
3C
70
E0
00
18
18
18
18
18
18
18
18
18
18
18
ENDCHAR
STARTCHAR 2F3C
ENCODING 12092
SWIDTH 900 0
DWIDTH 30 0
BBX 24 23 3 1
BITMAP
000C00
000600
000200
000000
00C000
00C000
00C000
00C000
00C000
00C006
00C007
30C003
30C000
60C000
E0C000
80C000
00C000
00C000
00C000
00C040
00C060
00FFF0
00FFE0
ENDCHAR
STARTCHAR 2F3D
ENCODING 12093
SWIDTH 900 0
DWIDTH 30 0
BBX 20 28 5 0
BITMAP
00C000
00C000
00C600
00C700
00C100
00C000
00C000
004000
006070
007FF0
0FFE00
FFA000
C02000
003010
003070
0010E0
0019C0
001F80
001E00
003C00
00FC00
03C600
0F0600
3C0300
600380
0001A0
0000E0
000060
ENDCHAR
STARTCHAR 2F3F
ENCODING 12095
SWIDTH 900 0
DWIDTH 30 0
BBX 22 27 4 -2
BITMAP
000FE0
07FFE0
3FFF00
000000
000000
003000
003000
003000
003000
07FF00
07FF00
003000
003000
003000
003000
FFFFFC
FFFFFC
003000
003000
003000
003000
003000
003000
003000
003000
01F000
007000
ENDCHAR
STARTCHAR 2F40
ENCODING 12096
SWIDTH 900 0
DWIDTH 30 0
BBX 20 29 5 -2
BITMAP
006000
006000
006000
006000
006000
FFFFF0
FFFFF0
006000
006000
006000
006000
000000
1FFE00
1FFF00
000300
000600
000600
000C00
061C00
079800
01F000
007C00
00EF80
01C180
038000
070000
0E0000
380000
700000
ENDCHAR
STARTCHAR 2F41
ENCODING 12097
SWIDTH 900 0
DWIDTH 30 0
BBX 19 29 5 -2
BITMAP
00C000
00C000
00C000
00C000
00C000
00CFE0
00CFE0
00C000
00C000
00C000
00C000
000000
3FFF00
3FFF00
000300
000300
000600
000600
060C00
07DC00
01F800
007E00
00E780
01C000
038000
070000
1C0000
380000
E00000
ENDCHAR
STARTCHAR 2F42
ENCODING 12098
SWIDTH 900 0
DWIDTH 30 0
BBX 20 28 5 -2
BITMAP
006000
006000
006000
002000
000000
FFFFF0
FFFFF0
000000
000000
000400
000C00
000C00
001800
041800
073000
03F000
01E000
00F000
00F800
018E00
030700
0701C0
060060
0C0000
180000
300000
600000
400000
ENDCHAR
STARTCHAR 2F43
ENCODING 12099
SWIDTH 900 0
DWIDTH 30 0
BBX 22 27 4 -1
BITMAP
000600
000600
000600
000600
000600
018600
018600
008600
000600
000600
380600
1C0600
000600
000600
000608
003FFC
7FFF80
FE0600
000600
000600
000600
000600
000600
000600
000600
000600
000600
ENDCHAR
STARTCHAR 2F44
ENCODING 12100
SWIDTH 900 0
DWIDTH 30 0
BBX 21 28 5 -2
BITMAP
000080
001FC0
01FF00
03C000
000000
180000
180000
180000
180000
180000
180000
100000
11FFF8
31FFF8
300000
300000
300300
200300
600300
600300
600300
400300
C00300
C00300
800300
000300
000300
000300
ENDCHAR
STARTCHAR 2F45
ENCODING 12101
SWIDTH 900 0
DWIDTH 30 0
BBX 22 29 4 -3
BITMAP
003000
003000
003000
002000
000000
000000
FFFFFC
FFFFFC
000000
000000
030000
030000
030000
030000
033F80
063FC0
0600C0
0600C0
0600C0
0600C0
0C00C0
0C00C0
0C00C0
0800C0
1800C0
1803C0
3001C0
300000
200000
ENDCHAR
STARTCHAR 2F46
ENCODING 12102
SWIDTH 900 0
DWIDTH 30 0
BBX 23 28 3 -4
BITMAP
1FFFE0
1FFFE0
000000
000000
002000
002000
006000
006000
006000
006000
00C000
FFFFFC
FFFFFC
00C000
018000
018000
018600
030600
030600
060600
060600
0C0604
0C0604
180606
1807FE
3007FE
200000
600000
ENDCHAR
STARTCHAR 2F47
ENCODING 12103
SWIDTH 870 0
DWIDTH 29 0
BBX 17 24 6 0
BITMAP
FFFF80
FFFF80
C00180
C00180
C00180
C00180
C00180
C00180
C00180
C00180
C00180
C7F180
C7F180
C00180
C00180
C00180
C00180
C00180
C00180
C00180
C00180
C00180
FFFF80
FFFF80
ENDCHAR
STARTCHAR 2F48
ENCODING 12104
SWIDTH 870 0
DWIDTH 29 0
BBX 17 23 6 0
BITMAP
FFFF80
FFFF80
C00180
C00180
C00180
C00180
C00180
C00180
C00180
C00180
C00180
FFF180
FFE180
C00180
C00180
C00180
C00180
C00180
C00180
C00180
C00180
FFFF80
FFFF80
ENDCHAR
STARTCHAR 2F49
ENCODING 12105
SWIDTH 900 0
DWIDTH 30 0
BBX 20 27 5 -4
BITMAP
0C7FE0
0C7FF0
0C0030
0C0030
0C0030
0C0030
0C0030
0CFE30
0CFE30
0C0030
0C0030
0C0030
0C0030
087F30
087F30
180030
180030
180030
180030
100030
300030
3000F0
300070
600000
600000
C00000
C00000
ENDCHAR
STARTCHAR 2F4A
ENCODING 12106
SWIDTH 900 0
DWIDTH 30 0
BBX 20 28 5 -2
BITMAP
006000
006000
006000
006000
006000
006000
006000
006000
FFFFF0
FFFFF0
006000
006000
006000
006000
006000
006000
106100
3061C0
7060F0
606030
C06000
806000
006000
006000
006000
006000
006000
006000
ENDCHAR
STARTCHAR 2F4B
ENCODING 12107
SWIDTH 900 0
DWIDTH 30 0
BBX 19 27 6 -1
BITMAP
080000
180000
380000
300000
600000
603F80
C03FC0
8000C0
000080
000180
000180
000000
004000
00C000
00C000
018000
018000
010000
030000
020000
060000
0C0200
0C03C0
1801E0
300000
600000
400000
ENDCHAR
STARTCHAR 2F4C
ENCODING 12108
SWIDTH 900 0
DWIDTH 30 0
BBX 23 27 3 -1
BITMAP
000C00
000C00
000C00
000C00
000C00
000C00
000C00
000C00
0C0C00
0C0C00
0C0C00
0C0C00
0C0DF8
0C0DF8
0C0C00
0C0C00
0C0C00
0C0C00
0C0C00
0C0C00
0C0C00
0C0C00
0C0C00
000000
000000
FFFFFE
FFFFFE
ENDCHAR
STARTCHAR 2F4D
ENCODING 12109
SWIDTH 900 0
DWIDTH 30 0
BBX 22 28 4 -2
BITMAP
FFFFFC
FFFFFC
000000
000000
010000
038000
030000
060000
0E0000
0C3FC0
183FE0
1000E0
0000C0
0001C0
030180
018380
00C700
000600
000C00
001C00
003800
007000
00E000
038000
070000
1E0000
380000
600000
ENDCHAR
STARTCHAR 2F4E
ENCODING 12110
SWIDTH 900 0
DWIDTH 30 0
BBX 19 30 5 -3
BITMAP
07FC00
07FE00
000600
080600
080600
180600
180600
100600
100600
1007E0
3003E0
200000
200000
000000
1FFF00
1FFF00
000300
000600
000E00
0C0C00
0F9C00
03F800
007E00
00EF80
01C0E0
070000
0E0000
1C0000
700000
C00000
ENDCHAR
STARTCHAR 2F4F
ENCODING 12111
SWIDTH 900 0
DWIDTH 30 0
BBX 24 27 3 -4
BITMAP
0FFFE0
0FFFE0
0C0060
0C0060
0C1860
0C1860
0C1860
0C1860
0C1860
FFFFFF
FFFFFF
0C1860
0C3060
0C3060
0C3060
0C3060
0C6060
0C6060
0FFFFE
0FFFFE
00C060
018060
018060
030060
060060
0E01E0
0C0040
ENDCHAR
STARTCHAR 2F50
ENCODING 12112
SWIDTH 900 0
DWIDTH 30 0
BBX 22 24 4 1
BITMAP
C01800
C01800
C01800
C01800
C01800
C01800
C01800
C01830
CF98F0
CF98C0
C01800
C01800
C01800
C01800
C01800
C01800
C01800
C01800
C01800
C01808
C0180C
FE1FFC
FC0FFC
200000
ENDCHAR
STARTCHAR 2F51
ENCODING 12113
SWIDTH 900 0
DWIDTH 30 0
BBX 23 27 4 0
BITMAP
0003E0
00FFC0
3FFC00
7E0000
000000
006000
006000
006000
006000
3FE000
3FFFC0
007FC0
006000
006000
006000
006008
006FFC
07FFC0
FFE000
E06000
006000
006000
006004
006004
006006
007FFE
007FFE
ENDCHAR
STARTCHAR 2F52
ENCODING 12114
SWIDTH 870 0
DWIDTH 29 0
BBX 19 30 5 -2
BITMAP
001F80
07FF80
3FF000
000000
000000
000000
C03000
C03000
C03000
C03000
C03000
C03000
CFFFE0
CFFFE0
C01800
C01800
C01800
C00C00
C00C00
C00C00
C00C00
C00600
C00600
C00700
C00300
C00380
F80180
F001E0
0000E0
0000C0
ENDCHAR
STARTCHAR 2F53
ENCODING 12115
SWIDTH 930 0
DWIDTH 31 0
BBX 23 31 4 -3
BITMAP
040000
0C0000
1C0000
380000
31FFF8
71FFF8
600000
C00000
800000
07FF80
07FF80
000000
000000
000000
3FFFC0
3FFFE0
000060
000060
000060
000060
000060
000060
000060
000060
000060
000030
000030
00003A
00001E
00000E
00000C
ENDCHAR
STARTCHAR 2F54
ENCODING 12116
SWIDTH 900 0
DWIDTH 30 0
BBX 25 25 2 -1
BITMAP
000C0000
000C0000
000C0000
000C0000
000C0000
000C0000
000C0000
000C0C00
3F8C1800
3F8C0000
018C0000
018C0000
030C0000
030C6000
060C7000
060C3C00
0C0C0E00
180C0380
300C0080
600C0000
C00C0000
000C0000
000C0000
007C0000
001C0000
ENDCHAR
STARTCHAR 2F55
ENCODING 12117
SWIDTH 900 0
DWIDTH 30 0
BBX 19 26 5 -1
BITMAP
006000
006000
006000
006000
006000
004000
00C000
C0C0C0
60C180
30C100
00C000
018000
018000
018000
010000
030000
030000
030000
060600
0607C0
0C01E0
0C0000
080000
180000
100000
300000
ENDCHAR
STARTCHAR 2F56
ENCODING 12118
SWIDTH 900 0
DWIDTH 30 0
BBX 24 27 3 -1
BITMAP
0000F0
000FF0
00FFC0
01F800
0C0000
0C0000
0C0000
0C0040
0C00C0
0C1860
0C1860
081860
081830
181830
181830
181818
181818
181818
10180C
30180C
301804
301806
601806
601802
400003
C00001
800000
ENDCHAR
STARTCHAR 2F57
ENCODING 12119
SWIDTH 900 0
DWIDTH 30 0
BBX 21 27 5 -2
BITMAP
000300
180380
1801C0
300060
700030
600000
C00000
000000
000400
000400
000C00
000C00
061800
079800
01F000
00F800
007C00
00CF00
01C3C0
0180F0
030038
060000
0C0000
180000
700000
E00000
800000
ENDCHAR
STARTCHAR 2F58
ENCODING 12120
SWIDTH 900 0
DWIDTH 30 0
BBX 21 31 4 -2
BITMAP
000180
000300
040700
070600
03CE00
00FC00
007C00
003E00
006780
01C1E0
038070
070000
0E0000
0000C0
0000C0
000180
0C0380
070700
03C600
00FC00
003C00
003F00
0073C0
00E0F0
01C018
038000
070000
1C0000
780000
E00000
800000
ENDCHAR
STARTCHAR 2F59
ENCODING 12121
SWIDTH 900 0
DWIDTH 30 0
BBX 18 28 6 -3
BITMAP
0000C0
0000C0
0C00C0
0C00C0
0C00C0
0C00C0
0C00C0
0C00C0
0FFCC0
0FFCC0
0000C0
0000C0
0000C0
0000C0
0000C0
FFFCC0
FFFCC0
0000C0
0200C0
0600C0
0600C0
0600C0
0400C0
0C00C0
0C00C0
0800C0
1800C0
1000C0
ENDCHAR
STARTCHAR 2F5A
ENCODING 12122
SWIDTH 900 0
DWIDTH 30 0
BBX 21 29 4 -3
BITMAP
000600
000600
180600
180600
180600
180600
180600
180600
180000
180000
19FFF8
19FFF8
180000
180000
180000
180000
100000
31FFC0
30FFC0
3000C0
3000C0
3000C0
2000C0
6000C0
6000C0
6000C0
4000C0
C000C0
C00000
ENDCHAR
STARTCHAR 2F5B
ENCODING 12123
SWIDTH 870 0
DWIDTH 29 0
BBX 21 28 4 -3
BITMAP
FFFFF8
FFFFF8
000000
000000
000600
000600
300600
300600
300600
300600
300600
300600
3FFFF0
1FFFF0
000600
000600
000600
000600
0C0600
1C0600
180600
300600
700600
600600
C00600
800600
001E00
000E00
ENDCHAR
STARTCHAR 2F5C
ENCODING 12124
SWIDTH 870 0
DWIDTH 29 0
BBX 23 29 3 -2
BITMAP
001800
001800
001800
001800
001800
0C1800
0C1800
19FFE0
19FFE0
301800
201800
601800
001800
001800
001800
001800
FFFFFE
FFFFFE
001800
001800
001800
001800
001800
001800
001800
001800
001800
001800
001800
ENDCHAR
STARTCHAR 2F5D
ENCODING 12125
SWIDTH 900 0
DWIDTH 30 0
BBX 22 27 4 -1
BITMAP
003000
003000
003000
0030C0
0030C0
0060C0
006080
006000
006000
006000
FFFFFC
FFFFFC
00C000
018000
018000
018000
038000
030200
0303C0
0601F0
060018
040000
0C0000
0C0000
180000
100000
100000
ENDCHAR
STARTCHAR 2F5E
ENCODING 12126
SWIDTH 930 0
DWIDTH 31 0
BBX 23 29 4 -2
BITMAP
003000
003000
003000
001000
000000
FFFFFE
FFFFFE
000000
008000
018000
018000
030000
060000
060300
0C0700
1C0600
1FCC00
1F1800
003800
003000
006000
00C000
01C040
0380E0
030070
060038
0C0F18
0FFE0C
1FE000
ENDCHAR
STARTCHAR 2F5F
ENCODING 12127
SWIDTH 900 0
DWIDTH 30 0
BBX 22 24 4 0
BITMAP
7FFFF8
7FFFF8
000000
000000
000000
003000
003000
003000
003000
003000
1FFFE0
1FFFE0
003000
003000
003000
003000
003180
0031C0
003040
003000
000000
000000
FFFFFC
FFFFFC
ENDCHAR
STARTCHAR 2F60
ENCODING 12128
SWIDTH 900 0
DWIDTH 30 0
BBX 21 27 4 -1
BITMAP
0003F0
00FFE0
07F800
000000
000000
180000
180000
180000
1860C0
1860C0
1860E0
186060
186060
184060
184060
18C030
10C030
30C030
30C030
30C010
30C218
208318
609198
61F188
40C088
C00008
400000
ENDCHAR
STARTCHAR 2F61
ENCODING 12129
SWIDTH 900 0
DWIDTH 30 0
BBX 22 26 4 -2
BITMAP
FFFFF8
FFFFF8
000000
000000
0C0000
0C0000
0C0000
0C0000
0CFF00
0CFF80
0C0180
0C0180
0C0180
0C6180
0C7180
0C3180
0C0180
0C0180
0C0180
0C0180
0C0180
0C0188
0C0188
0F8188
0F01FC
0000F8
ENDCHAR
STARTCHAR 2F62
ENCODING 12130
SWIDTH 870 0
DWIDTH 29 0
BBX 23 28 3 -1
BITMAP
0600C0
0600C0
0600C0
0600C0
0600C0
0600C0
0600C0
FFFFFE
FFFFFE
0600C0
0600C0
0600C0
0600C0
0600C0
0600C0
0600C0
067EC0
067EC0
0600C0
0600C0
0600C0
0600C0
0600C0
0600C0
0600C0
0600C0
07FFC0
03FFC0
ENDCHAR
STARTCHAR 2F63
ENCODING 12131
SWIDTH 900 0
DWIDTH 30 0
BBX 21 28 5 -1
BITMAP
003000
003000
003000
003000
303000
303000
703000
603000
63FFE0
C3FFE0
803000
803000
003000
003000
003000
003000
1FFF80
1FFF80
003000
003000
003000
003000
003000
003000
000000
000000
FFFFF8
FFFFF8
ENDCHAR
STARTCHAR 2F64
ENCODING 12132
SWIDTH 900 0
DWIDTH 30 0
BBX 21 27 5 -3
BITMAP
19FFF0
18FFF8
180018
181818
181818
181818
181818
18FF98
18FF98
101818
101818
101818
101818
101818
30FF98
30FF98
301818
301818
201818
601818
601818
601818
401878
C00038
C00000
800000
800000
ENDCHAR
STARTCHAR 2F65
ENCODING 12133
SWIDTH 900 0
DWIDTH 30 0
BBX 19 24 6 0
BITMAP
FFFFC0
FFFFE0
C00060
C00060
C00060
C00060
C0C060
C0C060
C0C060
C0C060
C0C060
CFFC60
CFFC60
C0C060
C0C060
C0C060
C0C060
C0C060
C00060
C00060
C00060
C00060
FFFFE0
FFFFC0
ENDCHAR
STARTCHAR 2F66
ENCODING 12134
SWIDTH 900 0
DWIDTH 30 0
BBX 23 27 4 -3
BITMAP
7FFFFC
7FFFFC
00000C
00000C
00180C
00180C
001804
001800
001800
001800
001800
001BF0
181BF0
181800
181800
301800
301800
301800
301800
661800
661800
630000
C18000
C0E000
C07FFE
801FFE
800000
ENDCHAR
STARTCHAR 2F67
ENCODING 12135
SWIDTH 870 0
DWIDTH 29 0
BBX 25 31 2 -4
BITMAP
00018000
00018000
00018000
00008000
00000000
03FFFF80
03FFFF80
00000000
00000000
01800000
01800000
31800000
31800000
01800000
01800000
01000000
03000000
03000000
03000000
3B000000
F3000000
C2000000
06000000
06000000
06000000
04000000
0C000000
0C000000
08000000
18000000
10000000
ENDCHAR
STARTCHAR 2F69
ENCODING 12137
SWIDTH 930 0
DWIDTH 31 0
BBX 17 28 7 -1
BITMAP
010000
030000
060000
000000
000000
000000
7FFF00
FFFF80
C00180
C00180
C00180
C00180
C00180
C00180
C00180
C00180
C7F180
C7F180
C00180
C00180
C00180
C00180
C00180
C00180
C00180
C00180
FFFF80
FFFF00
ENDCHAR
STARTCHAR 2F6A
ENCODING 12138
SWIDTH 900 0
DWIDTH 30 0
BBX 22 30 4 -4
BITMAP
003000
003000
003000
003000
003000
3FFFF0
3FFFF0
003030
003030
303030
303030
303030
300000
300000
33FF80
23FFC0
2001C0
600180
600380
600300
60E600
607E00
C01F00
C01FC0
C030F0
80601C
81C000
038000
0F0000
0C0000
ENDCHAR
STARTCHAR 2F6B
ENCODING 12139
SWIDTH 930 0
DWIDTH 31 0
BBX 25 19 3 3
BITMAP
0FFFF000
1FFFF800
18001800
18001800
18C61800
18C61800
18C61800
18C61800
18C61800
18C61800
18C61800
18C61800
18C61800
18C61800
18001800
18001800
00000000
FFFFFF80
FFFFFF80
ENDCHAR
STARTCHAR 2F6C
ENCODING 12140
SWIDTH 900 0
DWIDTH 30 0
BBX 16 24 7 0
BITMAP
FFFE
FFFF
C003
C003
C003
C003
C003
C7E3
C7E3
C003
C003
C003
C003
C003
C7E3
C7E3
C003
C003
C003
C003
C003
C003
FFFF
FFFE
ENDCHAR
STARTCHAR 2F6D
ENCODING 12141
SWIDTH 900 0
DWIDTH 30 0
BBX 20 27 5 -2
BITMAP
0FFF00
0FFF00
000700
000600
000600
010C00
01C800
00E000
002000
000000
7FFFE0
FFFFF0
000030
000030
003030
003030
043000
0C3000
183000
383000
703000
603000
C03000
003000
003000
00F000
007000
ENDCHAR
STARTCHAR 2F6E
ENCODING 12142
SWIDTH 900 0
DWIDTH 30 0
BBX 22 28 4 -2
BITMAP
060000
0C0000
0C0000
18FFE0
18FFE0
300000
200000
001000
003000
003000
003000
007000
006000
FFFFFC
FFFFFC
00C000
00C000
01C000
018000
018700
0307C0
0300E0
060000
060000
0C0000
180000
180000
300000
ENDCHAR
STARTCHAR 2F6F
ENCODING 12143
SWIDTH 900 0
DWIDTH 30 0
BBX 22 26 4 -2
BITMAP
7FFFFC
7FFFFC
000000
000000
00C000
018000
018000
030000
030000
060000
0E0000
0C0000
180000
31FFE0
61FFE0
C18060
018060
018060
018060
018060
018060
018060
018060
018060
01FFE0
00FFC0
ENDCHAR
STARTCHAR 2F70
ENCODING 12144
SWIDTH 930 0
DWIDTH 31 0
BBX 23 26 4 -3
BITMAP
1FFFC0
1FFFC0
000000
000000
000000
000000
000000
000000
FFFFFC
FFFFFC
000000
000000
003000
003000
003000
003000
003020
103078
30303C
603006
603000
403000
003000
003000
00F000
007000
ENDCHAR
STARTCHAR 2F72
ENCODING 12146
SWIDTH 870 0
DWIDTH 29 0
BBX 21 26 4 -1
BITMAP
0000C0
003FC0
0FFF00
3F0000
000000
000000
003000
003000
003000
003000
003000
FFFFF8
FFFFF8
003000
003000
003000
0030C0
1830E0
383070
703018
803000
003000
003000
003000
003000
003000
ENDCHAR
STARTCHAR 2F73
ENCODING 12147
SWIDTH 900 0
DWIDTH 30 0
BBX 22 27 4 0
BITMAP
003000
003000
003000
000000
C00000
CFFFF8
CFFFFC
C0000C
C0000C
C0000C
000000
000000
018000
010000
030200
030300
030380
060180
0601C0
0C00E0
0C0060
180070
180030
300018
300008
600000
C00000
ENDCHAR
STARTCHAR 2F74
ENCODING 12148
SWIDTH 900 0
DWIDTH 30 0
BBX 22 24 4 1
BITMAP
003000
003000
002000
000000
000000
3FFFF0
3FFFF0
000000
000000
000000
000000
000100
000380
0C0300
060300
070600
038000
008000
000000
000000
000000
000000
FFFFFC
FFFFFC
ENDCHAR
STARTCHAR 2F75
ENCODING 12149
SWIDTH 900 0
DWIDTH 30 0
BBX 24 28 3 -1
BITMAP
180000
180080
380180
700380
600300
C7E67F
87EC7F
000800
000000
060000
060000
060030
060030
060030
060030
060030
060030
060030
060030
060030
060030
060030
060030
060030
060030
060030
0000F0
000030
ENDCHAR
STARTCHAR 2F76
ENCODING 12150
SWIDTH 900 0
DWIDTH 30 0
BBX 21 28 4 -2
BITMAP
003000
003000
003000
003000
003000
003060
3030C0
183180
0C3000
003000
003000
003000
FFFFF8
FFFFF8
003000
003000
003000
003000
0C30C0
1830E0
383078
703000
403000
003000
003000
003000
003000
003000
ENDCHAR
STARTCHAR 2F77
ENCODING 12151
SWIDTH 900 0
DWIDTH 30 0
BBX 19 29 5 -3
BITMAP
020000
060000
0E0000
0C0800
181800
383000
306000
73E000
7FC000
7D8000
030000
060300
0E0180
0C00C0
187EC0
3FF820
3F8000
000000
006000
006000
006000
106380
3061C0
6060E0
C06000
806000
006000
03E000
00E000
ENDCHAR
STARTCHAR 2F78
ENCODING 12152
SWIDTH 930 0
DWIDTH 31 0
BBX 23 28 4 0
BITMAP
060000
0C0000
0C0000
18FFF0
18FFF0
300000
200000
000000
000000
003000
003000
003000
003000
FFFFFE
FFFFFE
003000
003000
003000
003000
003000
183030
183030
183030
180030
180030
180030
1FFFF0
1FFFF0
ENDCHAR
STARTCHAR 2F79
ENCODING 12153
SWIDTH 930 0
DWIDTH 31 0
BBX 21 28 5 -3
BITMAP
9FFFF0
DFFFF8
C00018
C00018
C00018
C00018
C00118
C08118
C08318
C18318
C19318
C99F18
CF0E18
C78718
C6E798
C60CD8
CC0C18
CC1818
D81818
C03018
C02018
C00018
C00018
C00018
C00018
C00018
C00078
C00038
ENDCHAR
STARTCHAR 2F7A
ENCODING 12154
SWIDTH 870 0
DWIDTH 29 0
BBX 23 29 3 -1
BITMAP
030180
038300
018200
000000
3FFFF8
3FFFF8
000000
000000
001800
001800
001800
07FFC0
07FFC0
001800
001800
001800
001800
001800
FFFFFE
FFFFFE
001800
001800
001800
001800
001800
001800
001800
001800
001800
ENDCHAR
STARTCHAR 2F7B
ENCODING 12155
SWIDTH 870 0
DWIDTH 29 0
BBX 21 25 4 -1
BITMAP
001FF8
001FF8
FF8018
FFC018
00C018
00C018
00C018
00C018
00C218
38C718
18C018
00C018
00C018
00C018
00C018
38C318
F0CE18
C0CC18
00C018
00C018
00C018
00C018
00C078
03C038
018000
ENDCHAR
STARTCHAR 2F7C
ENCODING 12156
SWIDTH 870 0
DWIDTH 29 0
BBX 23 29 3 -2
BITMAP
006000
006000
006000
006000
0FFF80
0FFF98
006038
006070
0061C0
006380
000700
FFFFFE
FFFFFE
007000
01E000
038000
0F0000
3C0000
F181C0
818380
018F00
019C00
018000
018000
018020
018020
018030
01FFF8
00FFF8
ENDCHAR
STARTCHAR 2F7D
ENCODING 12157
SWIDTH 870 0
DWIDTH 29 0
BBX 21 26 4 -2
BITMAP
FFFFF8
FFFFF8
000000
006000
006000
00C000
008000
000000
6FFFF0
6FFFF0
600030
600030
618C30
618C30
618C30
618C30
618C30
618C30
618C30
618C30
618C30
600030
600030
600030
6000F0
600030
ENDCHAR
STARTCHAR 2F7E
ENCODING 12158
SWIDTH 930 0
DWIDTH 31 0
BBX 23 30 4 -2
BITMAP
003000
003000
003000
003000
3FFFF0
3FFFF0
003000
003000
003000
07FF80
07FF80
003000
003000
003000
FFFFFE
FFFFFE
003000
003000
003000
003000
003000
0C30C0
1830E0
383038
303008
203000
003000
003000
003000
003000
ENDCHAR
STARTCHAR 2F7F
ENCODING 12159
SWIDTH 900 0
DWIDTH 30 0
BBX 22 27 4 -2
BITMAP
FFFFF8
FFFFF8
000000
0C0180
0C0180
0C0180
0C0180
0CF980
0CF980
0C0180
0C0180
0C0180
0C0180
0CF980
0CF980
0C0180
0C0180
0C0180
000180
0001F8
FFFFFC
FFFF80
000180
000180
000180
000180
000180
ENDCHAR
STARTCHAR 2F80
ENCODING 12160
SWIDTH 900 0
DWIDTH 30 0
BBX 22 30 4 -2
BITMAP
003000
003000
003000
0FFF80
0FFFC0
0030C0
0030C0
0030C0
FFFFFC
FFFFFC
0030C0
0030C0
0030C0
0FFFC0
0FFF80
003000
003000
003000
0FFFE0
0FFFE0
003000
003000
003000
FFFFFC
FFFFFC
003000
003000
003000
003000
003000
ENDCHAR
STARTCHAR 2F81
ENCODING 12161
SWIDTH 870 0
DWIDTH 29 0
BBX 19 29 5 -1
BITMAP
006000
006000
006000
004000
00C000
9FFFC0
DFFFE0
C18060
C18060
C10060
C31C60
C61E60
C60060
CC0060
C84060
C0C060
C0C060
C18060
C18060
C33860
C61C60
C60F60
CC0060
C80060
C00060
C00060
C00060
C001E0
C000E0
ENDCHAR
STARTCHAR 2F82
ENCODING 12162
SWIDTH 900 0
DWIDTH 30 0
BBX 19 26 5 -1
BITMAP
FFFFE0
FFFFE0
C06000
C06000
C06000
C06000
C06000
C06000
FFFF80
FFFFC0
C000C0
C000C0
C000C0
C000C0
C000C0
C000C0
FFFFC0
FFFF80
C06000
C06000
C06000
C06000
C06000
C06000
FFFFE0
FFFFE0
ENDCHAR
STARTCHAR 2F83
ENCODING 12163
SWIDTH 900 0
DWIDTH 30 0
BBX 17 29 6 -1
BITMAP
010000
030000
060000
040000
000000
000000
FFFF80
FFFF80
C00180
C00180
C00180
C00180
C00180
C7F180
C7F180
C00180
C00180
C00180
C00180
C00180
C7F180
C7F180
C00180
C00180
C00180
C00180
C00180
FFFF80
FFFF80
ENDCHAR
STARTCHAR 2F84
ENCODING 12164
SWIDTH 900 0
DWIDTH 30 0
BBX 24 26 3 -2
BITMAP
7FFFFC
7FFFFC
000000
000000
030000
030000
070180
0601C0
0C00C0
1FFC60
1FF830
000000
001800
001800
001800
001800
0FFFE0
0FFFE0
001800
001800
001800
001800
000000
000000
FFFFFF
FFFFFF
ENDCHAR
STARTCHAR 2F85
ENCODING 12165
SWIDTH 900 0
DWIDTH 30 0
BBX 20 22 5 2
BITMAP
030000
0E0000
181FE0
C01FF0
C00030
C00030
C00030
C00030
C00030
C00030
C00030
DF9FB0
DF9FB0
C00030
C00030
C00030
C00030
C00030
C00030
C00030
FFFFF0
FFFFE0
ENDCHAR
STARTCHAR 2F86
ENCODING 12166
SWIDTH 900 0
DWIDTH 30 0
BBX 22 28 4 -2
BITMAP
0007C0
03FF80
1FE000
000000
000000
003000
003000
003000
003000
FFFFFC
FFFFFC
003000
003000
003000
003000
000000
000000
07FF80
0FFF80
0C0180
0C0180
0C0180
0C0180
0C0180
0C0180
0C0180
0FFF80
07FF80
ENDCHAR
STARTCHAR 2F87
ENCODING 12167
SWIDTH 900 0
DWIDTH 30 0
BBX 24 25 3 -1
BITMAP
000060
000060
200060
300060
600060
600060
C01FFE
9F9FFE
1F8060
018060
018860
031860
031860
E31860
661860
061FFF
0C0FFF
0C0060
180060
300060
300060
600060
000060
000060
000060
ENDCHAR
STARTCHAR 2F88
ENCODING 12168
SWIDTH 930 0
DWIDTH 31 0
BBX 23 29 4 -2
BITMAP
003800
007000
004000
000000
000000
007F80
067FC0
0600C0
0600C0
0600C0
0630C0
0630C0
0600C0
0600C0
FFFFFE
FFFFFE
0600C0
0600C0
0420C0
0430C0
0400C0
0C00C0
0C00C0
0C00C0
0C03C0
0801C0
180000
180000
100000
ENDCHAR
STARTCHAR 2F89
ENCODING 12169
SWIDTH 900 0
DWIDTH 30 0
BBX 18 28 6 -3
BITMAP
8FFC00
CFFE00
C00600
C00600
C00600
C00600
C7E600
C7E600
C00600
C00600
C00600
C00600
CFFE00
CFFC00
C00000
C00000
C00000
C00000
C000C0
C06180
C07300
C03800
C01800
C00C00
F80600
E00300
000180
0000C0
ENDCHAR
STARTCHAR 2F8A
ENCODING 12170
SWIDTH 900 0
DWIDTH 30 0
BBX 21 29 4 -1
BITMAP
060000
0E0000
0C0000
180000
307F00
607E00
400E00
801C00
001800
000000
000000
67FF80
67FFC0
6060C0
6060C0
6060C0
6060C0
6000C0
67FFC0
67FF80
600000
600000
600000
600000
600010
600010
600018
7FFFF8
7FFFF8
ENDCHAR
STARTCHAR 2F8C
ENCODING 12172
SWIDTH 930 0
DWIDTH 31 0
BBX 23 30 4 -2
BITMAP
003000
003000
003000
0033F8
0033F8
003000
003000
003000
000000
3FFFF8
3FFFFC
00000C
30000C
30000C
30000C
301800
301800
201800
201820
601BF0
603F80
67F800
679800
401800
C01800
C01800
801804
801806
001FFE
001FFE
ENDCHAR
STARTCHAR 2F8D
ENCODING 12173
SWIDTH 930 0
DWIDTH 31 0
BBX 23 27 4 -1
BITMAP
003000
003000
003000
003000
003000
003000
003000
3FFFE0
3FFFF0
303030
303030
303030
303030
303030
303030
3FFFF0
1FFFE0
003000
003000
003000
003010
003018
00001C
001F8C
0FFF06
FFE000
F80000
ENDCHAR
STARTCHAR 2F8E
ENCODING 12174
SWIDTH 900 0
DWIDTH 30 0
BBX 24 27 3 0
BITMAP
006000
00E000
01C000
010000
000000
000000
1FFFF8
1FFFF8
180018
180018
180018
18C618
18C618
18C618
18C618
18C618
18C618
18C618
18C618
18C618
18C618
180018
180018
180018
000000
FFFFFF
FFFFFF
ENDCHAR
STARTCHAR 2F8F
ENCODING 12175
SWIDTH 900 0
DWIDTH 30 0
BBX 25 25 3 -1
BITMAP
0C000000
1C0FFC00
380FFC00
30000000
60000000
C0000000
00000000
00000000
067FFF80
1E7FFF80
3C000000
78000000
E0000000
00006000
18006000
18006000
18006000
18006000
18006000
18006000
18006000
18006000
18006000
1801E000
1800E000
ENDCHAR
STARTCHAR 2F90
ENCODING 12176
SWIDTH 870 0
DWIDTH 29 0
BBX 22 26 3 -1
BITMAP
003000
003000
003000
001000
000000
FFFFFC
FFFFFC
000000
000000
010000
030000
070000
060030
0C0060
1C00C0
180180
300000
630000
430200
030380
0301C0
030070
030038
03000C
03E000
03C000
ENDCHAR
STARTCHAR 2F93
ENCODING 12179
SWIDTH 900 0
DWIDTH 30 0
BBX 20 29 5 -2
BITMAP
0C0000
0C0000
180000
30FF80
307F80
600300
000200
000600
000000
000000
33FFF0
33FFF0
300030
303030
303030
303030
33FF30
33FF30
203030
203030
27FF30
67FF30
603030
603030
403030
C03030
C03030
C000F0
800070
ENDCHAR
STARTCHAR 2F94
ENCODING 12180
SWIDTH 900 0
DWIDTH 30 0
BBX 24 28 3 -1
BITMAP
001800
001800
001800
000000
FFFFFF
FFFFFF
000000
000000
000000
07FFE0
07FFE0
000000
000000
000000
07FFE0
07FFE0
000000
000000
000000
01FF80
03FFC0
0300C0
0300C0
0300C0
0300C0
0300C0
03FFC0
03FFC0
ENDCHAR
STARTCHAR 2F95
ENCODING 12181
SWIDTH 900 0
DWIDTH 30 0
BBX 19 27 6 -1
BITMAP
000400
000700
180380
3800C0
300000
604000
40C000
00C000
018000
030000
030800
060E00
0C0380
1801E0
300000
600000
C00000
01FC00
03FE00
030600
030600
030600
030600
030600
030600
03FE00
03FC00
ENDCHAR
STARTCHAR 2F96
ENCODING 12182
SWIDTH 900 0
DWIDTH 30 0
BBX 20 25 5 0
BITMAP
FFFFE0
FFFFE0
000000
000000
000000
000000
0FFE00
1FFE00
180600
180600
180600
180600
180600
1FFE00
0FFC00
000000
000000
000E00
040C00
060000
030000
000000
000000
FFFFF0
FFFFF0
ENDCHAR
STARTCHAR 2F97
ENCODING 12183
SWIDTH 900 0
DWIDTH 30 0
BBX 22 27 4 -3
BITMAP
7FFFF8
7FFFF8
000000
003000
003000
003008
7F1018
7F1838
001860
0018C0
001980
001800
030800
3F0800
F80C00
000CC0
000CE0
000C30
010C18
0F0C04
7E0C00
F00C00
000C00
000C00
000C00
007C00
003800
ENDCHAR
STARTCHAR 2F98
ENCODING 12184
SWIDTH 900 0
DWIDTH 30 0
BBX 16 28 7 -1
BITMAP
0038
01F8
07E0
1F00
2030
0030
0C30
0C10
0C00
0807
00FF
07FC
7FC0
F800
0010
0018
0118
1F18
7C0C
000C
000C
038C
1F0C
380C
0008
0018
0078
0038
ENDCHAR
STARTCHAR 2F9A
ENCODING 12186
SWIDTH 900 0
DWIDTH 30 0
BBX 23 28 3 -2
BITMAP
003000
003000
003000
003000
0FFFE0
0FFFE0
003000
003000
003000
000000
000000
7FFFFC
7FFFFC
000000
00C000
00C000
00C600
00C600
30861E
70860E
E18600
818600
018600
010600
030600
030E00
020600
060000
ENDCHAR
STARTCHAR 2F9B
ENCODING 12187
SWIDTH 930 0
DWIDTH 31 0
BBX 23 30 4 -3
BITMAP
003000
003000
003000
003000
003000
07FFC0
07FFC0
003000
003000
003000
003000
000000
FFFFFE
FFFFFE
000000
001800
001800
001800
041800
0C19F8
0C19F8
0C1800
0C1800
081800
181800
199800
11C000
307FFC
301FFC
200000
ENDCHAR
STARTCHAR 2F9C
ENCODING 12188
SWIDTH 900 0
DWIDTH 30 0
BBX 20 27 5 -1
BITMAP
0FFF00
1FFF80
180180
180180
180180
180180
180180
180180
180180
1FFF80
1FFF00
000000
000000
006000
006000
006000
006000
0067C0
3067C0
306000
606000
606000
646000
CE0000
C70000
83FFF0
00FFF0
ENDCHAR
STARTCHAR 2F9D
ENCODING 12189
SWIDTH 930 0
DWIDTH 31 0
BBX 21 30 5 -2
BITMAP
001000
003800
006000
000000
000000
07FF80
03FF80
000180
060180
067D80
067D80
060180
060180
067D88
067D98
0601B8
0601F0
0001E0
FFFFC0
FFFF80
000780
000F80
003D80
00F180
01C180
0F0180
3C0180
F00180
800780
000180
ENDCHAR
STARTCHAR 2F9E
ENCODING 12190
SWIDTH 900 0
DWIDTH 30 0
BBX 24 31 3 -3
BITMAP
001800
001800
001800
001800
001800
7FFFFE
7FFFFE
001800
001800
001800
07FFE0
07FFE0
061860
061860
06FFE0
06FFE0
061860
061860
07FFE0
07FFE0
001800
001800
001800
FFFFFF
FFFFFF
001800
001800
001800
001800
001800
001800
ENDCHAR
STARTCHAR 2F9F
ENCODING 12191
SWIDTH 930 0
DWIDTH 31 0
BBX 25 31 3 -3
BITMAP
00180000
00180000
00180000
00080000
00000000
1FFFF800
1FFFF800
00000000
00000000
0000C000
0381C000
01810000
00000000
00000000
FFFFFF80
FFFFFF80
00000000
00180000
00180000
00180000
00180000
0FFFF000
0FFFF000
00180000
00180000
00180000
00180000
00180000
00180000
00180000
00180000
ENDCHAR
STARTCHAR 2FA0
ENCODING 12192
SWIDTH 900 0
DWIDTH 30 0
BBX 22 28 4 -2
BITMAP
3FFFF8
3FFFF8
000000
000000
300000
300000
307FC0
307FC0
300000
300000
300000
300000
37FFFC
27FFFC
200000
600000
600000
60C008
60C018
40C010
C0C000
C0C1C0
80C0E0
80C078
00C01C
00C000
00F800
00E000
ENDCHAR
STARTCHAR 2FA2
ENCODING 12194
SWIDTH 900 0
DWIDTH 30 0
BBX 21 30 4 -3
BITMAP
1FFE00
1FFF00
180300
180300
180300
180300
1FFF00
1FFE00
000000
000000
000000
1FFFC0
CFFFC0
C0C0C0
C0C0C0
C0C0C0
C0C0C0
C0C0C0
C000C0
DFFFC0
DFFF80
C00000
C00000
C00000
C00000
C00020
C00030
C00030
FFFFF8
FFFFF8
ENDCHAR
STARTCHAR 2FA3
ENCODING 12195
SWIDTH 870 0
DWIDTH 29 0
BBX 23 26 3 -1
BITMAP
FFFFFE
FFFFFE
000000
004400
006600
006600
006600
006600
1FFFF0
3FFFF8
306618
306618
30C618
30C618
30C7D8
3187D8
338018
330018
300018
30FF98
30FF98
300018
300018
300018
3FFFF8
1FFFF0
ENDCHAR
STARTCHAR 2FA5
ENCODING 12197
SWIDTH 900 0
DWIDTH 30 0
BBX 24 27 3 -1
BITMAP
03FFE0
07FFF0
060030
061830
061830
061830
067E30
067E30
061830
061830
061830
07FFF0
07FFE0
001800
001800
001800
001800
0FFFF0
0FFFF0
001800
001800
001800
001800
001800
000000
FFFFFF
FFFFFF
ENDCHAR
STARTCHAR 2FA6
ENCODING 12198
SWIDTH 870 0
DWIDTH 29 0
BBX 23 28 3 0
BITMAP
001800
003000
007000
00E000
01C000
038000
0701C0
0E00FC
38001E
700000
01FF00
01FF00
000000
000000
001800
001800
001800
0FFFF0
0FFFF0
001800
001800
021870
0719F0
031800
001800
000000
FFFFFE
FFFFFE
ENDCHAR
STARTCHAR 2FA9
ENCODING 12201
SWIDTH 930 0
DWIDTH 31 0
BBX 23 31 4 -2
BITMAP
00E000
00C000
008000
000000
1BFFE0
1BFFE0
180060
180060
180060
1BFFE0
1BFFE0
180000
180000
19FFF0
19FFF0
180030
180030
180030
19FFF0
19FFE0
000000
003000
003000
FFFFFE
FFFFFE
003000
003000
003000
003000
003000
003000
ENDCHAR
STARTCHAR 2FAA
ENCODING 12202
SWIDTH 930 0
DWIDTH 31 0
BBX 25 30 3 -2
BITMAP
000C0000
000C0000
000C0000
000C0000
000C0000
07FFE000
07FFF000
000C3000
000C3000
FFFFFF80
FFFFFF80
000C3000
000C3000
000C3000
07FFF000
07FFE000
000C0000
000C0000
040C2000
070C6000
030CC000
000C0000
000C0000
000C7000
1E0C3C00
380C0C00
000C0000
000C0000
007C0000
001C0000
ENDCHAR
STARTCHAR 2FAB
ENCODING 12203
SWIDTH 930 0
DWIDTH 31 0
BBX 23 28 4 -2
BITMAP
000300
000300
070300
0E0100
3C0000
780000
E00000
00FFFE
00FFFE
180000
180300
180300
180300
183FF8
183FF8
180300
180300
180300
183FF8
183FF8
180300
180300
180300
180000
18FFFE
18FFFE
180000
180000
ENDCHAR
STARTCHAR 2FAC
ENCODING 12204
SWIDTH 900 0
DWIDTH 30 0
BBX 20 25 5 -2
BITMAP
7FFFF0
7FFFF0
000000
006000
006000
006000
006000
CFFFF0
CFFFF0
C06030
C06030
C06030
CC6C30
CE6630
C06030
C06030
C06030
C06030
CC6630
CE6330
C06030
C06030
C06030
C060F0
002070
ENDCHAR
STARTCHAR 2FAE
ENCODING 12206
SWIDTH 930 0
DWIDTH 31 0
BBX 25 28 3 -1
BITMAP
00630000
00630000
00630000
00630000
00630000
00630000
7E633F00
7E633F00
00630000
00630000
00630000
00630000
00630000
1E633C00
1E633C00
00630000
00630000
00630000
00630000
00630000
FE633F80
FE633F80
00630000
00630000
00630000
00630000
00630000
00630000
ENDCHAR
STARTCHAR 2FAF
ENCODING 12207
SWIDTH 900 0
DWIDTH 30 0
BBX 22 26 4 -2
BITMAP
FFFFFC
FFFFFC
000000
003000
006000
00C000
000000
3FFFF0
7FFFF8
600018
600018
630318
630318
637B18
637B18
630318
630318
637B18
637B18
630318
630318
630318
600018
600018
7FFFF8
3FFFF0
ENDCHAR
STARTCHAR 2FB0
ENCODING 12208
SWIDTH 900 0
DWIDTH 30 0
BBX 22 28 4 -1
BITMAP
018600
018600
018600
7FFFF8
7FFFF8
018600
018600
01FE00
00FC00
003000
003000
003000
0FFF80
0FFFC0
0C30C0
0C30C0
0C30C0
0FFFC0
07FF80
003000
003000
FFFFFC
FFFFFC
003000
003000
003000
003000
003000
ENDCHAR
STARTCHAR 2FB2
ENCODING 12210
SWIDTH 900 0
DWIDTH 30 0
BBX 24 28 3 -1
BITMAP
006300
006300
006300
006300
006300
7E637E
7E637E
006300
006300
006300
006300
006300
1E6378
1E6378
006300
006300
006300
006300
006300
FE637F
FE637F
006300
006300
006300
006300
000000
7FFFFF
7FFFFF
ENDCHAR
STARTCHAR 2FB3
ENCODING 12211
SWIDTH 900 0
DWIDTH 30 0
BBX 22 29 4 -2
BITMAP
003000
003000
002000
000000
1FFFC0
1FFFC0
000000
000000
000300
030600
018400
000000
000000
FFFFFC
FFFFFC
000000
000000
01FE00
03FF00
030300
030300
030300
037B00
037B00
030300
030300
030300
03FF00
03FF00
ENDCHAR
STARTCHAR 2FB5
ENCODING 12213
SWIDTH 900 0
DWIDTH 30 0
BBX 26 29 2 -3
BITMAP
1FFFFC00
1FFFFC00
00000C00
00000C00
18078C00
183F0C00
18F80C00
18000C00
18180C00
18180C00
18180C00
187F0C00
18FF8C00
18D98C00
18D98C00
10D98C00
10D98C00
30FF8C00
307F0C00
30180C00
30180C00
3018C600
2000C600
603E6600
61FC6600
61C02340
400003C0
C00003C0
C0000180
ENDCHAR
STARTCHAR 2FB6
ENCODING 12214
SWIDTH 900 0
DWIDTH 30 0
BBX 26 29 2 -2
BITMAP
3FFF0000
3FFF8600
00018E00
00018C00
00018000
00618000
1E619E00
7E618700
60618000
00608000
0C60C080
0C6060C0
0C603FC0
0C600F80
FFFE0000
FFFF0000
18630600
18630E00
18630800
18630000
10631800
30611F00
30618300
60618000
4060C000
C060E040
80607840
00603FC0
00600FC0
ENDCHAR
STARTCHAR 2FB7
ENCODING 12215
SWIDTH 900 0
DWIDTH 30 0
BBX 22 30 4 -3
BITMAP
007000
00E000
01C000
038000
0F0180
1C31E0
783078
E0300C
000000
000000
06FF80
06FF80
060180
060180
06FD80
06FD80
060180
060180
06FF80
06FF00
060000
060060
060060
060040
060E00
060780
0601E0
060030
07C000
070000
ENDCHAR
STARTCHAR 2FB8
ENCODING 12216
SWIDTH 870 0
DWIDTH 29 0
BBX 23 30 3 -2
BITMAP
000080
030180
038300
008200
000000
FFFFFE
FFFFFE
000000
003000
006000
004000
000000
03FFC0
07FFC0
0600C0
0600C0
0600C0
067EC0
067EC0
0600C0
0600C0
0600C0
067EC0
067EC0
0600C0
0600C0
0600C0
0600C0
07FFC0
03FFC0
ENDCHAR
STARTCHAR 2FB9
ENCODING 12217
SWIDTH 870 0
DWIDTH 29 0
BBX 23 29 3 -1
BITMAP
000F00
01FF00
07E000
000000
001800
001800
001800
FFFFFE
FFFFFE
001800
001800
0618C0
1E18F8
38183C
601800
000000
000000
01FF00
03FF80
030180
030180
030180
037980
037980
030180
030180
030180
03FF80
01FF00
ENDCHAR
STARTCHAR 2FBB
ENCODING 12219
SWIDTH 900 0
DWIDTH 30 0
BBX 21 29 4 -2
BITMAP
07FF00
0FFF80
0C0180
0C0180
0DF180
0DF180
0C3180
0C3180
080080
C00000
DFFFF8
CFFFF8
C00018
C00018
C6FF18
06FF80
060180
060180
06FD80
06FD80
060180
060180
06FD80
06FD80
060180
060180
060180
060780
060300
ENDCHAR
STARTCHAR 2FBC
ENCODING 12220
SWIDTH 900 0
DWIDTH 30 0
BBX 21 30 4 -4
BITMAP
006000
006000
006000
000000
FFFFF8
FFFFF8
000000
000000
03FC00
03FE00
030600
030600
030600
03FE00
01FC00
000000
8FFFF0
DFFFF8
C00018
C00018
C1F818
C3FC18
C30C18
C30C18
C30C18
C3FC18
C1F818
C00018
C000F8
C00038
ENDCHAR
STARTCHAR 2FBD
ENCODING 12221
SWIDTH 900 0
DWIDTH 30 0
BBX 26 24 2 0
BITMAP
1FFC0600
1FFC0E00
18001C00
18003800
18007000
1BF8C000
1BF80000
18000000
18000000
1BF80000
1BF803C0
18001FC0
18007E00
18000000
00000000
FFFE0000
FFFE0000
08000000
0C000000
180C0180
18060F80
1FC27F00
3F80F000
1C000000
ENDCHAR
STARTCHAR 2FBE
ENCODING 12222
SWIDTH 930 0
DWIDTH 31 0
BBX 23 29 4 -3
BITMAP
DFE7F6
DFE7F6
C00006
C30186
C30186
CFE7F6
CFE7F6
C30186
C30186
C30186
C00FF6
DFEFF6
DFE006
C00006
C00006
C00006
C00006
C00006
C00006
C00006
C00006
C00006
C00006
C00006
C00006
C00006
C0003E
C0001E
C00006
ENDCHAR
STARTCHAR 2FBF
ENCODING 12223
SWIDTH 900 0
DWIDTH 30 0
BBX 20 29 5 -1
BITMAP
00C200
006600
000C00
C30C30
C19830
D8F330
CC63B0
C0F030
C19C30
C30C30
C60230
C06030
C03030
C00030
FFFFF0
7FFFE0
000000
000000
180100
180F00
183C00
187000
18C000
180000
180000
180060
180060
1FFFF0
0FFFF0
ENDCHAR
STARTCHAR 2FC0
ENCODING 12224
SWIDTH 870 0
DWIDTH 29 0
BBX 23 29 3 -4
BITMAP
FFFFFE
FFFFFE
000000
000000
03FF80
03FF80
030180
030180
030180
03FF80
01FF00
000000
6FFFFC
67FFFE
600006
600106
600306
60C606
606406
600006
67FFC6
67FFC6
601806
601806
601806
601806
601806
60183E
60000E
ENDCHAR
STARTCHAR 2FC1
ENCODING 12225
SWIDTH 900 0
DWIDTH 30 0
BBX 20 29 5 0
BITMAP
030000
030000
060000
000000
000000
000000
FFFE00
FFFE00
C00600
C30600
C30600
CFE600
CFE600
C30600
C30600
FFFE00
FFFE00
060000
060000
040400
0CC400
0CCC80
18CCC0
18C840
30CE20
30C020
60C020
C0FFF0
80FFF0
ENDCHAR
STARTCHAR 2FC5
ENCODING 12229
SWIDTH 900 0
DWIDTH 30 0
BBX 24 30 3 -2
BITMAP
000C00
000C00
000C00
000000
3FFFFF
3FFFFF
000000
3030C0
3030C0
3030C0
33FFFE
31FFFE
3030C6
3030C6
3030C6
31FFFE
33FFFE
300000
3000C0
3180C0
2180C6
21BCDE
61BCC0
6180C0
6180C0
4180C2
C180C3
C1F8FF
01F07F
008000
ENDCHAR
STARTCHAR 2FC6
ENCODING 12230
SWIDTH 900 0
DWIDTH 30 0
BBX 23 31 4 -4
BITMAP
003000
003000
003000
3FFFF0
3FFFF0
003000
083040
1830C0
1B31C0
33B398
603318
60360C
C1B000
0330C0
0E30F8
1C001E
718000
E38000
037F00
067F80
0E0180
0C0300
000700
00F600
007E00
001F80
0031F0
006000
01C000
038000
060000
ENDCHAR
STARTCHAR 2FC7
ENCODING 12231
SWIDTH 900 0
DWIDTH 30 0
BBX 26 30 2 -2
BITMAP
00030000
00030000
00030000
00020000
00000000
1FFFFF80
1FFFFF80
00000000
18000000
18000000
18300C00
18300C00
18300C00
18300C00
18300C00
1BFEFF80
1BFEFF80
18300C00
10300C00
30300C00
30370C00
3133CD80
3330CCC0
63308C00
60300C00
60300C00
C0300C00
C0300C00
00300C00
00300C00
ENDCHAR
STARTCHAR 2FC9
ENCODING 12233
SWIDTH 900 0
DWIDTH 30 0
BBX 22 30 4 -3
BITMAP
007FE0
1FFFC0
000000
000000
003000
003000
FFFFFC
FFFFFC
003000
003000
043180
0C31E0
1C3070
381810
203800
007000
01E000
0383E0
0F01FC
3C101C
F03000
8430C0
0E31C0
023000
003000
0631C0
1E30E0
383070
00F000
007000
ENDCHAR
STARTCHAR 2FCA
ENCODING 12234
SWIDTH 930 0
DWIDTH 31 0
BBX 23 27 4 -3
BITMAP
1FFFF0
1FFFF0
180030
183030
1B31B0
1BB330
18B230
183030
1FFFF0
1FFFF0
003000
003000
003000
1FFFF0
1FFFF0
003000
003000
003000
000000
FFFFFE
FFFFFE
000000
000000
318618
71861C
60C30E
C00000
ENDCHAR
STARTCHAR 2FCB
ENCODING 12235
SWIDTH 900 0
DWIDTH 30 0
BBX 23 31 3 -4
BITMAP
018600
018600
018600
018600
E1860C
71861C
018610
018600
000000
000000
FFFFFE
FFFFFE
003000
003000
183060
1C3060
043000
003000
27FFF0
37FFF8
303018
303018
303018
333118
333198
3630D8
343018
303018
303018
303078
303038
ENDCHAR
STARTCHAR 2FCD
ENCODING 12237
SWIDTH 900 0
DWIDTH 30 0
BBX 24 29 3 -3
BITMAP
01FF80
03FFC0
0300C0
0300C0
333CC6
333CC6
3300C6
333CC6
333CC6
3300C6
33FFC6
31FF86
300006
300006
3FC1FE
1FC1FC
00C180
00C180
00C180
FEC180
FEC1BE
00C1BF
00C183
30C183
30C183
60C183
60C183
40C183
40C180
ENDCHAR
STARTCHAR 2FCE
ENCODING 12238
SWIDTH 900 0
DWIDTH 30 0
BBX 26 28 2 -2
BITMAP
03000000
03000000
03003000
FFFC3000
FFF83000
03003000
03003000
0007FF80
7FF7FF80
7FF03000
00003000
00003000
1FE03000
1FF00000
1833FE00
1833FF00
18300300
1FF00600
0FE00600
0000CE00
0000EC00
18603C00
1CC07F00
0000E380
0011C0C0
07F38000
7F870000
780C0000
ENDCHAR
STARTCHAR 2FCF
ENCODING 12239
SWIDTH 900 0
DWIDTH 30 0
BBX 21 31 4 -2
BITMAP
030000
0E0000
081FC0
C01FE0
C00060
C00060
CF1F60
CF1F60
C00060
C00060
C00060
FFFFE0
FFFFC0
000000
000000
40C0C0
C0C0C0
CCCCC0
CECCC0
C6C4C0
C0C0C0
C0C8C0
C4CCC0
C6CCC0
C0C0C0
C0C060
C0C060
FCF860
70F038
000038
000018
ENDCHAR
STARTCHAR 2FD0
ENCODING 12240
SWIDTH 930 0
DWIDTH 31 0
BBX 23 31 4 -3
BITMAP
002000
007000
004000
03FF80
07FFC0
0600C0
0678C0
0678C0
063CC0
063CC0
0600C0
07FFC0
03FF80
000000
0FFFE0
1FFFF0
183030
19FE30
19FE30
183030
183030
1FFFF0
0FFFE0
000000
FFFFFE
FFFFFE
000000
000180
060180
0E0180
0C0180
ENDCHAR
STARTCHAR 2FD3
ENCODING 12243
SWIDTH 900 0
DWIDTH 30 0
BBX 26 30 2 -2
BITMAP
06060000
06060000
06067F80
00067F80
7FE60000
7FE60000
00060000
0087FF00
3183FF00
1B800300
0B000300
00000300
FFF3FF00
FFF7FF00
00060000
00060000
6FE67E00
67E67E00
60660000
60660000
6E667E00
6E667E00
60660000
67667F00
67667F00
60660000
60660180
60660180
61E7FFC0
6063FFC0
ENDCHAR
STARTCHAR 2FD5
ENCODING 12245
SWIDTH 900 0
DWIDTH 30 0
BBX 23 31 3 -2
BITMAP
000C00
001800
003000
006000
01C0E0
0380FE
0E001E
387F00
E03F00
000000
3F003E
3F3E7E
337F66
336366
3F637E
3F7F3E
003E00
000000
09FFF8
0DFFFC
0C000C
0C1B0C
0C1B0C
0C1B0C
0CFFEC
0CFFEC
0C1B0C
0C1B0C
0C1B0C
0C001C
0C000C
ENDCHAR
STARTCHAR 3000
ENCODING 12288
SWIDTH 990 0
DWIDTH 33 0
BBX 0 0 0 0
BITMAP
ENDCHAR
STARTCHAR 3001
ENCODING 12289
SWIDTH 930 0
DWIDTH 31 0
BBX 3 4 1 -3
BITMAP
C0
C0
60
20
ENDCHAR
STARTCHAR 3002
ENCODING 12290
SWIDTH 900 0
DWIDTH 30 0
BBX 5 5 1 -5
BITMAP
70
88
88
88
70
ENDCHAR
STARTCHAR 3005
ENCODING 12293
SWIDTH 900 0
DWIDTH 30 0
BBX 20 28 5 -2
BITMAP
010000
038000
030000
060000
0E0000
0C0000
1C7FF0
187FF0
300030
700030
600030
C00060
800060
000060
0000C0
0000C0
000180
000300
000700
000600
000C00
061800
038000
01E000
00F000
003C00
000E00
000300
ENDCHAR
STARTCHAR 3007
ENCODING 12295
SWIDTH 900 0
DWIDTH 30 0
BBX 27 28 1 -2
BITMAP
003F8000
01FFF000
03807800
0E000C00
0C000600
18000300
30000180
30000180
600000C0
600000C0
C0000060
C0000060
C0000060
C0000060
C0000060
C0000060
C0000060
C0000060
600000C0
600000C0
30000180
30000180
18000300
0C000600
0E000C00
03803800
01FFF000
003F8000
ENDCHAR
STARTCHAR 3008
ENCODING 12296
SWIDTH 900 0
DWIDTH 30 0
BBX 7 30 22 -2
BITMAP
06
06
04
0C
0C
18
18
10
30
30
60
60
60
C0
C0
C0
C0
40
60
60
30
30
10
18
18
0C
0C
04
06
06
ENDCHAR
STARTCHAR 3009
ENCODING 12297
SWIDTH 900 0
DWIDTH 30 0
BBX 7 30 1 -2
BITMAP
C0
C0
40
60
60
30
30
10
18
18
0C
0C
04
06
06
06
06
0C
0C
0C
18
18
30
30
30
60
60
C0
C0
C0
ENDCHAR
STARTCHAR 300A
ENCODING 12298
SWIDTH 900 0
DWIDTH 30 0
BBX 14 30 15 -2
BITMAP
030C
020C
0608
0618
0C18
0C30
0830
1820
1860
3060
30C0
20C0
6080
6180
C180
C180
6180
6080
20C0
30C0
3060
1860
1820
0830
0C30
0C18
0618
0608
020C
030C
ENDCHAR
STARTCHAR 300B
ENCODING 12299
SWIDTH 900 0
DWIDTH 30 0
BBX 14 30 1 -2
BITMAP
C300
C100
4180
6180
60C0
30C0
3040
1060
1860
1830
0C30
0C10
0418
0618
060C
060C
0618
0418
0C30
0C30
1830
1860
1060
30C0
30C0
60C0
6180
4180
C300
C300
ENDCHAR
STARTCHAR 300C
ENCODING 12300
SWIDTH 900 0
DWIDTH 30 0
BBX 7 26 22 2
BITMAP
FC
FE
C0
C0
C0
C0
C0
C0
C0
C0
C0
C0
C0
C0
C0
C0
C0
C0
C0
C0
C0
C0
C0
C0
C0
C0
ENDCHAR
STARTCHAR 300D
ENCODING 12301
SWIDTH 900 0
DWIDTH 30 0
BBX 7 26 1 -3
BITMAP
04
06
06
06
06
06
06
06
06
06
06
06
06
06
06
06
06
06
06
06
06
06
06
06
FE
FE
ENDCHAR
STARTCHAR 300E
ENCODING 12302
SWIDTH 900 0
DWIDTH 30 0
BBX 9 27 20 1
BITMAP
FF80
FF80
C180
C180
DF80
DF00
D800
D800
D800
D800
D800
D800
D800
D800
D800
D800
D800
D800
D800
D800
D800
D800
D800
D800
D800
F800
F800
ENDCHAR
STARTCHAR 300F
ENCODING 12303
SWIDTH 900 0
DWIDTH 30 0
BBX 9 26 1 -2
BITMAP
0F80
0F80
0D80
0D80
0D80
0D80
0D80
0D80
0D80
0D80
0D80
0D80
0D80
0D80
0D80
0D80
0D80
0D80
0D80
0D80
0D80
FD80
F980
C180
FF80
FF80
ENDCHAR
STARTCHAR 3010
ENCODING 12304
SWIDTH 870 0
DWIDTH 29 0
BBX 4 31 24 -3
BITMAP
F0
F0
E0
E0
E0
C0
C0
C0
C0
C0
C0
C0
C0
C0
C0
C0
C0
C0
C0
C0
C0
C0
C0
C0
C0
E0
E0
E0
E0
F0
F0
ENDCHAR
STARTCHAR 3011
ENCODING 12305
SWIDTH 900 0
DWIDTH 30 0
BBX 5 31 1 -3
BITMAP
78
78
78
38
38
38
38
18
18
18
18
18
18
18
18
18
18
18
18
18
18
18
18
18
38
38
38
38
78
78
F8
ENDCHAR
STARTCHAR 3016
ENCODING 12310
SWIDTH 870 0
DWIDTH 29 0
BBX 8 31 20 -3
BITMAP
FF
FF
C6
C6
C6
CC
CC
CC
CC
C8
D8
D8
D8
D8
D8
D8
D8
D8
D8
D8
D8
C8
CC
CC
CC
CC
C6
C6
C6
FF
FF
ENDCHAR
STARTCHAR 3017
ENCODING 12311
SWIDTH 870 0
DWIDTH 29 0
BBX 8 31 1 -3
BITMAP
FF
FF
63
63
63
33
33
33
33
13
13
1B
1B
1B
1B
1B
1B
1B
1B
1B
1B
13
33
33
33
33
63
63
63
FF
FF
ENDCHAR
STARTCHAR 306E
ENCODING 12398
SWIDTH 900 0
DWIDTH 30 0
BBX 24 26 3 1
BITMAP
003F00
01FFC0
0780F0
0E0038
1C001C
38000C
300006
600802
600C03
600C03
400403
C00601
C00601
C00601
C00603
C00603
400603
400403
600C06
600C06
300C0C
38181C
1C3038
0FE070
0380E0
000080
ENDCHAR
STARTCHAR 30FB
ENCODING 12539
SWIDTH 900 0
DWIDTH 30 0
BBX 2 3 14 12
BITMAP
C0
C0
C0
ENDCHAR
STARTCHAR 4E00
ENCODING 19968
SWIDTH 900 0
DWIDTH 30 0
BBX 22 2 4 12
BITMAP
FFFFFC
FFFFFC
ENDCHAR
STARTCHAR 4E01
ENCODING 19969
SWIDTH 900 0
DWIDTH 30 0
BBX 22 25 4 -2
BITMAP
FFFFFC
FFFFFC
000000
000000
000000
003000
003000
003000
003000
003000
003000
003000
003000
003000
003000
003000
003000
003000
003000
003000
003000
003000
003000
00F000
007000
ENDCHAR
STARTCHAR 4E03
ENCODING 19971
SWIDTH 900 0
DWIDTH 30 0
BBX 24 26 3 0
BITMAP
006000
006000
006000
006000
006000
006000
006000
006000
006000
0060FE
007FFC
7FFC00
FE6000
006000
006000
006000
006000
006000
006000
006000
006000
006000
006004
006006
007FFE
007FFF
ENDCHAR
STARTCHAR 4E07
ENCODING 19975
SWIDTH 900 0
DWIDTH 30 0
BBX 21 25 5 -2
BITMAP
FFFFF8
FFFFF8
000000
000000
000000
020000
060000
060000
060000
063F80
043FC0
0C00C0
0C00C0
0C00C0
0800C0
1800C0
1800C0
1000C0
3000C0
3000C0
6003C0
600180
400000
C00000
800000
ENDCHAR
STARTCHAR 4E08
ENCODING 19976
SWIDTH 930 0
DWIDTH 31 0
BBX 21 28 5 -2
BITMAP
000200
000600
000600
000600
000600
000400
000C00
FFFFF8
FFFFF8
000C00
001800
001800
001800
081800
1E3000
07B000
03E000
00F000
00FC00
00CF00
0183C0
030060
070000
060000
0C0000
180000
700000
600000
ENDCHAR
STARTCHAR 4E09
ENCODING 19977
SWIDTH 870 0
DWIDTH 29 0
BBX 23 23 3 0
BITMAP
3FFFF8
3FFFF8
000000
000000
000000
000000
000000
000000
000000
000000
03FFC0
03FFC0
000000
000000
000000
000000
000000
000000
000000
000000
000000
FFFFFE
FFFFFE
ENDCHAR
STARTCHAR 4E0A
ENCODING 19978
SWIDTH 930 0
DWIDTH 31 0
BBX 23 26 4 0
BITMAP
006000
006000
006000
006000
006000
006000
006000
006000
006000
006000
0067F0
0067F0
006000
006000
006000
006000
006000
006000
006000
006000
006000
006000
006000
000000
FFFFFE
FFFFFE
ENDCHAR
STARTCHAR 4E0B
ENCODING 19979
SWIDTH 900 0
DWIDTH 30 0
BBX 22 25 4 -2
BITMAP
FFFFFC
FFFFFC
000000
000000
006000
006000
006000
006000
006000
006180
0061C0
0060E0
006070
006010
006000
006000
006000
006000
006000
006000
006000
006000
006000
006000
006000
ENDCHAR
STARTCHAR 4E0C
ENCODING 19980
SWIDTH 900 0
DWIDTH 30 0
BBX 22 27 4 -3
BITMAP
FFFFFC
FFFFFC
000000
000000
000000
000000
060000
060180
060180
060180
060180
060180
060180
040180
040180
0C0180
0C0180
0C0180
0C0180
080180
180180
180180
180180
300180
300180
300000
200000
ENDCHAR
STARTCHAR 4E0D
ENCODING 19981
SWIDTH 870 0
DWIDTH 29 0
BBX 21 25 4 -1
BITMAP
FFFFF8
FFFFF8
000000
000000
000000
000000
003000
003000
003180
0031C0
0C30E0
1C3038
383008
E03000
803000
003000
003000
003000
003000
003000
003000
003000
003000
003000
003000
ENDCHAR
STARTCHAR 4E0E
ENCODING 19982
SWIDTH 900 0
DWIDTH 30 0
BBX 22 30 4 -3
BITMAP
080000
0C0000
0C0000
0C0000
0C7FFC
0C7FFC
0C0000
0C0000
0C0000
0C0000
0C0000
0C0000
0FFFE0
07FFF0
000030
000030
000030
000030
000030
000030
FFFE30
FFFE30
000030
000030
000030
000030
000030
000030
0000F0
000060
ENDCHAR
STARTCHAR 4E10
ENCODING 19984
SWIDTH 900 0
DWIDTH 30 0
BBX 22 28 4 -3
BITMAP
FFFFFC
FFFFFC
000000
000000
001800
001800
181800
181800
1819F8
1819F8
181800
181800
181800
181800
180000
1FFFF0
0FFFF8
000018
000018
000018
000018
000018
000018
000018
000018
000018
000078
000038
ENDCHAR
STARTCHAR 4E11
ENCODING 19985
SWIDTH 900 0
DWIDTH 30 0
BBX 22 25 4 -1
BITMAP
1FFFC0
1FFFC0
0000C0
0000C0
0000C0
00C0C0
00C0C0
00C0C0
00C0C0
0080C0
1FFEC0
1FFEC0
0180C0
0180C0
0180C0
0180C0
0180C0
0100C0
0300C0
0100C0
0000C0
000000
000000
FFFFFC
FFFFFC
ENDCHAR
STARTCHAR 4E13
ENCODING 19987
SWIDTH 870 0
DWIDTH 29 0
BBX 23 30 3 -1
BITMAP
003000
003000
003000
002000
1FFFF8
1FFFF8
006000
004000
004000
00C000
FFFFFE
FFFFFE
008000
018000
018000
018000
010000
01FFC0
01FFC0
0000C0
0001C0
000180
000380
000300
000600
000600
00C400
00F000
007C00
000E00
ENDCHAR
STARTCHAR 4E14
ENCODING 19988
SWIDTH 930 0
DWIDTH 31 0
BBX 23 27 4 -1
BITMAP
07FF80
0FFFC0
0C00C0
0C00C0
0C00C0
0C00C0
0C00C0
0C00C0
0CFCC0
0CFCC0
0C00C0
0C00C0
0C00C0
0C00C0
0C00C0
0CFCC0
0CFCC0
0C00C0
0C00C0
0C00C0
0C00C0
0C00C0
0C00C0
040080
000000
FFFFFE
FFFFFE
ENDCHAR
STARTCHAR 4E15
ENCODING 19989
SWIDTH 900 0
DWIDTH 30 0
BBX 24 27 3 -1
BITMAP
7FFFFE
7FFFFE
000000
000000
000000
000000
001800
001800
001800
001860
061870
0E1838
3C181C
70180C
C01804
001800
001800
001800
001800
001800
001800
001800
001800
000000
000000
FFFFFF
FFFFFF
ENDCHAR
STARTCHAR 4E16
ENCODING 19990
SWIDTH 930 0
DWIDTH 31 0
BBX 23 27 4 0
BITMAP
003060
003060
183060
183060
183060
183060
183060
183060
FFFFFE
FFFFFE
183060
183060
183060
183060
183060
183060
183060
183060
183FE0
181FC0
180000
180000
180000
180000
180000
1FFFF8
0FFFF8
ENDCHAR
STARTCHAR 4E18
ENCODING 19992
SWIDTH 900 0
DWIDTH 30 0
BBX 24 27 3 0
BITMAP
0007C0
00FFC0
01F800
000000
0C0000
0C0000
0C0000
0C0000
0C0000
0C0000
0CFFF8
0CFFF8
0C0000
0C0000
0C0180
0C0180
0C0180
0C0180
0C0180
0C0180
0C0180
0C0180
0C0180
000000
000000
FFFFFF
FFFFFF
ENDCHAR
STARTCHAR 4E19
ENCODING 19993
SWIDTH 900 0
DWIDTH 30 0
BBX 22 29 4 -4
BITMAP
FFFFFC
FFFFFC
000000
001000
001000
003000
003000
003000
003000
6FFFF0
6FFFF8
606018
606018
604018
60C018
60CC18
618F98
618198
610018
630018
620018
660018
600018
600018
600018
600018
600018
600078
600038
ENDCHAR
STARTCHAR 4E1A
ENCODING 19994
SWIDTH 900 0
DWIDTH 30 0
BBX 22 25 4 0
BITMAP
018600
018600
018600
018600
018600
018600
018600
018600
018600
018618
618630
718620
198600
018600
018600
018600
018600
018600
018600
018600
018600
000000
000000
FFFFFC
FFFFFC
ENDCHAR
STARTCHAR 4E1B
ENCODING 19995
SWIDTH 870 0
DWIDTH 29 0
BBX 23 28 3 0
BITMAP
0300C0
0300C0
0300C0
0300C0
0300C0
0300C0
0300C0
070080
070080
060180
060180
060180
060180
0EF180
0C7B00
0C0300
0C0360
180270
180630
180618
100408
300C04
200800
201800
000000
000000
FFFFFE
FFFFFE
ENDCHAR
STARTCHAR 4E1C
ENCODING 19996
SWIDTH 900 0
DWIDTH 30 0
BBX 22 29 4 -3
BITMAP
004000
00C000
00C000
018000
018000
7FFFF8
7FFFF8
030000
030000
061800
061800
061800
0C1800
0C1800
081800
1FFFF0
1FFFF0
001800
001800
001800
001860
081870
381838
70181C
C01804
001800
001800
007800
003800
ENDCHAR
STARTCHAR 4E1D
ENCODING 19997
SWIDTH 900 0
DWIDTH 30 0
BBX 24 26 3 1
BITMAP
0600C0
0C0180
0C0180
080300
180300
100600
300608
20CC18
60CF98
7D8F30
738030
030060
0700E0
0600C0
0C01C0
0C0180
180300
18030C
3FC7F8
3E07C0
000000
000000
000000
000000
FFFFFF
FFFFFF
ENDCHAR
STARTCHAR 4E1E
ENCODING 19998
SWIDTH 900 0
DWIDTH 30 0
BBX 24 28 3 -1
BITMAP
0FFFE0
0FFFE0
0000E0
0001C0
000380
000700
000E00
001800
00181C
3E1838
7F1870
031800
031800
061800
061800
0C1870
0C187C
18181E
301800
601800
001800
007800
003800
000000
000000
000000
FFFFFF
FFFFFF
ENDCHAR
STARTCHAR 4E22
ENCODING 20002
SWIDTH 900 0
DWIDTH 30 0
BBX 24 28 3 -1
BITMAP
0000E0
003FF0
0FFFE0
3FF800
000000
001800
001800
001800
041800
0FFFC0
001FC0
001800
001800
001800
001800
FFFFFF
FFFFFF
800000
000000
008000
018000
018000
0380C0
0300E0
070070
060030
0FFE18
07F800
ENDCHAR
STARTCHAR 4E24
ENCODING 20004
SWIDTH 930 0
DWIDTH 31 0
BBX 23 27 4 -3
BITMAP
FFFFFE
FFFFFE
000000
018300
018300
018300
018300
4FFFF0
6FFFF8
610618
610618
630618
630618
636418
633C18
620D18
660DD8
6608D8
641818
6C1818
681018
681018
600018
600018
600018
600078
600038
ENDCHAR
STARTCHAR 4E25
ENCODING 20005
SWIDTH 900 0
DWIDTH 30 0
BBX 24 28 3 -3
BITMAP
3FFFFF
3FFFFF
000000
003180
003180
08319C
0C3198
043180
003180
003180
000000
1BFFFE
1BFFFE
180000
180000
180000
180000
180000
100000
300000
300000
300000
300000
200000
600000
600000
400000
C00000
ENDCHAR
STARTCHAR 4E27
ENCODING 20007
SWIDTH 900 0
DWIDTH 30 0
BBX 24 30 3 -3
BITMAP
000C00
000C00
000C00
000C00
1FFFFC
1FFFFC
000C00
000C00
000C00
040C30
060C70
030CE0
000C00
000C00
000000
FFFFFF
FFFFFF
000000
000000
060030
060070
060060
060000
060000
060080
0600F0
06003C
06000E
07C000
078000
ENDCHAR
STARTCHAR 4E28
ENCODING 20008
SWIDTH 900 0
DWIDTH 30 0
BBX 2 23 14 0
BITMAP
C0
C0
C0
C0
C0
C0
C0
C0
C0
C0
C0
C0
C0
C0
C0
C0
C0
C0
C0
C0
C0
C0
C0
ENDCHAR
STARTCHAR 4E2A
ENCODING 20010
SWIDTH 870 0
DWIDTH 29 0
BBX 21 28 4 -2
BITMAP
003000
003000
006000
00C000
01C000
038000
070780
0E01F0
1C0078
380000
700000
E00000
803000
003000
003000
003000
003000
003000
003000
003000
003000
003000
003000
003000
003000
003000
003000
003000
ENDCHAR
STARTCHAR 4E2B
ENCODING 20011
SWIDTH 870 0
DWIDTH 29 0
BBX 19 28 5 -2
BITMAP
000060
0000E0
0000C0
E00180
700300
3C0600
0E0400
000800
000000
000000
000000
006000
006000
006000
006000
006000
006000
006000
006000
006000
006000
006000
006000
006000
006000
006000
006000
006000
ENDCHAR
STARTCHAR 4E2C
ENCODING 20012
SWIDTH 900 0
DWIDTH 30 0
BBX 10 30 10 -3
BITMAP
00C0
00C0
00C0
00C0
00C0
00C0
00C0
00C0
60C0
78C0
1CC0
00C0
00C0
00C0
00C0
00C0
00C0
00C0
00C0
38C0
F8C0
E0C0
00C0
00C0
00C0
00C0
00C0
00C0
00C0
00C0
ENDCHAR
STARTCHAR 4E2D
ENCODING 20013
SWIDTH 900 0
DWIDTH 30 0
BBX 20 29 5 -2
BITMAP
006000
006000
006000
006000
006000
006000
006000
7FFFE0
FFFFF0
C06030
C06030
C06030
C06030
C06030
C06030
C06030
FFFFF0
7FFFE0
006000
006000
006000
006000
006000
006000
006000
006000
006000
006000
006000
ENDCHAR
STARTCHAR 4E30
ENCODING 20016
SWIDTH 900 0
DWIDTH 30 0
BBX 22 29 4 -3
BITMAP
003000
003000
003000
003000
003000
3FFFF8
3FFFF8
003000
003000
003000
003000
003000
07FF80
07FF80
003000
003000
003000
003000
003000
FFFFFC
FFFFFC
003000
003000
003000
003000
003000
003000
003000
003000
ENDCHAR
STARTCHAR 4E32
ENCODING 20018
SWIDTH 870 0
DWIDTH 29 0
BBX 21 31 4 -4
BITMAP
003000
003000
003000
003000
1FFF80
1FFFC0
1830C0
1830C0
1830C0
1830C0
1FFFC0
1FFF80
003000
003000
003000
7FFFF0
FFFFF8
C03018
C03018
C03018
C03018
C03018
FFFFF8
7FFFF0
003000
003000
003000
003000
003000
003000
003000
ENDCHAR
STARTCHAR 4E34
ENCODING 20020
SWIDTH 870 0
DWIDTH 29 0
BBX 23 28 3 -1
BITMAP
060000
060600
060600
060600
060C00
060CFE
060CFE
061800
C61800
C63000
C63000
C620E0
C60078
C6000C
C60000
C60000
C61FFE
C61FFE
C61806
C618C6
C618C6
0618C6
0618C6
0618C6
0618C6
061806
061FFE
061FFE
ENDCHAR
STARTCHAR 4E36
ENCODING 20022
SWIDTH 900 0
DWIDTH 30 0
BBX 8 6 11 10
BITMAP
E0
70
38
1C
0E
03
ENDCHAR
STARTCHAR 4E38
ENCODING 20024
SWIDTH 900 0
DWIDTH 30 0
BBX 23 30 3 -3
BITMAP
00C000
00C000
00C000
00C000
00C000
00C000
00C000
3FFF80
3FFF80
018180
018180
018180
018180
018180
030180
030180
330180
3F0180
0F0180
07C180
064180
0E0180
0C0184
0C0186
1800FE
1800FE
300000
300000
600000
C00000
ENDCHAR
STARTCHAR 4E39
ENCODING 20025
SWIDTH 900 0
DWIDTH 30 0
BBX 24 28 3 -3
BITMAP
033FC0
033FE0
030060
030060
030060
031060
031860
031860
030C60
030060
030060
020060
FFFFFF
FFFFFF
060060
060060
060060
040060
0C0060
0C0060
0C0060
0C0060
1801E0
1800E0
180000
100000
300000
300000
ENDCHAR
STARTCHAR 4E3A
ENCODING 20026
SWIDTH 900 0
DWIDTH 30 0
BBX 20 30 5 -2
BITMAP
008000
00C000
00C000
00C000
30C000
38C000
1C8000
008000
018000
018000
7FFFE0
FFFFF0
018030
010030
030030
030030
033030
023830
060C30
060030
060030
040030
0C0030
0C0030
080030
1800F0
100070
300000
300000
200000
ENDCHAR
STARTCHAR 4E3B
ENCODING 20027
SWIDTH 930 0
DWIDTH 31 0
BBX 21 29 5 -1
BITMAP
006000
006000
006000
006000
002000
000000
7FFFE0
7FFFE0
000000
000000
000000
006000
006000
006000
006000
006000
0FFF00
0FFF00
006000
006000
006000
006000
006000
006000
006000
000000
000000
FFFFF8
FFFFF8
ENDCHAR
STARTCHAR 4E3D
ENCODING 20029
SWIDTH 900 0
DWIDTH 30 0
BBX 24 27 3 -4
BITMAP
FFFFFF
FFFFFF
000000
000000
000000
0004F8
37C6FC
37E60C
30660C
30660C
30660C
30660C
34660C
3666CC
3666CC
33666C
31666C
30660C
30660C
30660C
30660C
30660C
30660C
30660C
31E60C
30E63C
00061C
ENDCHAR
STARTCHAR 4E3E
ENCODING 20030
SWIDTH 900 0
DWIDTH 30 0
BBX 23 29 3 -1
BITMAP
083030
0C1860
060840
000000
000000
7FFFFC
7FFFFC
000000
000000
030000
061860
0C1878
1C180E
381800
71FFC0
C1FFC0
001800
001800
001800
001800
FFFFFE
FFFFFE
001800
001800
001800
001800
001800
001800
001800
ENDCHAR
STARTCHAR 4E3F
ENCODING 20031
SWIDTH 870 0
DWIDTH 29 0
BBX 7 29 11 -3
BITMAP
06
06
06
06
06
06
06
04
04
04
0C
0C
0C
0C
0C
08
08
18
18
18
10
30
30
30
60
60
40
C0
C0
ENDCHAR
STARTCHAR 4E43
ENCODING 20035
SWIDTH 900 0
DWIDTH 30 0
BBX 21 28 5 -3
BITMAP
FFFF00
FFFF80
000300
000300
000600
0C0600
0C0400
0C0C00
0C0C00
0C1FF0
0C0FF8
080018
080018
180018
180018
180018
180018
100018
300018
300018
200018
200018
6000F8
400038
C00000
C00000
800000
800000
ENDCHAR
STARTCHAR 4E45
ENCODING 20037
SWIDTH 900 0
DWIDTH 30 0
BBX 22 29 4 -2
BITMAP
060000
060000
0E0000
0C0000
1C0000
180000
380000
31FE00
61FF00
600300
000300
000600
000600
000E00
000C00
001C00
001800
003000
007000
00E000
00C000
0181C0
0300F0
06003C
0C000C
180000
700000
C00000
800000
ENDCHAR
STARTCHAR 4E47
ENCODING 20039
SWIDTH 900 0
DWIDTH 30 0
BBX 22 27 4 0
BITMAP
003FC0
0FFF00
3E0000
000000
006000
006000
006000
006000
006000
006000
006000
006000
FFFFFC
FFFFFC
006000
006000
006000
006000
006000
006000
006000
006000
006000
006020
006030
007FF0
003FF0
ENDCHAR
STARTCHAR 4E48
ENCODING 20040
SWIDTH 900 0
DWIDTH 30 0
BBX 20 24 5 1
BITMAP
018000
030000
060000
060000
0C0000
180000
380000
300000
600000
C04000
C0C000
80C000
008000
018000
010000
030000
030000
0600C0
0600C0
0C0060
0C0030
19FC30
1FF000
1F0000
ENDCHAR
STARTCHAR 4E49
ENCODING 20041
SWIDTH 900 0
DWIDTH 30 0
BBX 22 25 4 -1
BITMAP
00C0C0
00E0C0
006180
000180
000380
000300
000300
1C0600
0E0600
078C00
01DC00
00F800
007800
007C00
006E00
00E380
01C1C0
038060
070038
0E000C
0C0004
180000
700000
E00000
C00000
ENDCHAR
STARTCHAR 4E4B
ENCODING 20043
SWIDTH 900 0
DWIDTH 30 0
BBX 22 28 4 -1
BITMAP
003000
003000
003000
002000
000000
000000
000000
3FFFE0
3FFFE0
0000E0
0001C0
000180
000300
000600
000C00
001800
003000
006000
00C000
01C000
038000
070000
0E0000
3E0000
730000
E1C000
C0FFFC
803FFC
ENDCHAR
STARTCHAR 4E4C
ENCODING 20044
SWIDTH 900 0
DWIDTH 30 0
BBX 22 30 4 -2
BITMAP
003000
007000
006000
004000
000000
07FF80
07FF80
060180
060180
060180
060180
060180
060380
060180
060000
060000
07FFF8
07FFFC
00000C
00000C
00000C
00000C
00000C
FFFE0C
FFFE0C
00000C
00000C
00000C
00003C
00001C
ENDCHAR
STARTCHAR 4E4D
ENCODING 20045
SWIDTH 900 0
DWIDTH 30 0
BBX 22 30 4 -2
BITMAP
060000
0E0000
0C0000
180000
180000
30FFFC
70FFFC
600000
C00000
80C000
00C000
00C000
00C7F0
00C7F0
00C000
00C000
00C000
00C000
00C000
00C7F0
00C7F0
00C000
00C000
00C000
00C000
00C000
00C000
00C000
00C000
00C000
ENDCHAR
STARTCHAR 4E4E
ENCODING 20046
SWIDTH 930 0
DWIDTH 31 0
BBX 23 29 4 -4
BITMAP
000040
01FFE0
3FFF00
000000
000000
003000
003000
003000
003020
183060
0C3040
043000
003000
003000
FFFFFE
FFFFFE
003000
003000
003000
003000
003000
003000
003000
003000
003000
003000
003000
00F000
007000
ENDCHAR
STARTCHAR 4E4F
ENCODING 20047
SWIDTH 900 0
DWIDTH 30 0
BBX 22 27 4 0
BITMAP
001FF0
0FFFC0
7FC000
000000
003000
003000
003000
002000
000000
3FFFC0
3FFFC0
0000C0
000180
000300
000E00
001C00
003800
007000
00E000
01C000
038000
0E0000
3F0000
738000
60C000
C07FFC
C03FFC
ENDCHAR
STARTCHAR 4E50
ENCODING 20048
SWIDTH 900 0
DWIDTH 30 0
BBX 23 30 4 -4
BITMAP
000040
001FC0
01FF80
07E000
000000
000000
180000
181800
181800
181800
181800
181800
181800
181800
1FFFF8
1FFFF8
001800
001800
001800
001800
001800
001810
38183C
70181E
E01802
801800
001800
001800
00F800
003800
ENDCHAR
STARTCHAR 4E52
ENCODING 20050
SWIDTH 870 0
DWIDTH 29 0
BBX 23 29 3 -2
BITMAP
0003C0
003F80
00F800
000000
0C0000
0C0000
0C0000
0C0000
0C0000
0CFFF8
0CFFF8
0C0000
0C0000
0C0300
0C0300
0C0300
0C0300
0C0300
0C0300
000000
FFFFFE
FFFFFE
000000
000000
030000
070000
0E0000
1C0000
300000
ENDCHAR
STARTCHAR 4E53
ENCODING 20051
SWIDTH 870 0
DWIDTH 29 0
BBX 23 28 3 -1
BITMAP
0003C0
003F80
00F800
000000
0C0000
0C0000
0C0000
0C0000
0C0000
0CFFF8
0CFFF8
0C0000
0C0000
0C0300
0C0300
0C0300
0C0300
0C0300
0C0300
000000
FFFFFE
FFFFFE
000000
000000
000180
0001E0
0000F8
00001C
ENDCHAR
STARTCHAR 4E54
ENCODING 20052
SWIDTH 900 0
DWIDTH 30 0
BBX 23 29 3 -3
BITMAP
001FC0
07FF00
1FC000
000000
003000
006000
006000
00E000
FFFFFE
FFFFFE
018000
030000
0703C0
0E01F0
1C003C
380000
700300
C00300
060300
060300
060300
060300
060300
060300
040300
0C0300
0C0300
180300
100300
ENDCHAR
STARTCHAR 4E56
ENCODING 20054
SWIDTH 900 0
DWIDTH 30 0
BBX 24 30 3 -3
BITMAP
000060
001FE0
03FF80
0FC000
003000
003000
003000
003000
FFFFFF
FFFFFF
003000
003000
033000
033180
033186
FB319E
FB3198
033180
033180
033184
3B3186
F331FE
E330FE
033000
033000
003000
003000
003000
003000
003000
ENDCHAR
STARTCHAR 4E58
ENCODING 20056
SWIDTH 870 0
DWIDTH 29 0
BBX 23 30 3 -3
BITMAP
0000E0
00FFE0
0FF800
000000
001800
001800
001800
001800
FFFFFE
FFFFFE
001800
019980
01998E
7D999E
7D9998
019980
019980
1D9984
399984
7199FE
6198FE
019800
001800
001800
001860
061870
1E1838
38180C
001800
001800
ENDCHAR
STARTCHAR 4E59
ENCODING 20057
SWIDTH 900 0
DWIDTH 30 0
BBX 22 25 4 -1
BITMAP
FFFF80
FFFF80
000180
000300
000600
000E00
000C00
001800
003000
007000
006000
00C000
018000
038000
030000
060000
0C0000
1C0000
180000
300000
600010
600018
C00018
FFFFFC
FFFFFC
ENDCHAR
STARTCHAR 4E5C
ENCODING 20060
SWIDTH 870 0
DWIDTH 29 0
BBX 23 27 3 0
BITMAP
0C0000
0C0000
0C0000
0C0000
0C0000
0C00C0
0C1FE0
0FFC60
7FC060
FC0060
0C0060
0C0060
0C0060
0C0060
0C0060
0C0060
0C0060
0C0060
0C01E0
0C0040
0C0000
0C0000
0C0000
0C0004
0C0006
0FFFFE
0FFFFE
ENDCHAR
STARTCHAR 4E5D
ENCODING 20061
SWIDTH 900 0
DWIDTH 30 0
BBX 22 29 4 -4
BITMAP
030000
030000
030000
030000
030000
030000
030000
FFFF00
7FFF00
060300
060300
060300
060300
040300
0C0300
0C0300
0C0300
0C0300
180300
180300
180300
100308
30030C
3003FC
6001FC
600000
400000
C00000
800000
ENDCHAR
STARTCHAR 4E5E
ENCODING 20062
SWIDTH 900 0
DWIDTH 30 0
BBX 22 28 4 0
BITMAP
0C0000
180000
180000
300000
31FFF0
61FFF0
400000
C00000
000000
000000
000000
0FFF80
0FFF80
000180
000380
000700
000E00
001C00
003800
007000
00E000
01C000
038000
070010
0E0010
1C0018
1FFFFC
0FFFFC
ENDCHAR
STARTCHAR 4E5F
ENCODING 20063
SWIDTH 930 0
DWIDTH 31 0
BBX 21 28 5 -1
BITMAP
003000
003000
003000
003000
183000
183000
183000
183000
1833C0
187FC0
1FF0C0
FE30C0
D830C0
1830C0
1830C0
1830C0
1830C0
1830C0
1831C0
1830C0
183000
183000
183000
180000
180010
180018
1FFFF8
1FFFF8
ENDCHAR
STARTCHAR 4E60
ENCODING 20064
SWIDTH 930 0
DWIDTH 31 0
BBX 19 26 6 -2
BITMAP
FFFFC0
FFFFE0
000060
000060
000060
000060
000060
000060
1E0060
0F0060
018060
000060
000060
000060
000060
01C060
0F8060
3E0060
F00060
800060
000060
000060
000060
000060
0001E0
0000C0
ENDCHAR
STARTCHAR 4E61
ENCODING 20065
SWIDTH 900 0
DWIDTH 30 0
BBX 20 29 5 -2
BITMAP
020000
060000
0E0000
0C0000
180000
300000
300C00
731C00
7F3800
787000
006000
00C000
01C000
038000
070070
060060
0C38C0
1FF1C0
0F8380
000700
000E00
001C00
007800
00E000
03C000
0F0000
3E0000
F80000
C00000
ENDCHAR
STARTCHAR 4E66
ENCODING 20070
SWIDTH 900 0
DWIDTH 30 0
BBX 22 30 4 -3
BITMAP
006000
006000
006030
006038
006018
006000
1FFF80
1FFF80
006180
006180
006180
006180
006180
006000
006000
FFFFF8
FFFFFC
00600C
00600C
00600C
00600C
00600C
00600C
00600C
00603C
00601C
006000
006000
006000
006000
ENDCHAR
STARTCHAR 4E69
ENCODING 20073
SWIDTH 900 0
DWIDTH 30 0
BBX 27 28 2 0
BITMAP
06000000
06000000
06000000
0600C000
0600C000
0600C000
0600C000
06FCC000
06FCC000
0600C000
0600C000
0600C000
0600C000
0600C000
0000C000
0000C000
7FE0C000
FFF0C000
C030C000
C030C000
C030C000
C030C000
C030C080
C030C080
C030C0C0
C030FFE0
FFF07FE0
FFE00000
ENDCHAR
STARTCHAR 4E70
ENCODING 20080
SWIDTH 870 0
DWIDTH 29 0
BBX 23 28 3 -4
BITMAP
3FFFF8
3FFFF8
000018
000018
000C18
020C00
070C00
030C00
000C00
000800
701800
381800
001800
001800
003000
FFFFFE
FFFFFE
007000
006000
00E000
00C000
0183C0
0381F0
030018
060000
0C0000
180000
300000
ENDCHAR
STARTCHAR 4E71
ENCODING 20081
SWIDTH 900 0
DWIDTH 30 0
BBX 27 25 2 1
BITMAP
03E0C000
1FE0C000
3E00C000
0000C000
0300C000
0300C000
0300C000
0300C000
0300C000
FFF8C000
FFF8C000
0300C000
0300C000
0300C000
0000C000
0000C000
1FE0C000
3FF0C000
3030C080
3030C080
3030C0C0
3030FFE0
3030FFC0
3FF00000
3FE00000
ENDCHAR
STARTCHAR 4E73
ENCODING 20083
SWIDTH 900 0
DWIDTH 30 0
BBX 27 26 2 -1
BITMAP
00300000
0FF0C000
7FC0C000
0000C000
0000C000
0218C000
0318C000
E330C000
6020C000
0000C000
0000C000
3FE0C000
3FE0C000
00C0C000
0180C000
0300C000
0378C000
07E0C000
3F80C000
FF00C000
C300C080
0300C080
0300C0C0
0300FFE0
1F00FFE0
07000000
ENDCHAR
STARTCHAR 4E7E
ENCODING 20094
SWIDTH 900 0
DWIDTH 30 0
BBX 26 26 2 0
BITMAP
0300C000
0300C000
03018000
7FF98000
7FF9BFC0
03033FC0
03020000
03020000
1FE00000
3FF00000
30300000
37B1FE00
37B1FF00
30300700
30300600
3FF00C00
1FE01C00
03001800
03003000
FFF87000
FFF86000
0300C000
03008080
030180C0
0301FFC0
0301FFC0
ENDCHAR
STARTCHAR 4E86
ENCODING 20102
SWIDTH 900 0
DWIDTH 30 0
BBX 17 27 6 -3
BITMAP
FFFF00
FFFF80
000380
000300
000600
000C00
001800
003000
007000
00E000
00C000
00C000
00C000
00C000
00C000
00C000
00C000
00C000
00C000
00C000
00C000
00C000
00C000
00C000
00C000
07C000
01C000
ENDCHAR
STARTCHAR 4E88
ENCODING 20104
SWIDTH 900 0
DWIDTH 30 0
BBX 22 28 4 -2
BITMAP
1FFF80
1FFF80
000180
000300
000600
000600
018400
01E000
007000
001800
000000
FFFFF8
FFFFFC
00000C
00000C
00300C
00300C
003000
003000
003000
003000
003000
003000
003000
003000
003000
01F000
007000
ENDCHAR
STARTCHAR 4E89
ENCODING 20105
SWIDTH 900 0
DWIDTH 30 0
BBX 24 30 3 -3
BITMAP
030000
060000
0E0000
0C7F80
187F80
300300
200300
000600
000000
07FFC0
07FFE0
000060
000060
003060
FFFFFF
FFFFFF
003060
003060
003060
003060
07FFE0
07FFC0
003000
003000
003000
003000
003000
003000
01F000
007000
ENDCHAR
STARTCHAR 4E8B
ENCODING 20107
SWIDTH 900 0
DWIDTH 30 0
BBX 24 31 3 -4
BITMAP
001800
001800
001800
3FFFFC
3FFFFC
001800
001800
03FFC0
07FFC0
0618C0
0618C0
07FFC0
03FF80
001800
07FFC0
0FFFE0
001860
001860
FFFFFF
FFFFFF
001860
001860
07FFE0
0FFFE0
001800
001800
001800
001800
001800
00F800
003800
ENDCHAR
STARTCHAR 4E8C
ENCODING 20108
SWIDTH 870 0
DWIDTH 29 0
BBX 21 22 4 1
BITMAP
3FFFE0
3FFFE0
000000
000000
000000
000000
000000
000000
000000
000000
000000
000000
000000
000000
000000
000000
000000
000000
000000
000000
FFFFF8
FFFFF8
ENDCHAR
STARTCHAR 4E8D
ENCODING 20109
SWIDTH 900 0
DWIDTH 30 0
BBX 24 28 3 -3
BITMAP
1FFFF0
1FFFF0
000000
000000
000000
000000
000000
000000
000000
FFFFFF
FFFFFF
000000
000000
000000
001800
001800
001800
001800
001800
001800
001800
001800
001800
001800
001800
001800
007800
003800
ENDCHAR
STARTCHAR 4E8E
ENCODING 20110
SWIDTH 900 0
DWIDTH 30 0
BBX 22 26 4 -3
BITMAP
1FFFE0
1FFFE0
000000
000000
003000
003000
003000
003000
003000
003000
FFFFFC
FFFFFC
003000
003000
003000
003000
003000
003000
003000
003000
003000
003000
003000
003000
00F000
007000
ENDCHAR
STARTCHAR 4E8F
ENCODING 20111
SWIDTH 870 0
DWIDTH 29 0
BBX 23 28 3 -4
BITMAP
0FFFE0
0FFFE0
000000
000000
000000
000000
000000
000000
FFFFFE
FFFFFE
000000
030000
030000
030000
030000
030000
03FFE0
01FFE0
000060
000060
000060
000060
000060
000060
000060
000060
0001E0
0000E0
ENDCHAR
STARTCHAR 4E91
ENCODING 20113
SWIDTH 900 0
DWIDTH 30 0
BBX 23 26 3 -2
BITMAP
1FFFE0
1FFFE0
000000
000000
000000
000000
000000
000000
000000
000000
FFFFFE
FFFFFE
000000
000000
010000
018000
030000
030000
060100
060180
0C00C0
0C0060
180860
19FC30
1FE000
1E0000
ENDCHAR
STARTCHAR 4E92
ENCODING 20114
SWIDTH 900 0
DWIDTH 30 0
BBX 22 26 4 -1
BITMAP
3FFFF8
3FFFF8
000000
000000
018000
018000
010000
030000
030000
033FC0
023FC0
0200C0
060080
060180
060180
040180
0FF900
0FFB00
000300
000300
000200
000600
000200
000000
FFFFFC
FFFFFC
ENDCHAR
STARTCHAR 4E93
ENCODING 20115
SWIDTH 900 0
DWIDTH 30 0
BBX 22 27 4 -2
BITMAP
3FFFC0
3FFFC0
000000
000000
000000
000000
000000
000000
FFFFFC
FFFFFC
000000
000000
000300
060300
060300
060300
060300
040300
0C0300
0C0300
0C0300
180300
180300
180300
300300
300300
000300
ENDCHAR
STARTCHAR 4E94
ENCODING 20116
SWIDTH 930 0
DWIDTH 31 0
BBX 23 24 4 0
BITMAP
7FFFF8
7FFFF8
000000
000000
00C000
00C000
00C000
008000
1FFF00
1FFF80
018180
018180
010180
030180
030180
030180
030180
020180
060180
060180
000000
000000
FFFFFE
FFFFFE
ENDCHAR
STARTCHAR 4E95
ENCODING 20117
SWIDTH 900 0
DWIDTH 30 0
BBX 24 28 3 -2
BITMAP
000180
000180
00C180
00C180
00C180
00C180
00C180
00C180
1FFFFC
1FFFFC
008180
008180
008180
018180
018180
018180
FFFFFF
FFFFFF
010180
030180
030180
030180
030180
020180
060180
060180
040180
0C0180
ENDCHAR
STARTCHAR 4E98
ENCODING 20120
SWIDTH 900 0
DWIDTH 30 0
BBX 24 25 3 -1
BITMAP
7FFFFC
7FFFFC
000000
000000
000000
000000
03FFC0
07FFC0
0600C0
0600C0
0600C0
067EC0
067EC0
0600C0
0600C0
0600C0
0600C0
07FFC0
03FFC0
000000
000000
000000
000000
FFFFFF
FFFFFF
ENDCHAR
STARTCHAR 4E9A
ENCODING 20122
SWIDTH 900 0
DWIDTH 30 0
BBX 23 25 3 -1
BITMAP
7FFFFC
7FFFFC
000000
000000
018600
018600
018600
018600
018600
01860C
41861C
618638
718660
198600
0D8600
018600
018600
018600
018600
018600
018600
000000
000000
FFFFFE
FFFFFE
ENDCHAR
STARTCHAR 4E9B
ENCODING 20123
SWIDTH 900 0
DWIDTH 30 0
BBX 24 28 3 -2
BITMAP
030300
030300
030300
030300
330306
33031E
337B38
337B00
330300
330300
330300
330302
330302
0003FF
0001FF
7FF000
F80000
000000
000000
000000
07FFF0
07FFF0
000000
000000
000000
000000
FFFFFE
FFFFFE
ENDCHAR
STARTCHAR 4E9F
ENCODING 20127
SWIDTH 900 0
DWIDTH 30 0
BBX 24 29 3 -2
BITMAP
1FFFE0
1FFFF0
000060
0001C0
000380
000700
000E00
001800
001800
0018FE
FE18FE
FF1806
C31806
C3180C
C3186C
C31878
FF181E
7E1837
001860
0018C0
001980
001900
001800
001800
007800
001000
000000
FFFFFE
FFFFFE
ENDCHAR
STARTCHAR 4EA0
ENCODING 20128
SWIDTH 900 0
DWIDTH 30 0
BBX 24 7 3 21
BITMAP
001800
001800
001800
001000
000000
FFFFFF
FFFFFF
ENDCHAR
STARTCHAR 4EA1
ENCODING 20129
SWIDTH 930 0
DWIDTH 31 0
BBX 23 28 4 -1
BITMAP
001800
001800
001800
001000
000000
000000
FFFFFE
FFFFFE
000000
000000
000000
040000
0C0000
0C0000
0C0000
0C0000
0C0000
0C0000
0C0000
0C0000
0C0000
0C0000
0C0000
0C0000
0C0000
0C0000
0FFFE0
07FFE0
ENDCHAR
STARTCHAR 4EA2
ENCODING 20130
SWIDTH 900 0
DWIDTH 30 0
BBX 23 29 3 -3
BITMAP
003000
003000
003000
001000
000000
FFFFFE
FFFFFE
000000
000000
000000
000000
030000
033F00
033F80
020180
020180
060180
060180
060180
060180
040180
0C0180
0C0188
0C018C
1801FE
1801FE
100000
300000
300000
ENDCHAR
STARTCHAR 4EA4
ENCODING 20132
SWIDTH 900 0
DWIDTH 30 0
BBX 22 31 4 -3
BITMAP
003000
003000
003000
001000
000000
000000
FFFFFC
FFFFFC
000000
000000
000180
0001C0
0C00E0
1C0030
180200
300600
200600
000C00
018C00
01D800
00F800
003800
007E00
00C700
01C1C0
0380E0
070030
0C0000
380000
700000
400000
ENDCHAR
STARTCHAR 4EA5
ENCODING 20133
SWIDTH 930 0
DWIDTH 31 0
BBX 23 30 4 -3
BITMAP
003000
003000
003000
001000
000000
FFFFFE
FFFFFE
000000
010000
030300
060300
060600
0C0E00
1FCC00
0F1800
003080
007180
00E180
01C300
038600
060E00
1C0C00
301800
003000
0061C0
00C1F0
038038
070000
0C0000
080000
ENDCHAR
STARTCHAR 4EA6
ENCODING 20134
SWIDTH 900 0
DWIDTH 30 0
BBX 24 30 3 -2
BITMAP
001800
001800
001800
001000
000000
000000
7FFFFE
7FFFFE
000000
000000
000000
000300
000300
000300
00C300
10C300
30C300
70C338
60C33E
C08307
818300
018300
018300
030300
030300
060300
060300
0C1F00
180F00
100000
ENDCHAR
STARTCHAR 4EA7
ENCODING 20135
SWIDTH 900 0
DWIDTH 30 0
BBX 23 31 3 -3
BITMAP
000C00
000C00
000C00
000800
000000
3FFFFE
3FFFFE
000000
000000
00C0C0
00E1C0
002100
000000
0DFFFC
0DFFFC
0C0000
0C0000
0C0000
0C0000
080000
180000
180000
180000
180000
100000
300000
300000
300000
600000
600000
C00000
ENDCHAR
STARTCHAR 4EA8
ENCODING 20136
SWIDTH 900 0
DWIDTH 30 0
BBX 22 31 4 -3
BITMAP
003000
003000
003000
000000
FFFFFC
FFFFFC
000000
01FF00
03FF80
030180
030180
030180
030180
03FF80
01FF00
000000
000000
1FFFC0
1FFFE0
0001C0
000300
000600
000C00
001800
001800
001800
001800
001800
001800
007800
003800
ENDCHAR
STARTCHAR 4EA9
ENCODING 20137
SWIDTH 930 0
DWIDTH 31 0
BBX 25 30 3 -1
BITMAP
000C0000
000C0000
000C0000
00080000
00000000
00000000
FFFFFF80
FFFFFF80
00000000
00000000
00000000
00000000
0FFFF000
1FFFF800
18001800
18001800
18001800
180C1800
180C1800
180C1800
18FF9800
18FF9800
180C1800
180C1800
180C1800
180C1800
18001800
18001800
1FFFF800
0FFFF000
ENDCHAR
STARTCHAR 4EAB
ENCODING 20139
SWIDTH 870 0
DWIDTH 29 0
BBX 23 30 3 -2
BITMAP
001800
001800
001000
000000
7FFFFC
7FFFFC
000000
000000
01FE00
01FF00
018300
018300
018300
01FF00
00FE00
000000
000000
07FF80
07FF80
000300
000600
000C00
FFFFFE
FFFFFE
001800
001800
001800
001800
007800
003000
ENDCHAR
STARTCHAR 4EAC
ENCODING 20140
SWIDTH 930 0
DWIDTH 31 0
BBX 23 30 4 -4
BITMAP
003000
003000
003000
000000
FFFFFE
FFFFFE
000000
000000
000000
03FF00
07FF80
060180
060180
060180
060180
060180
07FF80
03FF00
000000
000000
001800
001830
1C1838
38181C
701802
801800
001800
001800
00F800
003800
ENDCHAR
STARTCHAR 4EAD
ENCODING 20141
SWIDTH 900 0
DWIDTH 30 0
BBX 22 31 4 -4
BITMAP
003000
003000
002000
000000
FFFFF0
FFFFF0
000000
000000
03FE00
07FF00
060300
060300
07FF00
03FE00
000000
000000
CFFFF8
CFFFFC
C0000C
C0000C
C0000C
C7FF0C
07FF00
000000
003000
003000
003000
003000
003000
00F000
003000
ENDCHAR
STARTCHAR 4EAE
ENCODING 20142
SWIDTH 900 0
DWIDTH 30 0
BBX 21 31 5 -3
BITMAP
003000
003000
002000
000000
7FFFF8
7FFFF8
000000
03FC00
07FE00
060600
060600
060600
07FE00
03FC00
000000
C00000
CFFFF0
CFFFF8
C00018
C00018
C33C18
033E00
030600
060600
060600
060640
060660
0C07E0
0C07E0
080000
080000
ENDCHAR
STARTCHAR 4EB2
ENCODING 20146
SWIDTH 930 0
DWIDTH 31 0
BBX 23 30 4 -4
BITMAP
001800
001800
001000
000000
1FFFF8
1FFFF8
000000
000080
030180
018180
000100
000000
FFFFFE
FFFFFE
000000
000000
001800
001800
001800
1FFFFC
1FFFFC
001800
001800
0C1820
1C1878
38181C
701804
401800
007800
003800
ENDCHAR
STARTCHAR 4EB3
ENCODING 20147
SWIDTH 900 0
DWIDTH 30 0
BBX 22 31 4 -3
BITMAP
003000
003000
003000
7FFFF0
7FFFF0
000000
01FE00
03FF00
030300
030300
030300
03FF00
01FE00
000000
DFFFF8
DFFFFC
C0000C
C0000C
C07F8C
07FF00
006000
006000
006000
3FFFF8
3FFFF0
006000
006040
006040
006040
007FE0
003FC0
ENDCHAR
STARTCHAR 4EB5
ENCODING 20149
SWIDTH 900 0
DWIDTH 30 0
BBX 22 31 4 -3
BITMAP
003000
003000
003000
000000
FFFFFC
FFFFFC
000000
0C0600
0C0600
0C1FC0
7FFFE0
7FCC60
0C0C60
1F8C60
FE3C60
FC1F20
0C1B30
0C1838
3C1038
1C3000
000000
0300C0
0E0180
1C0100
700000
460200
060380
0601E0
060078
07C008
070000
ENDCHAR
STARTCHAR 4EBA
ENCODING 20154
SWIDTH 900 0
DWIDTH 30 0
BBX 19 26 5 -1
BITMAP
002000
006000
006000
006000
004000
00C000
00C000
00C000
008000
018000
018000
010000
030000
030000
060000
060000
060000
0C0E00
0C07C0
1801E0
180000
300000
600000
600000
C00000
800000
ENDCHAR
STARTCHAR 4EBB
ENCODING 20155
SWIDTH 900 0
DWIDTH 30 0
BBX 7 21 4 1
BITMAP
06
0E
1C
38
70
E0
80
00
18
18
18
18
18
18
18
18
18
18
18
18
18
ENDCHAR
STARTCHAR 4EBF
ENCODING 20159
SWIDTH 870 0
DWIDTH 29 0
BBX 24 22 3 1
BITMAP
003FF8
063FFC
1C0018
380018
700030
E00030
800060
000060
1800C0
1800C0
180180
180380
180300
180600
180600
180C00
180C00
181804
181804
183006
183FFF
181FFE
ENDCHAR
STARTCHAR 4EC0
ENCODING 20160
SWIDTH 900 0
DWIDTH 30 0
BBX 23 25 4 -1
BITMAP
000180
060180
0E0180
1C0180
380180
700180
E00180
800180
000180
180180
187FFE
187FFE
180180
180180
180180
180180
180180
180180
180180
180180
180180
180180
180180
180180
000180
ENDCHAR
STARTCHAR 4EC1
ENCODING 20161
SWIDTH 900 0
DWIDTH 30 0
BBX 24 24 3 0
BITMAP
060000
0E0000
1C0000
381FFE
701FFE
C00000
800000
000000
000000
180000
180000
180000
180000
180000
180000
180000
180000
180000
180000
180000
187FFF
187FFF
180000
180000
ENDCHAR
STARTCHAR 4EC2
ENCODING 20162
SWIDTH 900 0
DWIDTH 30 0
BBX 23 28 4 -3
BITMAP
000600
000600
000600
000600
060600
0E0600
1C0600
380600
707FFC
E07FFE
800606
000606
180606
180406
180406
180C06
180C06
180C06
180C06
180806
181806
181806
18183E
18100E
183000
003000
002000
006000
ENDCHAR
STARTCHAR 4EC3
ENCODING 20163
SWIDTH 900 0
DWIDTH 30 0
BBX 23 25 4 -1
BITMAP
003FFE
003FFE
060000
0C0000
1C0060
380060
700060
E00060
800060
000060
180060
180060
180060
180060
180060
180060
180060
180060
180060
180060
180060
180060
180060
0001E0
000060
ENDCHAR
STARTCHAR 4EC4
ENCODING 20164
SWIDTH 900 0
DWIDTH 30 0
BBX 24 28 3 -3
BITMAP
3FFFFF
3FFFFF
000000
000000
000000
180000
180000
180000
1800C0
180180
180180
180180
180180
380100
300300
300300
300200
300600
300600
600400
600C60
400878
C0181C
C01006
803000
802000
006000
004000
ENDCHAR
STARTCHAR 4EC5
ENCODING 20165
SWIDTH 900 0
DWIDTH 30 0
BBX 25 21 3 1
BITMAP
06000000
0C7FF800
1C3FFC00
38001800
70001800
E0001800
80001800
00003000
18003000
181C6000
180E6000
1807E000
1801E000
1801F000
1803BC00
18070F00
180E0180
181C0000
18380000
18600000
18C00000
ENDCHAR
STARTCHAR 4EC6
ENCODING 20166
SWIDTH 900 0
DWIDTH 30 0
BBX 25 27 3 -1
BITMAP
00018000
00018000
00018000
06018000
0E018000
1C018000
38018000
70018000
E0018000
80018000
00018000
18018000
18019F00
18018780
18018000
18018000
18018000
18018000
18018000
18018000
18018000
18018000
18018000
18018000
00018000
00018000
00018000
ENDCHAR
STARTCHAR 4EC7
ENCODING 20167
SWIDTH 930 0
DWIDTH 31 0
BBX 25 26 3 -2
BITMAP
00060000
00060000
00060000
06060000
0C060000
1C060000
38060000
707FF800
C07FF800
80061800
00061800
180C1800
180C1800
180C1800
180C1800
18181800
18181800
18181800
18301800
18301900
18701980
18601F80
18C00F80
18C00000
01800000
01000000
ENDCHAR
STARTCHAR 4EC9
ENCODING 20169
SWIDTH 900 0
DWIDTH 30 0
BBX 25 27 3 -4
BITMAP
00100000
001BF000
061BF800
0E181800
1C181800
38181800
70181800
E0181800
80181800
00181800
18181800
18181800
18181800
18101800
18101800
18301800
18301800
18301800
18301800
18201900
18601900
18601980
18601F80
00C00F80
00C00000
00800000
01800000
ENDCHAR
STARTCHAR 4ECA
ENCODING 20170
SWIDTH 900 0
DWIDTH 30 0
BBX 21 27 5 -1
BITMAP
003000
006000
006000
00C000
018000
030600
0607E0
0C01F8
180038
303000
E03000
802000
000000
000000
0FFFC0
0FFFC0
0001C0
0001C0
000180
000380
000300
000700
000600
000C00
001C00
003800
003000
ENDCHAR
STARTCHAR 4ECB
ENCODING 20171
SWIDTH 900 0
DWIDTH 30 0
BBX 22 30 4 -3
BITMAP
002000
003000
006000
00C000
00C000
018000
030380
0603F8
1C003C
380000
700000
C00000
000300
000300
030300
030300
030300
030300
020300
060300
060300
060300
040300
0C0300
0C0300
180300
180300
100300
000300
000300
ENDCHAR
STARTCHAR 4ECD
ENCODING 20173
SWIDTH 900 0
DWIDTH 30 0
BBX 24 26 3 -3
BITMAP
007FF0
000038
060010
0E0030
1C0030
380030
600020
C00860
00087F
00183F
181803
181803
181803
181803
181003
183003
183003
183003
183003
182003
186003
186003
18401F
00C007
008000
018000
ENDCHAR
STARTCHAR 4ECE
ENCODING 20174
SWIDTH 900 0
DWIDTH 30 0
BBX 21 25 5 -2
BITMAP
060180
060180
060180
060180
060180
060180
040100
040100
0C0300
0C0300
0C0300
0C8300
08E200
182600
180600
180600
100400
300C20
300C30
200818
601808
401000
C03000
C03000
802000
ENDCHAR
STARTCHAR 4ED1
ENCODING 20177
SWIDTH 900 0
DWIDTH 30 0
BBX 21 28 5 0
BITMAP
002000
006000
00C000
00C000
018000
030000
0607E0
0C01F8
380038
700000
C00000
000000
060000
060000
060080
0603C0
060F80
063C00
060000
060000
060000
060000
060000
060000
060040
060040
07FFE0
07FFE0
ENDCHAR
STARTCHAR 4ED3
ENCODING 20179
SWIDTH 900 0
DWIDTH 30 0
BBX 21 29 5 -1
BITMAP
002000
006000
006000
00C000
018000
030000
070780
0E01F8
180078
300000
E00000
800000
007F00
067F80
060180
060180
060180
060180
060180
060780
060780
060100
060000
060000
060000
060010
060010
07FFF8
07FFF8
ENDCHAR
STARTCHAR 4ED4
ENCODING 20180
SWIDTH 900 0
DWIDTH 30 0
BBX 25 24 3 -1
BITMAP
001FFC00
001FFE00
06000C00
0E001C00
1C001800
38003000
70006000
E0006000
8000C000
0000C000
1800C000
187FFF80
187FFF80
1800C000
1800C000
1800C000
1800C000
1800C000
1800C000
1800C000
1800C000
1800C000
1807C000
0003C000
ENDCHAR
STARTCHAR 4ED5
ENCODING 20181
SWIDTH 900 0
DWIDTH 30 0
BBX 24 23 3 1
BITMAP
0000C0
0600C0
0E00C0
1C00C0
3800C0
6000C0
C000C0
0000C0
003FFF
183FFF
1800C0
1800C0
1800C0
1800C0
1800C0
1800C0
1800C0
1800C0
1800C0
180000
180000
181FFC
181FFC
ENDCHAR
STARTCHAR 4ED6
ENCODING 20182
SWIDTH 930 0
DWIDTH 31 0
BBX 25 25 3 0
BITMAP
0000C000
0000C000
0000C000
0600C000
0E30C000
1C30C000
3830C000
7030DE00
E037FE00
807FC600
00F0C600
1830C600
1830C600
1830C600
1830C600
1830C600
1830DE00
1830CE00
1830C000
18300000
18300000
18300100
18300180
183FFF80
003FFF80
ENDCHAR
STARTCHAR 4ED7
ENCODING 20183
SWIDTH 900 0
DWIDTH 30 0
BBX 24 27 3 -3
BITMAP
000030
000030
000030
060030
0E0030
1C0070
380060
707FFF
E07FFF
800060
0000E0
1800C0
1800C0
1800C0
1801C0
181D80
180F80
1803C0
1803F0
180338
18060E
180600
180C00
181800
001800
003000
002000
ENDCHAR
STARTCHAR 4ED8
ENCODING 20184
SWIDTH 900 0
DWIDTH 30 0
BBX 25 24 3 -1
BITMAP
00001800
00001800
06001800
0E001800
1C001800
38001800
60001800
C07FFF80
007FFF80
00001800
18001800
18001800
18001800
18001800
180E1800
18071800
18001800
18001800
18001800
18001800
18001800
18001800
1800F800
00003800
ENDCHAR
STARTCHAR 4ED9
ENCODING 20185
SWIDTH 900 0
DWIDTH 30 0
BBX 25 23 3 2
BITMAP
0000C000
0000C000
0600C000
0E00C000
1C00C000
3800C000
7000C000
E000C000
8000C000
0000C000
1830C180
1830C180
1830C180
1830C180
1830C180
1830C180
1830C180
18300180
18300180
18300180
18300180
183FFF80
181FFF00
ENDCHAR
STARTCHAR 4EDD
ENCODING 20189
SWIDTH 870 0
DWIDTH 29 0
BBX 21 28 4 0
BITMAP
003000
003000
006000
00E000
00C000
018000
030780
0603F0
1C0078
380000
600000
C00000
07FF80
07FF80
000000
000000
003000
003000
003000
003000
003000
003000
003000
003000
000000
000000
7FFFF8
7FFFF8
ENDCHAR
STARTCHAR 4EDE
ENCODING 20190
SWIDTH 900 0
DWIDTH 30 0
BBX 24 24 3 -1
BITMAP
003FFE
061FFF
0E0003
1C0003
380003
700003
E00103
800303
000303
180303
186303
18E203
198603
180603
180603
180C03
180C03
180C03
181803
181803
18100F
183007
002000
002000
ENDCHAR
STARTCHAR 4EDF
ENCODING 20191
SWIDTH 900 0
DWIDTH 30 0
BBX 23 25 4 0
BITMAP
0000F8
000FF8
061F80
0E0000
1C0000
380000
700180
E00180
800180
000180
180180
187FFE
187FFE
180180
180180
180180
180180
180180
180180
180180
180180
180180
180180
000180
000180
ENDCHAR
STARTCHAR 4EE1
ENCODING 20193
SWIDTH 900 0
DWIDTH 30 0
BBX 24 28 3 0
BITMAP
000C00
001800
001800
003800
043000
0E3000
1C61FF
3861FF
700000
E00000
C00000
000000
183FF8
183FFC
18001C
180018
180030
180060
1800E0
1801C0
180180
180300
180700
180E02
180C02
001803
001FFF
001FFF
ENDCHAR
STARTCHAR 4EE3
ENCODING 20195
SWIDTH 900 0
DWIDTH 30 0
BBX 24 25 3 0
BITMAP
001800
001860
060860
0C0C60
180C20
300C00
600C00
C00600
00063E
0007F8
183F80
19FB00
198300
180180
180180
180180
1800C0
1800C0
180060
180060
180030
180039
18001F
18000F
180002
ENDCHAR
STARTCHAR 4EE4
ENCODING 20196
SWIDTH 900 0
DWIDTH 30 0
BBX 23 29 3 -1
BITMAP
003000
003000
006000
00E000
01C000
038000
0701FC
0E001E
1C0000
381800
701800
C01800
001000
000000
000000
07FFC0
07FFE0
000060
0000C0
0000C0
000180
000300
000600
000C00
018000
01E000
007800
001C00
000600
ENDCHAR
STARTCHAR 4EE5
ENCODING 20197
SWIDTH 930 0
DWIDTH 31 0
BBX 23 27 4 -2
BITMAP
000300
000300
000300
C00300
C00300
C00300
C00300
C20300
C30700
C18600
C0C600
C00600
C00600
C00E00
C00C00
C00C00
C00C00
C01800
C018C0
C018F0
F83038
E0300C
002002
006000
004000
00C000
008000
ENDCHAR
STARTCHAR 4EE8
ENCODING 20200
SWIDTH 870 0
DWIDTH 29 0
BBX 22 21 4 2
BITMAP
007FFC
0E7FFC
1C0000
380000
700000
E00000
800000
000000
180000
183FF0
183FF0
180000
180000
180000
180000
180000
180000
180000
180000
18FFFC
18FFFC
ENDCHAR
STARTCHAR 4EEA
ENCODING 20202
SWIDTH 930 0
DWIDTH 31 0
BBX 23 22 4 0
BITMAP
060600
0E0700
1C030C
380308
700118
E00018
800018
000010
180030
183030
181C60
180F60
1803C0
1800E0
1801B8
18018E
180302
180600
180C00
181800
183000
006000
ENDCHAR
STARTCHAR 4EEB
ENCODING 20203
SWIDTH 900 0
DWIDTH 30 0
BBX 24 21 3 2
BITMAP
040800
0C1800
1C3800
383060
7070E0
E060C0
80C1C0
018180
190300
180300
180600
180600
180C18
180C0C
181806
181806
1831E3
183FE1
183F80
183C00
180000
ENDCHAR
STARTCHAR 4EEC
ENCODING 20204
SWIDTH 900 0
DWIDTH 30 0
BBX 24 27 3 -1
BITMAP
003000
003000
003000
0023FF
0603FF
0E0003
1C0003
386003
706003
C06003
806003
006003
186003
186003
186003
186003
186003
186003
186003
186003
186003
186003
186003
186003
186003
00600F
000003
ENDCHAR
STARTCHAR 4EEE
ENCODING 20206
SWIDTH 900 0
DWIDTH 30 0
BBX 25 26 3 -1
BITMAP
00001E00
0003F800
06300000
0E300000
1C300000
38300000
70300000
E0300000
C0300000
0033FC00
1833FE00
18300400
18700C00
18700C00
18600C00
18619800
1861D800
18C07800
18C03C00
18C06E00
19806380
1980C080
19018000
00030000
00060000
00040000
ENDCHAR
STARTCHAR 4EF0
ENCODING 20208
SWIDTH 900 0
DWIDTH 30 0
BBX 27 25 2 1
BITMAP
00030000
000F0000
06183FC0
0E603FE0
1C600060
38600060
70600060
E0603060
C0603060
00603060
18603060
18603060
18603060
18603060
18603060
18603060
187C31E0
187830C0
18003000
18003000
18003000
18003000
18003000
00003000
00003000
ENDCHAR
STARTCHAR 4EF2
ENCODING 20210
SWIDTH 900 0
DWIDTH 30 0
BBX 22 28 4 -2
BITMAP
000300
000300
000300
000300
060300
0E0300
1C0300
380300
603FF8
C07FFC
00630C
00630C
18630C
18630C
18630C
187FFC
187FFC
180300
180300
180300
180300
180300
180300
180300
180300
000300
000300
000300
ENDCHAR
STARTCHAR 4EF3
ENCODING 20211
SWIDTH 900 0
DWIDTH 30 0
BBX 26 26 2 -1
BITMAP
00603000
00603000
00603000
06603000
0C603000
1C603000
38603000
60603000
C0603000
00603180
106F3780
186F3400
18603000
18603000
18603000
18603000
18603000
18603000
18603000
18603000
18603000
18603080
18603080
007E3FC0
007C3FC0
00300000
ENDCHAR
STARTCHAR 4EF5
ENCODING 20213
SWIDTH 900 0
DWIDTH 30 0
BBX 25 26 3 0
BITMAP
00180000
00180000
00300000
0633FE00
0C23FE00
18600000
30400000
6000C000
C000C000
8000C000
0000C000
1800C000
1800C000
187FFF80
187FFF80
1800C000
1800C000
1800C000
1800C000
1800C000
1800C000
1800C000
1800C000
1800C000
0000C000
0000C000
ENDCHAR
STARTCHAR 4EF6
ENCODING 20214
SWIDTH 900 0
DWIDTH 30 0
BBX 24 27 3 -1
BITMAP
0000C0
0000C0
0030C0
0030C0
0660C0
0E60C0
1CE0C0
38C7FE
70C7FE
E180C0
8100C0
0000C0
1800C0
1800C0
1800C0
18FFFF
18FFFF
1800C0
1800C0
1800C0
1800C0
1800C0
1800C0
1800C0
1800C0
0000C0
0000C0
ENDCHAR
STARTCHAR 4EF7
ENCODING 20215
SWIDTH 900 0
DWIDTH 30 0
BBX 24 29 3 -2
BITMAP
000080
0000C0
000180
000180
060300
0E0300
1C0600
380C00
701C00
E03808
80700E
006007
180001
180000
180000
180018
180C18
180C18
180C18
180C18
180C18
180818
181818
181818
181818
001018
003018
002018
000018
ENDCHAR
STARTCHAR 4EFB
ENCODING 20219
SWIDTH 900 0
DWIDTH 30 0
BBX 24 26 3 0
BITMAP
000008
0000F8
000FF8
001F00
060000
1C0180
380180
300180
600180
C00180
800180
000180
180180
187FFF
187FFF
180180
180180
180180
180180
180180
180180
180180
180000
180000
183FFE
003FFE
ENDCHAR
STARTCHAR 4EFD
ENCODING 20221
SWIDTH 900 0
DWIDTH 30 0
BBX 24 27 3 0
BITMAP
000180
0000C0
0000E0
000070
060038
0E0818
1C180C
383806
707003
C06001
80C000
008000
180000
180000
183FF8
183FFC
18000C
18000C
18040C
180C0C
180C0C
18180C
18180C
18300C
18303C
00201C
006000
ENDCHAR
STARTCHAR 4EFF
ENCODING 20223
SWIDTH 900 0
DWIDTH 30 0
BBX 24 27 3 -2
BITMAP
000080
000180
000080
060000
0E0000
1C7FFF
387FFF
700000
E00C00
800C00
000C00
180C00
180DFC
1809FC
18080C
18180C
18180C
18180C
18100C
18300C
18300C
18200C
18603C
18601C
004000
00C000
008000
ENDCHAR
STARTCHAR 4F01
ENCODING 20225
SWIDTH 900 0
DWIDTH 30 0
BBX 22 28 4 0
BITMAP
002000
006000
00C000
00C000
018000
030000
060FC0
0C03F8
180078
700000
E01800
801800
001800
0C1800
0C1800
0C1800
0C18F8
0C18F8
0C1800
0C1800
0C1800
0C1800
0C1800
0C1800
0C1800
000000
FFFFFC
FFFFFC
ENDCHAR
STARTCHAR 4F09
ENCODING 20233
SWIDTH 930 0
DWIDTH 31 0
BBX 25 26 3 -1
BITMAP
00030000
00030000
00030000
00000000
04000000
0CFFFC00
18FFFC00
30000000
60000000
C0000000
80180000
001BE000
181BF000
18183000
18183000
18183000
18183000
18103000
18303000
18303100
18203100
18603180
18603F80
18C01F80
19C00000
01800000
ENDCHAR
STARTCHAR 4F0A
ENCODING 20234
SWIDTH 900 0
DWIDTH 30 0
BBX 26 27 2 -3
BITMAP
003FFC00
003FFE00
00000600
06020600
0E030600
1C020600
38FFFFC0
70FFFFC0
C0060600
80060600
00060600
18040600
183FFE00
183FFC00
180C0000
180C0000
18080000
18180000
18180000
18180000
18100000
18300000
18300000
18200000
00200000
00600000
00400000
ENDCHAR
STARTCHAR 4F0D
ENCODING 20237
SWIDTH 900 0
DWIDTH 30 0
BBX 25 22 3 1
BITMAP
003FFF00
063FFF00
0C000000
1C030000
38030000
70030000
E0020000
80060000
00060000
183FFC00
183FFE00
18060600
18060600
18060600
18060600
18060600
180C0600
180C0600
180C0000
18000000
18FFFF80
18FFFF80
ENDCHAR
STARTCHAR 4F0E
ENCODING 20238
SWIDTH 900 0
DWIDTH 30 0
BBX 24 27 3 -1
BITMAP
000180
000180
000180
000180
060180
0E7FFE
1C7FFE
380180
600180
C00180
000180
180000
180000
183FF8
181FFC
180018
180018
180030
180670
1803E0
1801E0
1801F8
18031C
180607
181C00
003000
006000
ENDCHAR
STARTCHAR 4F0F
ENCODING 20239
SWIDTH 930 0
DWIDTH 31 0
BBX 25 26 3 -2
BITMAP
00018000
06018000
0E018C00
1C018C00
38010C00
70030C00
E0030000
80030000
00030000
18FFFF80
18FFFF80
18020000
18060000
18060000
18060000
18060000
18040000
180C3C00
180C1F00
180C0380
18080000
18080000
18180000
18180000
00100000
00100000
ENDCHAR
STARTCHAR 4F10
ENCODING 20240
SWIDTH 900 0
DWIDTH 30 0
BBX 24 26 3 -1
BITMAP
000400
000C00
000C00
000618
060618
0C0618
1C0610
380600
600300
C00300
80FFFE
00FFFE
180180
180180
180180
1800C0
1800C6
1800CE
180078
1800F0
1801F0
180730
183C19
18F00D
18C007
000003
ENDCHAR
STARTCHAR 4F11
ENCODING 20241
SWIDTH 930 0
DWIDTH 31 0
BBX 25 27 3 -1
BITMAP
00018000
00018000
00018000
06018000
0E018000
1C018000
38018000
70018000
E0018000
C07FFF00
007FFF00
18018000
18018000
18018000
18018C00
18018600
18318300
18318180
18618080
18418000
18018000
18018000
18018000
18018000
00018000
00018000
00018000
ENDCHAR
STARTCHAR 4F17
ENCODING 20247
SWIDTH 900 0
DWIDTH 30 0
BBX 22 30 4 -2
BITMAP
003000
003000
006000
00C000
01C000
038000
070780
0E01F8
1C0078
380000
E00000
C00000
060180
060180
040180
040180
0C0100
0C0300
0C0300
080300
09E300
18F600
180600
100670
300C38
200C1C
600800
401800
401000
001000
ENDCHAR
STARTCHAR 4F18
ENCODING 20248
SWIDTH 900 0
DWIDTH 30 0
BBX 26 28 2 -3
BITMAP
00030000
00030000
00030000
00030000
06030C00
0E030C00
1C030800
38030000
60030000
C0030000
007FFF80
187FFF80
18060000
18060000
18060000
18061800
18061800
18041800
180C1800
180C1800
180C1800
180C1880
18081880
18181FC0
00181FC0
00100000
00300000
00300000
ENDCHAR
STARTCHAR 4F19
ENCODING 20249
SWIDTH 870 0
DWIDTH 29 0
BBX 23 26 3 0
BITMAP
000180
000180
000180
060180
0E0180
1C0180
380180
700180
E00104
80611C
006318
183300
180300
180300
180200
180600
180600
180400
180430
180C1C
18080E
181802
181800
181000
003000
002000
ENDCHAR
STARTCHAR 4F1A
ENCODING 20250
SWIDTH 900 0
DWIDTH 30 0
BBX 22 28 4 -1
BITMAP
003000
007000
006000
00C000
01C000
038000
070200
0E07E0
1C01FC
38003C
600000
C3FE00
03FE00
000000
000000
000000
000000
7FFFF8
7FFFF8
000000
010000
030000
030180
0601C0
0600E0
0FF860
0FF830
07C000
ENDCHAR
STARTCHAR 4F1B
ENCODING 20251
SWIDTH 900 0
DWIDTH 30 0
BBX 24 23 3 1
BITMAP
003FFF
063FFF
0E0000
1C0000
383000
703000
E03004
80300C
00310C
1831D8
1830F8
183038
18306E
1830E3
1830C0
183180
183300
183200
183000
183000
183000
183FFF
001FFF
ENDCHAR
STARTCHAR 4F1E
ENCODING 20254
SWIDTH 900 0
DWIDTH 30 0
BBX 22 30 4 -2
BITMAP
002000
006000
006000
00C000
018000
038000
0707C0
0E01F8
1C0038
380000
603000
C03000
003000
003060
0C30C0
0E30C0
003000
003000
003000
FFFFF8
FFFFFC
003000
003000
003000
003000
003000
003000
003000
003000
003000
ENDCHAR
STARTCHAR 4F1F
ENCODING 20255
SWIDTH 900 0
DWIDTH 30 0
BBX 24 29 3 -2
BITMAP
000300
000300
000300
000300
063FFC
0E3FFC
1C0300
380300
700300
E00300
803FF8
003FF8
180300
180300
180300
187FFE
18FFFF
180303
180303
180303
180303
180303
18030F
180307
180300
000300
000300
000300
000300
ENDCHAR
STARTCHAR 4F20
ENCODING 20256
SWIDTH 900 0
DWIDTH 30 0
BBX 24 28 3 -1
BITMAP
000100
000100
000300
000300
0C3FFE
1C3FFE
180200
300600
600600
C00600
81FFFF
01FFFF
180C00
180C00
180C00
180C00
180FFE
180FFE
18000E
18000C
18001C
180038
180030
180060
180200
000380
0001E0
000030
ENDCHAR
STARTCHAR 4F22
ENCODING 20258
SWIDTH 900 0
DWIDTH 30 0
BBX 25 27 3 -2
BITMAP
003FFF00
003FFF00
00000000
06000000
0E001800
1C001800
38001800
70181800
E0181800
80181800
00181800
181FFF80
180FFF00
18001800
18001800
18001800
18061800
18061800
180C1800
180C1800
180C1800
18181800
18181800
18307800
00303800
00600000
00400000
ENDCHAR
STARTCHAR 4F24
ENCODING 20260
SWIDTH 900 0
DWIDTH 30 0
BBX 24 30 3 -4
BITMAP
001000
001000
003000
003000
006000
0663FF
0E63FF
1C4000
388000
700000
E00300
800300
000300
180300
183FFC
187FFE
180206
180606
180606
180606
180406
180C06
180C06
180C06
180806
181806
00181E
001006
003000
002000
ENDCHAR
STARTCHAR 4F25
ENCODING 20261
SWIDTH 930 0
DWIDTH 31 0
BBX 25 24 3 -1
BITMAP
000C0000
000C0000
060C0600
0E0C1C00
1C0C3800
380C7000
700CC000
E00C0000
800C0000
000C0000
187FFF80
187FFF80
180C0000
180C0000
180C0000
180C7000
180C3800
180C1E00
180C0700
180C0380
180C0000
180C0000
180F0000
000E0000
ENDCHAR
STARTCHAR 4F26
ENCODING 20262
SWIDTH 900 0
DWIDTH 30 0
BBX 25 26 3 1
BITMAP
00018000
00030000
00030000
06060000
0E0E0000
1C1C0000
38183000
70301C00
E0600F00
80C00300
00000000
18000000
18000000
18000000
18180000
18180E00
18183C00
1818F000
18180000
18180000
18180000
18180200
18180300
18180300
001FFF80
000FFF80
ENDCHAR
STARTCHAR 4F27
ENCODING 20263
SWIDTH 900 0
DWIDTH 30 0
BBX 26 28 2 0
BITMAP
0000C000
00018000
00018000
00030000
06060000
0E0E0000
1C1C3800
38380F00
70600780
E1C001C0
80000000
00000000
18000000
181FF800
181FFC00
18000C00
18000C00
18180C00
18180C00
18180C00
18183C00
18181800
18180000
18180100
18180180
00180180
001FFFC0
001FFFC0
ENDCHAR
STARTCHAR 4F2A
ENCODING 20266
SWIDTH 900 0
DWIDTH 30 0
BBX 24 28 3 -1
BITMAP
000300
000300
000300
006300
047300
0C1300
1C0300
380300
700300
E00200
807FFE
00FFFF
180603
180603
180403
180C03
180C03
180CC3
1818E3
181833
183003
183003
186003
186003
18C003
00800F
018006
030000
ENDCHAR
STARTCHAR 4F2B
ENCODING 20267
SWIDTH 900 0
DWIDTH 30 0
BBX 25 25 3 0
BITMAP
0000C000
0000C000
00000000
04000000
0E37FF80
1C37FF80
38300180
70300180
E0300180
C0000000
00000000
18000000
18000000
18000000
18000000
18000000
18000000
18000000
18000000
18000000
18000000
18000000
18000000
187FFF80
007FFF80
ENDCHAR
STARTCHAR 4F2F
ENCODING 20271
SWIDTH 900 0
DWIDTH 30 0
BBX 23 26 4 0
BITMAP
000040
0000C0
000180
000100
060000
0E0000
1C0000
381FFE
703FFE
E03006
803006
003006
183006
183006
183006
183006
1833F6
1833F6
183006
183006
183006
183006
183006
183006
183FFE
001FFE
ENDCHAR
STARTCHAR 4F30
ENCODING 20272
SWIDTH 900 0
DWIDTH 30 0
BBX 24 27 3 0
BITMAP
000180
000180
000180
000180
060180
0E0180
1C3FFF
383FFF
700180
E00180
C00180
000180
180180
180000
180000
180FF8
181FFC
18180C
18180C
18180C
18180C
18180C
18180C
18180C
18180C
001FFC
001FF8
ENDCHAR
STARTCHAR 4F32
ENCODING 20274
SWIDTH 900 0
DWIDTH 30 0
BBX 26 27 2 -3
BITMAP
00600000
0063FE00
00600300
06600300
0C600300
1C600300
38600300
7063FF00
C063FE00
80600000
00600000
18618000
18618000
18618180
18618380
18418F00
18419C00
18C18000
18C18000
18C18000
18C18000
18818100
19818100
19818180
0101FFC0
0100FFC0
03000000
ENDCHAR
STARTCHAR 4F34
ENCODING 20276
SWIDTH 900 0
DWIDTH 30 0
BBX 24 29 3 -2
BITMAP
0000C0
0000C0
0000C0
0000C0
0060C0
0460C6
0C30C6
1C00CC
3000C0
6000C0
C03FFC
007FFC
0000C0
1800C0
1800C0
1800C0
1800C0
1800C0
18FFFF
18FFFF
1800C0
1800C0
1800C0
1800C0
1800C0
1800C0
0000C0
0000C0
0000C0
ENDCHAR
STARTCHAR 4F36
ENCODING 20278
SWIDTH 900 0
DWIDTH 30 0
BBX 25 26 3 -2
BITMAP
0000C000
0000C000
00018000
04018000
0E030000
1C060000
38061800
700C0E00
E0180780
80300180
0060C000
1800C000
1800C000
18000000
18000000
181FFC00
181FFE00
18000600
18000C00
18000C00
18001800
18003000
18020000
18038000
0001E000
00007000
ENDCHAR
STARTCHAR 4F38
ENCODING 20280
SWIDTH 900 0
DWIDTH 30 0
BBX 23 29 4 -2
BITMAP
000180
000180
000180
000180
060180
0C0180
1C0180
387FFC
70FFFE
C0C186
80C186
00C186
18C186
18CFF6
18CFF6
18C186
18C186
18C186
18C186
18FFFE
187FFC
180180
180180
180180
180180
000180
000180
000180
000180
ENDCHAR
STARTCHAR 4F3A
ENCODING 20282
SWIDTH 900 0
DWIDTH 30 0
BBX 24 25 3 -1
BITMAP
007FFE
067FFF
0E0003
1C0003
380003
700003
E07FE3
C03FE3
000003
180003
180003
181F83
183FC3
1830C3
1830C3
1830C3
1830C3
1830C3
183FC3
181F83
180003
180003
000003
00001F
000006
ENDCHAR
STARTCHAR 4F3C
ENCODING 20284
SWIDTH 900 0
DWIDTH 30 0
BBX 26 27 2 -2
BITMAP
00001800
00001800
00001800
06601800
0C601800
1C621800
38671800
70639800
E0603800
80603000
00603000
18603000
18603000
18603000
18603000
18602000
18606000
18606400
18606700
187C41C0
18784000
1800C000
1800C000
1800C000
00008000
00008000
00018000
ENDCHAR
STARTCHAR 4F3D
ENCODING 20285
SWIDTH 900 0
DWIDTH 30 0
BBX 26 27 2 -2
BITMAP
00600000
00600000
00600000
06600000
0E600000
1C600000
38600000
70600000
C1FE0000
81FF0000
00630000
18631F80
18633FC0
186330C0
186330C0
186330C0
184330C0
184330C0
18C330C0
18C330C0
18C33FC0
18C31F80
18830000
199F0000
018F0000
01000000
03000000
ENDCHAR
STARTCHAR 4F43
ENCODING 20291
SWIDTH 900 0
DWIDTH 30 0
BBX 24 21 3 2
BITMAP
043FFE
0E7FFF
1C6003
386003
7060C3
C060C3
0060C3
1860C3
1860C3
1867FF
1867FF
1860C3
1860C3
1860C3
1860C3
1860C3
1860C3
186003
186003
187FFF
183FFE
ENDCHAR
STARTCHAR 4F46
ENCODING 20294
SWIDTH 900 0
DWIDTH 30 0
BBX 25 22 3 1
BITMAP
001FFE00
063FFF00
1C300300
38300300
70300300
E0300300
C033F300
0033F300
18300300
18300300
18300300
18300300
18300300
183FFF00
181FFE00
18000000
18000000
18000000
18000000
18000000
187FFF80
007FFF80
ENDCHAR
STARTCHAR 4F4D
ENCODING 20301
SWIDTH 900 0
DWIDTH 30 0
BBX 25 25 3 1
BITMAP
0000C000
0000C000
0000C000
00000000
06000000
0E1FFF00
1C1FFF00
38000000
70000000
E0000000
80000000
00000000
18000000
18000600
18180E00
181C1C00
18061800
18000000
18000000
18000000
18000000
18000000
18000000
187FFF80
187FFF80
ENDCHAR
STARTCHAR 4F4E
ENCODING 20302
SWIDTH 870 0
DWIDTH 29 0
BBX 25 26 2 -2
BITMAP
00000200
0001FE00
000FE000
06000000
0C000000
18302000
30306000
60302000
C0302000
00303000
00303000
1833FF00
1833FF00
18301800
18301800
18301800
18301800
18300C00
183C0C00
18380C00
18000600
18000600
18000380
18000380
00038180
0001C000
ENDCHAR
STARTCHAR 4F4F
ENCODING 20303
SWIDTH 900 0
DWIDTH 30 0
BBX 25 26 3 0
BITMAP
0000C000
0000C000
0000C000
00000000
06000000
0C7FFF00
1C7FFF00
38000000
70000000
E000C000
C000C000
0000C000
1800C000
1800C000
183FFE00
183FFE00
1800C000
1800C000
1800C000
1800C000
1800C000
1800C000
1800C000
18000000
187FFF80
007FFF80
ENDCHAR
STARTCHAR 4F50
ENCODING 20304
SWIDTH 900 0
DWIDTH 30 0
BBX 25 26 3 1
BITMAP
00060000
00060000
00060000
00060000
06060000
0C3FFF00
1C7FFF00
380E0000
700C0000
E00C0000
800C0000
00180000
18180000
1811FE00
1831FE00
18200000
18600000
18C06000
18006000
18006000
18006000
18006000
18006000
18000000
183FFF80
003FFF80
ENDCHAR
STARTCHAR 4F51
ENCODING 20305
SWIDTH 900 0
DWIDTH 30 0
BBX 24 26 3 0
BITMAP
000200
000300
000300
000300
060600
0C0600
387FFF
707FFF
600C00
C00C00
000C00
181800
181800
181800
183000
1821FC
1863FE
18C306
18C306
180306
180306
180306
180306
180306
0003FE
0003FE
ENDCHAR
STARTCHAR 4F53
ENCODING 20307
SWIDTH 900 0
DWIDTH 30 0
BBX 26 27 2 -1
BITMAP
00018000
00018000
00018000
00018000
06018000
0E018000
1C018000
38018000
70018000
E07FFF00
807FFF00
00018000
18018000
18018600
18018700
18018380
18318180
183180C0
18618000
1867F800
1847F800
18018000
18018000
18018000
18018000
00018000
00018000
ENDCHAR
STARTCHAR 4F55
ENCODING 20309
SWIDTH 900 0
DWIDTH 30 0
BBX 24 25 3 -3
BITMAP
007FFF
067FFF
0C0000
380000
70000C
E0000C
C0000C
003E0C
187F0C
18630C
18630C
18630C
18630C
18630C
18630C
187F0C
187F0C
18000C
18000C
18000C
18000C
00000C
00000C
00003C
00001C
ENDCHAR
STARTCHAR 4F57
ENCODING 20311
SWIDTH 900 0
DWIDTH 30 0
BBX 25 28 3 -1
BITMAP
0000C000
0000C000
0000C000
00004000
04600000
0E6FFF00
1C67FF80
38600180
70600180
C0600180
80000000
00000000
18000000
18000000
180C0000
180C0000
180C0600
180C3E00
180C7000
180C0000
180C0000
180C0000
180C0000
180C0200
180C0200
000C0300
000FFF80
000FFF80
ENDCHAR
STARTCHAR 4F58
ENCODING 20312
SWIDTH 930 0
DWIDTH 31 0
BBX 23 30 4 -2
BITMAP
003000
006000
006000
00C000
018000
030000
0603C0
0C01F8
18003C
700000
C3FE00
83FE00
000000
000000
000000
000000
000000
7FFFFC
7FFFFC
000000
000000
001800
001800
001810
38183C
70181E
E01800
801800
00F800
003800
ENDCHAR
STARTCHAR 4F59
ENCODING 20313
SWIDTH 900 0
DWIDTH 30 0
BBX 23 30 3 -2
BITMAP
001800
003800
003000
006000
00E000
01C000
0383E0
0700FC
0E003C
180000
700000
41FF00
01FF00
000000
000000
001800
001800
001800
3FFFFE
3FFFFE
001800
001800
001800
001800
381838
70181E
C01806
001800
00F800
003800
ENDCHAR
STARTCHAR 4F5A
ENCODING 20314
SWIDTH 900 0
DWIDTH 30 0
BBX 26 28 2 -3
BITMAP
00004000
00006000
00006000
00086000
060C6000
0E186000
1C1BFF00
3833FF00
70304000
E020C000
8000C000
0000C000
1800C000
1800C000
18018000
187FFFC0
187FFFC0
18018000
18030000
18030000
18060000
18061E00
180C0F80
180C01C0
18180000
00300000
00300000
00600000
ENDCHAR
STARTCHAR 4F5B
ENCODING 20315
SWIDTH 900 0
DWIDTH 30 0
BBX 26 30 2 -2
BITMAP
00001800
00001800
00001800
00019800
00019800
00019800
067FFF80
0E3FFF80
3C019980
70019980
E0019980
801FFF80
003FFF80
18311800
18331800
18331800
18331800
183FFF80
183FFFC0
180618C0
180618C0
180618C0
180C18C0
180C1BC0
180819C0
18181800
00301800
00301800
00601800
00401800
ENDCHAR
STARTCHAR 4F5C
ENCODING 20316
SWIDTH 900 0
DWIDTH 30 0
BBX 25 28 3 -1
BITMAP
00180000
00180000
00300000
06300000
0E73FF80
1C63FF80
38600000
70C00000
C0800000
80030000
00030000
18030000
18033F00
18033F00
18030000
18030000
18030000
18030000
18033F00
18033F00
18030000
18030000
18030000
18030000
00030000
00030000
00030000
00030000
ENDCHAR
STARTCHAR 4F5D
ENCODING 20317
SWIDTH 900 0
DWIDTH 30 0
BBX 24 26 3 0
BITMAP
001800
001800
003800
003000
067000
0C63FE
18C3FF
38C003
700003
C00003
800003
000003
183F83
187F83
186183
186183
186183
186183
187F83
183F03
180003
180003
180003
180003
18000F
000006
ENDCHAR
STARTCHAR 4F5E
ENCODING 20318
SWIDTH 930 0
DWIDTH 31 0
BBX 25 27 3 -2
BITMAP
0007FC00
0007FC00
00000000
06000000
0E000000
1C000000
383FFF00
703FFF00
C0000000
80000000
00000000
18018000
18018000
187FFF80
187FFF80
18060000
18061800
18061800
180F3800
1807F000
1800F000
1800FC00
1801CF00
18038300
000E0000
00380000
00200000
ENDCHAR
STARTCHAR 4F5F
ENCODING 20319
SWIDTH 930 0
DWIDTH 31 0
BBX 25 28 3 -2
BITMAP
00020000
00060000
00060000
000C0000
061DFC00
0C19FC00
1C300C00
38001C00
70001800
E0073000
8007F000
0001E000
1801F800
18079E00
180E0380
18780080
18600000
18000000
1800C000
1800F000
18003000
18000000
18000000
18000000
18000000
00038000
0001E000
00007800
ENDCHAR
STARTCHAR 4F60
ENCODING 20320
SWIDTH 900 0
DWIDTH 30 0
BBX 25 27 3 -2
BITMAP
00080000
000C0000
06180000
0C300000
1C700000
3861FF00
70C1FF00
E0800700
C0000600
00000C00
18000800
18000000
18018000
18018000
18018000
18018000
18018200
18418300
18C18180
19818000
18018000
18018000
18018000
18018000
18018000
180F8000
00038000
ENDCHAR
STARTCHAR 4F63
ENCODING 20323
SWIDTH 900 0
DWIDTH 30 0
BBX 24 25 3 -3
BITMAP
006FFF
066FFF
0C6003
186003
3060C3
6060C3
C060C3
8060C3
006FFB
186FF3
1860C3
1860C3
1860C3
186FF3
186FF3
1860C3
1860C3
1860C3
1860C3
1840C3
18400F
18C00F
00C000
008000
008000
ENDCHAR
STARTCHAR 4F64
ENCODING 20324
SWIDTH 900 0
DWIDTH 30 0
BBX 25 25 3 -1
BITMAP
003FFF00
003FFF00
06000000
0C000000
18000000
70000000
E0180000
80180000
00180000
18180000
1819F800
1819FC00
18180C00
18180C00
18180C00
18188C00
1818CC00
18184C00
18180C00
18180C00
18180D00
18180D00
001F8D00
001F8F80
001E0F80
ENDCHAR
STARTCHAR 4F65
ENCODING 20325
SWIDTH 900 0
DWIDTH 30 0
BBX 22 28 4 0
BITMAP
006000
006000
00C000
00C000
018000
030000
0607E0
0C01FC
18003C
300000
E00000
800000
07FF80
07FF80
000000
000000
000000
00C000
006000
006060
0000C0
3801C0
180180
000000
000000
000000
7FFFF8
7FFFF8
ENDCHAR
STARTCHAR 4F67
ENCODING 20327
SWIDTH 900 0
DWIDTH 30 0
BBX 25 28 3 -2
BITMAP
00030000
00030000
00030000
04037E00
0E037E00
1C030000
38030000
38030000
70030000
E0030000
80000000
003FFF80
183FFF80
18000000
18030000
18030000
18030000
18030000
18033C00
18030F00
18030000
18030000
18030000
18030000
18030000
00030000
00030000
00030000
ENDCHAR
STARTCHAR 4F69
ENCODING 20329
SWIDTH 900 0
DWIDTH 30 0
BBX 27 26 2 -2
BITMAP
007FFE00
00FFFF00
00000300
06C00300
0CC00300
38DFFB00
70DFFB00
E0C00300
C0C18300
00C18300
00C18300
18CFFB00
18DFFB00
18D99B00
18D99B00
18D99B00
18D99B00
18999B00
18999B00
19999B00
1999B980
19818180
198181E0
190181E0
030180C0
03018000
ENDCHAR
STARTCHAR 4F6C
ENCODING 20332
SWIDTH 900 0
DWIDTH 30 0
BBX 25 28 3 -1
BITMAP
00018000
00018000
00018000
00018000
003FF800
0E3FF800
1C018600
38018600
70018C00
E0001800
C0FFFF80
00FFFF80
1800C000
18038000
18070000
180E0000
18380000
18700C00
19C03C00
190C7000
180C4000
180C0000
180C0000
180C0000
180C0200
000C0200
000FFF00
0007FF00
ENDCHAR
STARTCHAR 4F6F
ENCODING 20335
SWIDTH 900 0
DWIDTH 30 0
BBX 24 27 3 0
BITMAP
001830
001C30
000460
060000
0E0000
1C7FFC
387FFC
700000
E00000
C00180
000180
181FF0
181FF0
180180
180180
180180
180180
18FFFF
18FFFF
180180
180180
180180
180180
180180
000180
000180
000180
ENDCHAR
STARTCHAR 4F70
ENCODING 20336
SWIDTH 900 0
DWIDTH 30 0
BBX 24 25 3 -1
BITMAP
003FFF
003FFF
060000
1C0040
380060
7000C0
E00080
C00000
000000
180000
180FFC
181FFE
181806
181806
181806
181806
1819F6
1819F6
181806
181806
181806
181806
001806
001FFE
000FFC
ENDCHAR
STARTCHAR 4F73
ENCODING 20339
SWIDTH 900 0
DWIDTH 30 0
BBX 24 27 3 0
BITMAP
000180
000180
000180
000180
040180
0E1FF8
1C1FF8
380180
700180
E00180
800000
000000
187FFE
187FFE
180000
180180
180180
180180
181FFC
181FF8
180180
180180
180180
180180
180000
007FFF
007FFF
ENDCHAR
STARTCHAR 4F74
ENCODING 20340
SWIDTH 900 0
DWIDTH 30 0
BBX 24 28 3 -2
BITMAP
00FFFF
00FFFF
000000
060000
0E180C
1C180C
38180C
701BEC
E01BEC
80180C
00180C
18180C
181BEC
181BEC
18180C
18180C
18180C
18180C
18000D
180FFF
18FFCC
18000C
18000C
18000C
00000C
00000C
00000C
00000C
ENDCHAR
STARTCHAR 4F76
ENCODING 20342
SWIDTH 900 0
DWIDTH 30 0
BBX 25 27 3 0
BITMAP
0000C000
0000C000
0000C000
0000C000
067FFF80
0E7FFF80
1C00C000
3800C000
7000C000
E0000000
80000000
001FFC00
181FFC00
18000000
18000000
18000000
18000000
180FF800
181FFC00
18180C00
18180C00
18180C00
18180C00
18180C00
18180C00
001FFC00
001FFC00
ENDCHAR
STARTCHAR 4F7B
ENCODING 20347
SWIDTH 900 0
DWIDTH 30 0
BBX 25 27 3 -1
BITMAP
00060000
00060000
00060000
06066000
0E066000
1C066000
38066100
70C66700
E0E66600
C0766000
00066000
18046000
18046000
18046F80
183C6380
18EC6000
19CC6000
180C6000
180C6100
18086100
18187F80
18183F80
18180000
18100000
00100000
00300000
00300000
ENDCHAR
STARTCHAR 4F7C
ENCODING 20348
SWIDTH 900 0
DWIDTH 30 0
BBX 23 29 4 -3
BITMAP
000180
000180
000180
000080
000000
0E7FFE
1C7FFE
1C0000
380000
700000
E00C00
801C18
00301E
180000
180000
180010
180030
180C30
180760
1803E0
1801C0
1800E0
1801B0
180318
18060E
180C02
001800
003000
00E000
ENDCHAR
STARTCHAR 4F7E
ENCODING 20350
SWIDTH 900 0
DWIDTH 30 0
BBX 25 30 3 -3
BITMAP
0000C000
0000E000
00006000
00007000
00003800
06181800
0E180C00
1C380E00
38700600
70600300
E0C00180
80800080
01800000
1833FC00
1833FE00
18300600
18300600
18300600
1833E600
1833E600
18300600
18300600
1833E600
1833E600
18300600
18300600
00300600
00300600
00303E00
00300E00
ENDCHAR
STARTCHAR 4F7F
ENCODING 20351
SWIDTH 900 0
DWIDTH 30 0
BBX 24 27 3 0
BITMAP
0000C0
0000C0
0000C0
067FFF
0E7FFF
1C00C0
3800C0
7000C0
E01FFC
803FFE
003086
183086
183186
183186
183FFE
181FFC
180100
180300
186300
183E00
180FC0
1804F8
180C0F
181800
001800
003000
002000
ENDCHAR
STARTCHAR 4F83
ENCODING 20355
SWIDTH 900 0
DWIDTH 30 0
BBX 25 28 3 -3
BITMAP
007FF800
007FF800
00601800
00601800
06601800
0E601800
1C601800
38601800
60601800
C07FF800
007FF800
00000000
18000000
18000000
18631800
18631800
18631800
18631800
18631800
18431800
18431800
18C31800
18C31900
18C31980
18831F80
01800F80
01800000
01000000
ENDCHAR
STARTCHAR 4F84
ENCODING 20356
SWIDTH 900 0
DWIDTH 30 0
BBX 24 25 3 0
BITMAP
007FFE
007FFE
060000
0C0400
1C0C00
380C10
701838
E0181C
80180C
003FC6
183F00
181000
180000
180180
180180
180180
181FF8
181FF8
180180
180180
180180
180180
180000
003FFF
003FFF
ENDCHAR
STARTCHAR 4F88
ENCODING 20360
SWIDTH 900 0
DWIDTH 30 0
BBX 23 28 4 -3
BITMAP
000C00
001800
001800
0033F8
0621F8
0C6018
1C0030
381C60
700C60
C000C0
800180
000700
180E00
181800
183000
180400
180C00
1818FE
1818FE
18300E
18601C
184718
180130
180060
1800C0
000380
000700
000C00
ENDCHAR
STARTCHAR 4F89
ENCODING 20361
SWIDTH 900 0
DWIDTH 30 0
BBX 25 29 3 -1
BITMAP
00018000
00018000
00038000
00030000
007FFE00
067FFE00
1C0E0000
380C3000
70183C00
60380F00
C0700380
00EFF000
198FF000
18000000
18000000
187FFE00
187FFE00
18000000
18000000
180C0000
180C0000
180FFC00
1807FC00
18000C00
18000C00
00000C00
00000C00
00003C00
00000C00
ENDCHAR
STARTCHAR 4F8B
ENCODING 20363
SWIDTH 900 0
DWIDTH 30 0
BBX 26 27 2 -2
BITMAP
000000C0
00FFC0C0
00FFC0C0
060000C0
0E0000C0
1C1800C0
383000C0
703018C0
E06018C0
806018C0
00CF98C0
188F98C0
180198C0
180198C0
180198C0
180318C0
187318C0
181B18C0
180300C0
180600C0
180600C0
180C00C0
180C00C0
181800C0
001800C0
003007C0
006001C0
ENDCHAR
STARTCHAR 4F8D
ENCODING 20365
SWIDTH 900 0
DWIDTH 30 0
BBX 25 29 3 -3
BITMAP
0000C000
0000C000
0000C000
0000C000
061FFE00
0E1FFE00
1C00C000
3800C000
7000C000
E000C000
803FFF80
003FFF80
18000000
18001800
18001800
18001800
18001800
183FFF80
183FFF80
18001800
18001800
18041800
18071800
18031800
18001800
00001800
00001800
00007800
00003800
ENDCHAR
STARTCHAR 4F8F
ENCODING 20367
SWIDTH 900 0
DWIDTH 30 0
BBX 25 29 3 -1
BITMAP
00006000
00006000
00006000
00186000
00186000
06386000
0E33FE00
1C33FE00
38206000
70206000
E0006000
80006000
00006000
18006000
187FFF80
187FFF80
18006000
18006000
18006000
180C6000
181C6000
18186200
18306780
18006180
18006000
18006000
00006000
00006000
00006000
ENDCHAR
STARTCHAR 4F91
ENCODING 20369
SWIDTH 900 0
DWIDTH 30 0
BBX 25 28 3 -1
BITMAP
00008000
00018000
00018000
00010000
063FFF80
0E3FFF80
1C060000
38040000
700C0000
E0180000
80300000
00200000
1841FE00
180DFF00
180C0300
180C0300
180DF300
180DF300
180C0300
180C0300
180DF300
180DF300
180C0300
180C0300
180C0300
000C0300
000C1F00
000C0700
ENDCHAR
STARTCHAR 4F94
ENCODING 20372
SWIDTH 900 0
DWIDTH 30 0
BBX 25 30 3 -1
BITMAP
00030000
00030000
00060000
00060C00
000E0600
060C0300
0E0FE380
1C1FC080
380E0000
70000000
E0003000
80063000
000C3000
180C3000
181DFE00
1819FE00
18103000
18003000
18003000
18003000
183FFF80
183FFF80
18003000
18003000
18003000
18003000
00003000
00003000
00003000
00003000
ENDCHAR
STARTCHAR 4F97
ENCODING 20375
SWIDTH 900 0
DWIDTH 30 0
BBX 25 26 3 -2
BITMAP
0037FF00
0037FF80
06300180
0E300180
1C300180
3833F980
7033F980
E0300180
80300180
00300180
18300180
1831F180
1833F980
18331980
18331980
18331980
18331980
18331980
1833F980
1831F180
18300180
18300180
18300180
00300180
00300780
00000380
ENDCHAR
STARTCHAR 4F9B
ENCODING 20379
SWIDTH 900 0
DWIDTH 30 0
BBX 24 26 3 -1
BITMAP
000018
000C18
000C18
060C18
0E0C18
1C0C18
387FFF
707FFF
E00C18
800C18
000C18
180C18
180C18
180000
180000
18FFFF
18FFFF
180000
180000
180000
180000
18001C
18001F
180C00
001800
003000
ENDCHAR
STARTCHAR 4F9D
ENCODING 20381
SWIDTH 930 0
DWIDTH 31 0
BBX 25 27 3 -2
BITMAP
0000C000
0000C000
0000C000
00000000
063FFF00
0C3FFF00
18000000
30000000
60000000
C0060000
800E0000
000C0000
181C0000
18380300
18300700
18600400
18404000
180C6000
180C7000
180C1800
180C0E00
180C0700
180C0380
180C0080
180C0000
000F8000
000F0000
ENDCHAR
STARTCHAR 4FA0
ENCODING 20384
SWIDTH 900 0
DWIDTH 30 0
BBX 24 28 3 -3
BITMAP
000080
000180
000180
000180
060180
0E0180
1C7FFE
387FFE
700100
E00100
806300
00730C
180318
180310
180300
18FFFF
18FFFF
180600
180600
180400
180C00
180C38
18081E
18180F
181000
003000
002000
006000
ENDCHAR
STARTCHAR 4FA3
ENCODING 20387
SWIDTH 900 0
DWIDTH 30 0
BBX 24 26 3 0
BITMAP
000FFC
001FFE
001806
061806
0E1806
1C1806
381806
701806
E01FFE
801FFC
000000
100000
180000
180000
183FFE
187FFF
186003
186003
186003
186003
186003
186003
186003
186003
007FFF
007FFF
ENDCHAR
STARTCHAR 4FA5
ENCODING 20389
SWIDTH 900 0
DWIDTH 30 0
BBX 26 29 2 -3
BITMAP
00020000
00030000
00030000
00037E00
000FF800
067F8000
0E00CC00
1C007C00
3800F000
6003F900
C0071900
800C1F00
00000F00
18000600
18000000
187FFF80
187FFF80
18000000
18000000
18001800
180C1800
180C1800
18081800
18181900
18181980
18101FC0
00301FC0
00200000
00600000
ENDCHAR
STARTCHAR 4FA6
ENCODING 20390
SWIDTH 930 0
DWIDTH 31 0
BBX 25 30 3 -2
BITMAP
00018000
00018000
00018000
00018000
0001BF80
0001BF80
0E018000
1C018000
38018000
70000000
E01FF800
803FFC00
00300C00
18300C00
18300C00
18318C00
18318C00
18318C00
18318C00
18318C00
18318C00
18030000
18030000
18030000
18063800
180E0E00
000C0300
00380000
00700000
00400000
ENDCHAR
STARTCHAR 4FA7
ENCODING 20391
SWIDTH 900 0
DWIDTH 30 0
BBX 26 26 2 -2
BITMAP
000000C0
000000C0
060000C0
0E7FC0C0
1CFFC0C0
38C0C0C0
60C0C0C0
C0CCCCC0
00CCCCC0
00CCCCC0
18CCCCC0
18CCCCC0
18CCCCC0
18CCCCC0
18CCCCC0
18D8CCC0
18D8CCC0
181800C0
181800C0
183180C0
1831E0C0
186070C0
186000C0
00C000C0
008007C0
010001C0
ENDCHAR
STARTCHAR 4FA8
ENCODING 20392
SWIDTH 900 0
DWIDTH 30 0
BBX 25 28 3 -2
BITMAP
00001C00
0003FC00
000FE000
00000000
06000000
0E00C000
1C00C000
38018000
70018000
E07FFF80
C07FFF80
00060000
180C0C00
181C0F00
18180180
18300000
18600000
18000000
18000C00
18060C00
180C0C00
180C0C00
180C0C00
18180C00
18180C00
00300C00
00300C00
00600C00
ENDCHAR
STARTCHAR 4FA9
ENCODING 20393
SWIDTH 930 0
DWIDTH 31 0
BBX 26 28 3 -1
BITMAP
0000C000
00018000
00018000
00030000
06060000
0E0E1C00
1C1C0700
383803C0
70700080
E0400000
8003F800
0003F800
18000000
18000000
18000000
18000000
183FFF00
183FFF00
18000000
18000000
18020000
18070000
18060400
180E0600
180C0300
001DF180
001FE000
001F0000
ENDCHAR
STARTCHAR 4FAA
ENCODING 20394
SWIDTH 900 0
DWIDTH 30 0
BBX 24 29 3 -2
BITMAP
0000C0
0000C0
0000C0
000000
007FFF
0E7FFF
1C0000
380008
700018
E00030
800770
0003E0
1801F0
1803BC
180E0F
181C01
187000
18400C
18000C
180C0C
180C0C
180C0C
18180C
18180C
18180C
00300C
00600C
00600C
00000C
ENDCHAR
STARTCHAR 4FAC
ENCODING 20396
SWIDTH 900 0
DWIDTH 30 0
BBX 24 27 3 -1
BITMAP
000080
000180
000180
000180
046180
0E6FFE
1C67FF
386303
706303
C06603
800600
000400
180C00
180803
181007
183006
18600C
18CC60
188C30
180C18
180C0C
180C06
180C03
180C00
180C00
000F80
000F00
ENDCHAR
STARTCHAR 4FAE
ENCODING 20398
SWIDTH 900 0
DWIDTH 30 0
BBX 25 29 3 -1
BITMAP
00180000
00180000
00380000
0071FE00
0461FE00
0C400000
1C000000
38000000
700FFC00
E01FFC00
C0180C00
0018CC00
1818CC00
1818CC00
18180C00
18FFFF80
18FFFF80
18180C00
1818CC00
1818CC00
1818CC00
181FFF00
180FFF80
18000C00
18000C00
00000C00
00000C00
00003C00
00000C00
ENDCHAR
STARTCHAR 4FAF
ENCODING 20399
SWIDTH 930 0
DWIDTH 31 0
BBX 25 28 3 -3
BITMAP
000FF000
000FF800
00001800
00001800
06001800
0E000000
1C7FFF80
307FFF80
60000000
C0080000
000C0000
1019FE00
1819FE00
18100000
18300000
1820C000
1800C000
18008000
187FFF80
187FFF80
18018000
18030000
18031800
18021F00
18060380
000C0000
000C0000
00180000
ENDCHAR
STARTCHAR 4FB5
ENCODING 20405
SWIDTH 900 0
DWIDTH 30 0
BBX 24 29 3 -2
BITMAP
001FF8
001FFC
00000C
00000C
000FEC
060FEC
0C000C
38000C
701FFC
E01FF8
C00000
006FFE
186FFF
186003
186003
186003
186003
181FF8
181FFC
180018
180618
180730
1801E0
1800F0
1801DC
000386
000E00
003C00
003000
ENDCHAR
STARTCHAR 4FBF
ENCODING 20415
SWIDTH 900 0
DWIDTH 30 0
BBX 24 28 3 -3
BITMAP
007FFF
007FFF
000000
0600C0
1C00C0
381FFC
703FFE
6030C6
C030C6
0030C6
0033F6
1833F6
183086
183186
183FFE
181FFE
180100
180100
180300
181F00
180F00
1807C0
180CF0
180C1C
001806
003000
007000
006000
ENDCHAR
STARTCHAR 4FC3
ENCODING 20419
SWIDTH 930 0
DWIDTH 31 0
BBX 25 25 3 -1
BITMAP
000FF800
001FFC00
06180C00
0E180C00
1C180C00
38180C00
70180C00
E0180C00
C01FFC00
001FFC00
18000000
18000000
1800C000
1800C000
1800C000
1800DE00
1830DE00
1830C000
1830C000
1830C000
1860C000
18640000
18670000
1843FF00
00C0FF80
ENDCHAR
STARTCHAR 4FC4
ENCODING 20420
SWIDTH 900 0
DWIDTH 30 0
BBX 25 26 3 0
BITMAP
00073000
003F3000
00FE3300
04003300
0C003300
1C003200
380C3000
600C3000
C0FFFE00
00FFFE00
000C3000
180C3000
180C3000
180F3180
180F3380
183C1700
18FC1C00
18EC3800
180C7800
180C1800
180C1800
180C0C00
187C0C00
181C0680
00000780
00000300
ENDCHAR
STARTCHAR 4FC5
ENCODING 20421
SWIDTH 900 0
DWIDTH 30 0
BBX 23 27 3 -2
BITMAP
000180
000180
000198
00018C
060186
0E0180
1C0180
380180
707FFE
C07FFE
000180
180180
180180
18318E
18398C
181980
180180
180180
180198
181D8C
183986
186182
180180
180180
180180
000780
000380
ENDCHAR
STARTCHAR 4FCA
ENCODING 20426
SWIDTH 870 0
DWIDTH 29 0
BBX 25 29 2 -2
BITMAP
00020000
00060000
00060000
000C0000
000C1800
06180C00
0C1FCC00
1C1F0600
38000200
70000000
C0000000
800C0000
001C1800
18181C00
18000C00
18000200
18000000
180C0000
180DF800
1819F800
18101800
18303800
18013000
1801E000
1800F000
1801FC00
00038F00
000E0380
001C0000
ENDCHAR
STARTCHAR 4FCE
ENCODING 20430
SWIDTH 930 0
DWIDTH 31 0
BBX 27 26 2 1
BITMAP
02000000
06000000
0603FC00
0407FE00
0C060600
0C060600
18060600
19C60600
30E60600
6006F600
4006F600
00060600
00060600
00060600
00060600
0C060600
0C06F600
1806F600
18060600
11860600
31C60600
20060600
60060600
C0020400
803FFFE0
003FFFE0
ENDCHAR
STARTCHAR 4FCF
ENCODING 20431
SWIDTH 900 0
DWIDTH 30 0
BBX 24 29 3 -2
BITMAP
0000C0
0000C0
0000C3
0000C7
0060C6
0630C0
0C00C0
1C0000
380000
7037FF
E037FF
803003
003003
183003
1833F3
1833F3
183003
183003
183003
1833F3
1833F3
183003
183003
183003
183003
183003
003003
00300F
003007
ENDCHAR
STARTCHAR 4FD0
ENCODING 20432
SWIDTH 900 0
DWIDTH 30 0
BBX 27 26 2 -1
BITMAP
00000060
00078060
003F8060
0E7C0060
1C000060
38000060
700C0060
E00C0C60
800C0C60
000C0C60
180C0C60
18FF8C60
18FF8C60
180C0C60
180C0C60
180C0C60
180CCC60
180CC060
18CC6060
18CC0060
198C0060
180C0060
180C0060
000C01E0
000C00C0
000C0000
ENDCHAR
STARTCHAR 4FD1
ENCODING 20433
SWIDTH 900 0
DWIDTH 30 0
BBX 24 28 3 -3
BITMAP
001FF8
001FF8
000018
000030
060630
0E0780
1C01C0
380000
704FFE
C06FFF
806003
006003
1860C3
1860C3
1867FB
1867FB
1860C3
1860C3
1860C3
1867FB
1867FB
1860C3
1860C3
1860C3
1860C3
006003
006007
006003
ENDCHAR
STARTCHAR 4FD7
ENCODING 20439
SWIDTH 870 0
DWIDTH 29 0
BBX 25 27 2 -1
BITMAP
00000800
00000C00
00080700
00180100
06380000
0E300000
1C000000
38000000
70000000
E0018000
80018000
00030000
18071800
18060F00
180C0180
18180000
18700000
18400000
1803F800
1807FC00
18060C00
18060C00
18060C00
18060C00
18060C00
0007FC00
0007FC00
ENDCHAR
STARTCHAR 4FD8
ENCODING 20440
SWIDTH 900 0
DWIDTH 30 0
BBX 24 28 3 -2
BITMAP
00007C
001FFC
007F80
000000
060000
0C0186
1C398C
38188C
700000
E00000
800000
000000
180FF8
180FF8
180030
180060
1800C0
1800C0
1800C0
187FFF
187FFF
1800C0
1800C0
1800C0
1800C0
0000C0
0003C0
0001C0
ENDCHAR
STARTCHAR 4FDA
ENCODING 20442
SWIDTH 900 0
DWIDTH 30 0
BBX 24 25 3 0
BITMAP
001FFC
003FFE
0430C6
0E30C6
1C30C6
3837F6
7037F6
E030C6
C030C6
0030C6
003FFE
181FFC
1800C0
1800C0
1800C0
1800C0
183FFE
183FFC
1800C0
1800C0
1800C0
1800C0
180000
18FFFF
00FFFF
ENDCHAR
STARTCHAR 4FDC
ENCODING 20444
SWIDTH 900 0
DWIDTH 30 0
BBX 24 29 3 -1
BITMAP
000180
000180
000180
000180
001FFC
063FFC
0E318C
3C33EC
3833EC
60318C
C03FFC
001FFC
000000
180000
187FFF
187FFF
180000
180600
180600
180600
1807FC
1803FC
18000C
18000C
18000C
18000C
00000C
00003C
00000C
ENDCHAR
STARTCHAR 4FDD
ENCODING 20445
SWIDTH 900 0
DWIDTH 30 0
BBX 26 27 2 -2
BITMAP
001FFC00
001FFC00
00180C00
06180C00
0E180C00
1C180C00
38180C00
70180C00
E01FFC00
800FF800
00000000
1800C000
1800C000
1800C000
1800C000
187FFF80
187FFF80
1800C000
1800C400
1800C780
1838C3C0
1870C000
18C0C000
1800C000
0000C000
0000C000
0000C000
ENDCHAR
STARTCHAR 4FDE
ENCODING 20446
SWIDTH 930 0
DWIDTH 31 0
BBX 23 30 4 -2
BITMAP
001000
003000
007000
006000
00C000
018000
0303E0
0600FC
0C001E
380000
70FF00
C0FF00
00000C
00000C
33F00C
33F00C
30318C
30318C
37B18C
37B18C
30318C
30318C
37B18C
37B00C
30300C
30300C
30300C
30F00C
30703C
00001C
ENDCHAR
STARTCHAR 4FDF
ENCODING 20447
SWIDTH 930 0
DWIDTH 31 0
BBX 26 29 3 -2
BITMAP
00020000
00060000
00060000
000C0C00
000C0E00
0618E700
0C1FC180
181E0000
30000000
60000000
C00C0000
001C0000
0019FE00
1819FE00
18300000
18300000
18206000
18006000
1800C000
187FFF00
187FFF00
18018000
18030000
18030800
18060E00
180E0780
000C01C0
00180000
00300000
ENDCHAR
STARTCHAR 4FE1
ENCODING 20449
SWIDTH 900 0
DWIDTH 30 0
BBX 25 29 3 -1
BITMAP
0000C000
0000C000
0000C000
00008000
00000000
067FFF80
0E7FFF80
1C000000
38000000
70000000
E01FFE00
801FFE00
00000000
18000000
183FFC00
183FFE00
18000000
18000000
18000000
180FFC00
181FFE00
18180600
18180600
18180600
18180600
18180600
00180600
001FFE00
000FFC00
ENDCHAR
STARTCHAR 4FE3
ENCODING 20451
SWIDTH 900 0
DWIDTH 30 0
BBX 25 29 3 -3
BITMAP
000FFE00
001FFE00
00180600
00180600
06180600
0E180600
1C180600
381FFE00
600FFC00
C0000000
00000000
101FFE00
181FFE00
18000000
18000000
18008000
18018000
18018000
183FFF80
183FFF80
18030000
18020000
18060800
18041E00
180C0780
00180000
00180000
00300000
00200000
ENDCHAR
STARTCHAR 4FE6
ENCODING 20454
SWIDTH 900 0
DWIDTH 30 0
BBX 25 30 3 -4
BITMAP
00008000
00008000
00018000
00018000
003FFE00
0E3FFE00
1C030000
38030000
70030000
601FF800
C01FF800
00060000
180C0000
187FFE00
187FFE00
18180000
18300000
18703000
18603000
18C7FF80
1887FF80
18003000
18003000
180E3000
180E3000
00003000
00003000
00003000
0000F000
00003000
ENDCHAR
STARTCHAR 4FE8
ENCODING 20456
SWIDTH 870 0
DWIDTH 29 0
BBX 25 28 2 -3
BITMAP
003FFF80
003FFF00
00000000
06019800
0E019880
1C019980
38399900
70199800
C0019800
80000000
000FFF80
180FFF80
18000000
18300000
18300000
18300000
18300000
18300000
18200000
18200000
18200000
18600000
18600000
18600000
00400000
00C00000
00C00000
00800000
ENDCHAR
STARTCHAR 4FE9
ENCODING 20457
SWIDTH 900 0
DWIDTH 30 0
BBX 26 26 2 -2
BITMAP
003FFFC0
007FFFC0
00000000
06031800
0C031800
18031800
30031800
602FFF80
C06FFFC0
006318C0
006218C0
186610C0
186610C0
1867B0C0
1864F6C0
186C37C0
186820C0
186860C0
186060C0
186040C0
186000C0
186000C0
186000C0
186000C0
006003C0
006001C0
ENDCHAR
STARTCHAR 4FEA
ENCODING 20458
SWIDTH 930 0
DWIDTH 31 0
BBX 27 26 2 -1
BITMAP
003FFFE0
003FFFE0
00000000
06000000
0E000000
1C000000
38001BC0
60001BC0
C03718C0
003798C0
003198C0
183198C0
183198C0
18319AC0
18319BC0
183998C0
183F98C0
183198C0
183198C0
183198C0
183198C0
183198C0
18319BC0
183198C0
00378000
00330000
ENDCHAR
STARTCHAR 4FED
ENCODING 20461
SWIDTH 900 0
DWIDTH 30 0
BBX 26 28 2 -1
BITMAP
00004000
0000C000
0001C000
00018000
06038000
0E070000
1C060000
380C0000
70183F00
E0301FC0
C0E003C0
00C00000
18000000
1807F800
1807F800
18000000
18000000
18018000
1801C000
1800C000
18004600
18180600
180C0C00
18000800
18000000
00000000
007FFF00
007FFF00
ENDCHAR
STARTCHAR 4FEE
ENCODING 20462
SWIDTH 900 0
DWIDTH 30 0
BBX 26 28 2 -2
BITMAP
00018000
00018000
00030000
00037F00
06067F00
0C040600
1C000600
3801EC00
6000FC00
C0003E00
80C07F00
00C1E3C0
18C78000
18CE0000
18C03800
18C07000
18C0E000
18C10000
18C00800
18007800
1801C180
18000300
18000F00
18001C00
18003800
0000F000
0007C000
000F0000
ENDCHAR
STARTCHAR 4FEF
ENCODING 20463
SWIDTH 900 0
DWIDTH 30 0
BBX 27 28 2 -2
BITMAP
00003000
00003000
00003000
00000000
063FFFE0
0E3FFFE0
1C000000
38000000
70300180
E030C180
8031C180
00338180
18370180
18343FE0
18303FE0
18300180
18330180
18330180
18631180
18633980
18630D80
18630180
18630180
18C30180
18C30180
00C30180
00830F80
00000380
ENDCHAR
STARTCHAR 4FF1
ENCODING 20465
SWIDTH 900 0
DWIDTH 30 0
BBX 26 27 2 -3
BITMAP
001BFE00
001BFE00
00180600
04180600
0C180600
1C19E600
3819E600
60180600
C0180600
8019E600
0019E600
18180600
18180600
1819E600
1819E600
18180600
18000000
18000000
18FFFFC0
18FFFFC0
18000000
18000000
18001800
18041F00
000C0F80
001C0000
00300000
ENDCHAR
STARTCHAR 4FF3
ENCODING 20467
SWIDTH 870 0
DWIDTH 29 0
BBX 25 29 2 -2
BITMAP
00001800
00031800
00031800
00031800
00031800
04031800
0E031800
1C731F80
38731F80
70031800
E0031800
80031800
00031800
18031F80
18731F80
18731800
18031800
18031800
18031800
18031800
18031F80
18F31F80
18F31800
18031800
18031800
18031800
00031800
00031800
00030000
ENDCHAR
STARTCHAR 4FF8
ENCODING 20472
SWIDTH 900 0
DWIDTH 30 0
BBX 26 30 2 -2
BITMAP
0000C000
0000C000
00008000
003FFE00
003FFE00
06018000
1C010000
380FFC00
700FFC00
60030000
C0060000
80060000
003FFF00
183FFF00
180C0000
18180300
1818C3C0
1830C040
1820C000
180FF800
180FF800
1800C000
1800C000
1800C000
187FFE00
187FFE00
0000C000
0000C000
0000C000
0000C000
ENDCHAR
STARTCHAR 4FFA
ENCODING 20474
SWIDTH 930 0
DWIDTH 31 0
BBX 26 29 3 -1
BITMAP
00008000
0000C000
00008000
00018000
00018000
063FFF00
0E3FFE00
1C070000
38060000
700E0C00
E01CCF80
C038C1C0
0070C000
18E0C000
188FFC00
181FFE00
1818C600
1819F600
1819F600
1818C600
1818C600
181FFE00
180FFC00
1800C000
1800C200
1800C300
0000C380
0000FFC0
0000FFC0
ENDCHAR
STARTCHAR 4FFE
ENCODING 20478
SWIDTH 900 0
DWIDTH 30 0
BBX 25 30 3 -1
BITMAP
00004000
0000C000
00018000
00000000
00000000
061FFE00
0C1FFE00
38180600
7018C600
E01BF600
C01BF600
0018C600
0018C600
18188600
181FFE00
180FFC00
18030000
18060000
180C3000
18083000
18003000
18003000
187FFF80
187FFF80
18003000
18003000
00003000
00003000
00003000
00003000
ENDCHAR
STARTCHAR 500C
ENCODING 20492
SWIDTH 900 0
DWIDTH 30 0
BBX 25 29 3 -1
BITMAP
0000C000
0000C000
0000C000
00000000
00000000
066FFF00
0E67FF80
1E600180
3C600180
78600180
E0180000
C01BFE00
001BFE00
18180600
18180600
18180600
181BFE00
181BFC00
18180000
18180000
181BFF00
181BFF80
18180180
18180180
18180180
18180180
00180180
001BFF80
001BFF00
ENDCHAR
STARTCHAR 500D
ENCODING 20493
SWIDTH 900 0
DWIDTH 30 0
BBX 25 29 3 -1
BITMAP
0000C000
0000C000
0000C000
00008000
00000000
061FFF00
0C1FFF00
1C000000
38000000
70000000
E0080C00
800C1C00
00061800
18000000
18000000
183FFF80
183FFF80
18000000
18000000
18000000
180FFC00
181FFC00
18180C00
18180C00
18180C00
18180C00
00180C00
001FFC00
000FFC00
ENDCHAR
STARTCHAR 500F
ENCODING 20495
SWIDTH 900 0
DWIDTH 30 0
BBX 25 27 3 0
BITMAP
00030000
00030000
00060000
000EFC00
060CFE00
0C180C00
1C119C00
3801F800
60007800
C180FE00
0183C780
018F0000
199C6000
19806600
19806300
19806000
1980C000
199FFF80
181FFF80
18018000
18018000
18031000
18030C00
18060700
180C0300
00180000
00300000
ENDCHAR
STARTCHAR 5012
ENCODING 20498
SWIDTH 900 0
DWIDTH 30 0
BBX 26 27 2 -1
BITMAP
000000C0
000000C0
01FFC0C0
01FFC0C0
040000C0
0C0000C0
183000C0
30610CC0
60618CC0
C040CCC0
00FCCCC0
00F86CC0
18C00CC0
180C0CC0
180C0CC0
180C0CC0
18FF8CC0
18FF80C0
180C00C0
180C00C0
180C00C0
180C00C0
180000C0
1800C0C0
180F83C0
00FE01C0
00F00000
ENDCHAR
STARTCHAR 5014
ENCODING 20500
SWIDTH 900 0
DWIDTH 30 0
BBX 26 27 2 -2
BITMAP
0033FF80
0033FF80
00300180
06300180
0E300180
1C300180
3833FF80
6033FF80
C0300000
00301800
00301800
18311980
18331980
18231980
18231980
1863FF80
1861FF80
18601800
18601800
18401800
18C618C0
18C618C0
188618C0
198618C0
000600C0
0007FFC0
0003FF80
ENDCHAR
STARTCHAR 5018
ENCODING 20504
SWIDTH 900 0
DWIDTH 30 0
BBX 26 27 2 -2
BITMAP
00006000
00006000
000060C0
001061C0
06186180
0C0C6000
1C006000
38000000
60000000
C0000000
8033FF80
183000C0
183000C0
183000C0
183000C0
1831F8C0
1831FCC0
18318CC0
18318CC0
18318CC0
1831FCC0
1830F8C0
183000C0
183000C0
183000C0
003003C0
003001C0
ENDCHAR
STARTCHAR 5019
ENCODING 20505
SWIDTH 930 0
DWIDTH 31 0
BBX 27 27 2 -3
BITMAP
0007FE00
0003FE00
00000600
06000600
0C000200
18000000
381FFFE0
701FFFE0
E0000000
81800000
01860000
19867F00
198C7F00
198C0000
19882000
19802000
19806000
199FFFE0
181FFFE0
1800C000
1800C000
18018000
18018600
18030780
000301E0
00060000
000C0000
ENDCHAR
STARTCHAR 501A
ENCODING 20506
SWIDTH 900 0
DWIDTH 30 0
BBX 25 30 3 -3
BITMAP
00004000
0000C000
0000C000
007FFF00
007FFF00
06030000
1C060000
180E3800
301C1E00
60180000
C0300000
80000000
00000000
18FFFF80
18FFFF80
18000000
18000000
18000C00
183F8C00
183F8C00
18318C00
18318C00
18318C00
183F8C00
183F8C00
18000C00
00000C00
00000C00
00003C00
00001C00
ENDCHAR
STARTCHAR 501C
ENCODING 20508
SWIDTH 900 0
DWIDTH 30 0
BBX 25 25 3 -1
BITMAP
0067FF80
00600180
06600180
0C606180
1C606180
3863F980
7063F980
C0606180
80606180
00600180
1867FD80
1867FD80
18600180
1861F180
1863F980
18631980
18631980
18631980
1863F980
1843F980
18C00180
18C00180
18C00780
00800380
00800000
ENDCHAR
STARTCHAR 501F
ENCODING 20511
SWIDTH 900 0
DWIDTH 30 0
BBX 25 29 3 -2
BITMAP
00061800
00061800
00061800
00061800
007FFF00
0C7FFF00
1C061800
1C061800
38061800
70061800
E0000000
80FFFF80
00FFFF80
18000000
18000000
18000000
180FFC00
181FFE00
18180600
18180600
18180600
18180600
181BF600
181BF600
18180600
18180600
00180600
001FFE00
000FFC00
ENDCHAR
STARTCHAR 5021
ENCODING 20513
SWIDTH 900 0
DWIDTH 30 0
BBX 24 26 3 -1
BITMAP
000FFC
001FFE
001806
061806
0C1BE6
1C1BE6
381806
701806
601806
C01FFE
000FFC
180000
180000
180000
183FFE
187FFF
186003
186003
186003
1863F3
1863F3
186003
186003
186003
007FFF
003FFE
ENDCHAR
STARTCHAR 5025
ENCODING 20517
SWIDTH 900 0
DWIDTH 30 0
BBX 25 27 3 0
BITMAP
0000C000
0000C000
0000C000
00000000
0467FF80
0E67FF80
1C600180
38600180
70600180
E0060C00
800C0700
10180000
18000000
18000000
180FFC00
180FFC00
18000000
18000000
1800C000
1800C000
1800C000
1800C000
1800C000
1800C000
18000000
007FFF00
007FFF00
ENDCHAR
STARTCHAR 5026
ENCODING 20518
SWIDTH 900 0
DWIDTH 30 0
BBX 25 28 3 -1
BITMAP
00010C00
00311C00
003B1800
000B0000
00030000
063FFC00
1C3FFC00
38060000
70040000
E0FFFF00
C0FFFF00
00180000
18180600
18300780
1823F180
1867F800
18401800
180C1800
180C1800
180C1800
180C1800
180C7800
180C1000
180C0200
180C0200
000C0300
000FFF80
0007FF00
ENDCHAR
STARTCHAR 5028
ENCODING 20520
SWIDTH 900 0
DWIDTH 30 0
BBX 26 26 2 -1
BITMAP
0033FF00
0033FF80
00300180
06300180
0C300180
1C300180
3833FF80
7033FF00
C0300000
80300000
00301800
18301800
1833FFC0
1833FFC0
18201800
18201800
18601800
18600000
1860FF80
1840FF80
1840C180
18C0C180
18C0C180
1880C180
0080FF80
0000FF80
ENDCHAR
STARTCHAR 5029
ENCODING 20521
SWIDTH 900 0
DWIDTH 30 0
BBX 25 30 3 -3
BITMAP
0000C000
0000C000
0000C000
001FFF00
001FFF00
0600C000
0C00C000
1C07FC00
3807FC00
6000C000
C000C000
80000000
007FFF80
187FFF80
18000000
18000000
18000000
1819FC00
1819FE00
18180600
1819E600
1819E600
18180600
18180600
1819E600
1819E600
00180600
00180600
00183E00
00180E00
ENDCHAR
STARTCHAR 502A
ENCODING 20522
SWIDTH 900 0
DWIDTH 30 0
BBX 25 29 3 -3
BITMAP
00030000
00070000
00347C00
00307E00
06300600
0C300600
1C300600
38377600
70377600
C0300600
80300600
00300600
18300600
183FFE00
181FFC00
18000000
18020000
18062000
18063000
18063000
180C3000
180C3100
180C3100
18183180
18183F80
00303F80
00300000
00600000
00400000
ENDCHAR
STARTCHAR 502C
ENCODING 20524
SWIDTH 900 0
DWIDTH 30 0
BBX 25 30 3 -2
BITMAP
0000C000
0000C000
0000C000
0000DF80
0000DF80
0600C000
0E000000
1C1FFC00
383FFE00
70300600
E0300600
C0300600
0033F600
1833F600
18300600
18300600
183FFE00
181FFC00
18000000
1800C000
1800C000
18FFFF80
18FFFF80
1800C000
1800C000
1800C000
0000C000
0000C000
0000C000
0000C000
ENDCHAR
STARTCHAR 502D
ENCODING 20525
SWIDTH 900 0
DWIDTH 30 0
BBX 24 28 3 -2
BITMAP
000078
0007F8
001F80
000000
060000
0E0180
1C0180
38FFFE
70FFFE
E00180
800180
00718C
18E187
180180
180000
180200
180600
18FFFF
18FFFF
180C00
180C18
180830
180F70
1807C0
1803F8
000F1E
003C00
00F000
ENDCHAR
STARTCHAR 502E
ENCODING 20526
SWIDTH 930 0
DWIDTH 31 0
BBX 25 28 3 -1
BITMAP
001FFC00
003FFE00
00300600
0030C600
0630C600
0E30C600
1C37F600
3837F600
7030C600
E030C600
C030C600
003FFE00
181FFC00
1800C000
1800C000
187FFF00
187FFF00
1800C000
1800C000
1800C000
1808CC00
1838CF00
1870C380
1860C000
1800C000
0000C000
0000C000
0000C000
ENDCHAR
STARTCHAR 503A
ENCODING 20538
SWIDTH 900 0
DWIDTH 30 0
BBX 24 30 3 -3
BITMAP
000180
000180
000180
003FFC
003FFC
000180
0E0180
1C0180
380FF0
700FF0
E00180
800000
007FFF
187FFF
180000
180000
181FF8
181FFC
18180C
18180C
18198C
18198C
18198C
180300
180300
180630
000C3C
001C0E
003800
006000
ENDCHAR
STARTCHAR 503C
ENCODING 20540
SWIDTH 900 0
DWIDTH 30 0
BBX 26 29 2 -1
BITMAP
0000C000
0000C000
0000C000
0000C000
003FFF80
003FFF80
0600C000
1E00C000
3C00C000
700BFC00
E01BFE00
80180600
00180600
18180600
1819F600
1819F600
18180600
18180600
1819F600
1819F600
18180600
18180600
1819F600
1819F600
18180600
18000000
00000000
007FFFC0
007FFFC0
ENDCHAR
STARTCHAR 503E
ENCODING 20542
SWIDTH 900 0
DWIDTH 30 0
BBX 27 26 2 -2
BITMAP
0003FFC0
0003FFC0
06000000
0E001800
1CC01800
38C01000
70C00000
E0C0FF80
C0C1FFC0
00C180C0
18DD80C0
18DD98C0
18C198C0
18C198C0
18C198C0
18C198C0
18C198C0
18C190C0
18C03000
18F83000
18F02200
18006380
1800C1E0
00008000
00030000
00060000
ENDCHAR
STARTCHAR 5043
ENCODING 20547
SWIDTH 900 0
DWIDTH 30 0
BBX 26 27 2 -1
BITMAP
003FFF80
003FFF80
00000000
00000000
0631FF00
0E33FF80
1C330180
38333980
70333980
E0330180
8033FF80
0031FF00
18300000
18303000
1833FF80
1833FF80
1830C300
1830C700
1831F600
18307C00
18301F80
18303B80
1830F000
1831C000
18330000
003FFF80
003FFFC0
ENDCHAR
STARTCHAR 5047
ENCODING 20551
SWIDTH 930 0
DWIDTH 31 0
BBX 28 28 2 -3
BITMAP
00000FC0
006F8FE0
006FC060
0660C060
0C60C060
1C60C060
3860C060
7060C060
C06FCFE0
806F8FC0
00600000
18600000
18600000
186F8000
186F8FC0
18600FE0
18600060
186000C0
186780C0
1867CDC0
18600780
18600380
186003C0
186006E0
00600C30
00601800
00003000
00006000
ENDCHAR
STARTCHAR 5048
ENCODING 20552
SWIDTH 930 0
DWIDTH 31 0
BBX 26 29 3 -3
BITMAP
000FFE00
001FFF00
00180300
00180300
0419F300
0E19F300
1C180300
38180300
701FFF00
E01FFE00
80000000
00000000
18180000
18380000
1833FF80
1863FF80
186000C0
18C000C0
180060C0
180060C0
1800C0C0
183198C0
18331CC0
183200C0
183000C0
003FE0C0
001FE0C0
000007C0
00000180
ENDCHAR
STARTCHAR 504C
ENCODING 20556
SWIDTH 900 0
DWIDTH 30 0
BBX 25 29 3 -2
BITMAP
00061800
00061800
00061800
007FFF80
007FFF80
06061800
0E061800
1C061800
38000000
70000000
E0000000
80030000
00060000
187FFF80
187FFF80
180C0000
180C0000
18180000
18180000
18300000
1823FE00
1847FF00
18060300
18060300
18060300
18060300
00060300
0007FF00
0003FE00
ENDCHAR
STARTCHAR 504E
ENCODING 20558
SWIDTH 900 0
DWIDTH 30 0
BBX 24 27 3 -2
BITMAP
000FFE
001FFF
001803
0018C3
0618C3
0C1BF3
181BFB
3018C3
6018C3
C01803
801FFF
001FFE
180000
180000
187FFF
187FFF
180000
180000
180C03
180C07
180C0C
180C70
180C3C
180C0E
180C07
000F80
000E00
ENDCHAR
STARTCHAR 504F
ENCODING 20559
SWIDTH 900 0
DWIDTH 30 0
BBX 26 31 2 -4
BITMAP
00006000
00006000
00006000
00004000
00000000
00600000
0667FF80
0C67FF80
1C600180
38600180
70600180
E0600180
8067FF80
0067FF80
18600000
18600000
18600000
18667FC0
18467FC0
184600C0
18C600C0
18C66CC0
18C66CC0
1886FFC0
1886FFC0
18066CC0
18066CC0
00066CC0
000600C0
000603C0
000601C0
ENDCHAR
STARTCHAR 5055
ENCODING 20565
SWIDTH 900 0
DWIDTH 30 0
BBX 25 29 3 -2
BITMAP
00003000
00303000
00303000
00303380
00303700
063F3600
0E3F3000
1C303000
38303000
70303100
C03E3100
803C3F80
00103F80
18008000
18018000
18018000
18000000
18000000
1807FC00
180FFE00
180C0600
180C0600
180C0600
180CE600
180CE600
180C0600
000C0600
000FFE00
000FFE00
ENDCHAR
STARTCHAR 505A
ENCODING 20570
SWIDTH 900 0
DWIDTH 30 0
BBX 26 25 2 0
BITMAP
00181800
06181800
0E183000
1C183000
38182000
71FF6000
E1FF47C0
C01807C0
00180000
18180000
18180000
18000600
18000600
187C0400
18FE3400
18C61C00
18C60E00
18C60F00
18C61B80
18C618C0
18FE3040
187C3000
00006000
0000C000
00008000
ENDCHAR
STARTCHAR 505C
ENCODING 20572
SWIDTH 900 0
DWIDTH 30 0
BBX 25 30 3 -3
BITMAP
00018000
00018000
00018000
00000000
007FFE00
007FFE00
06000000
0C07F800
380FFC00
700C0C00
600C0C00
C00C0C00
000FFC00
1807F800
18600000
186FFF00
186FFF80
18600180
18600180
186FF980
180FF800
18000000
18006000
18006000
18006000
18006000
00006000
00006000
0003E000
0000E000
ENDCHAR
STARTCHAR 5065
ENCODING 20581
SWIDTH 900 0
DWIDTH 30 0
BBX 27 29 2 -1
BITMAP
00001800
00001800
00001800
0000FF00
0000FF80
04F81980
0EF81980
1C1BFFE0
381BFFC0
70301980
E0301980
8060FF80
0060FF00
10C01800
18FC1800
180CFF00
180CFF80
180C1800
18181800
18D81800
18DBFFC0
18F3FFC0
18701800
18701800
18781800
18CE0000
01C7FFE0
0181FFE0
01000000
ENDCHAR
STARTCHAR 506C
ENCODING 20588
SWIDTH 900 0
DWIDTH 30 0
BBX 26 27 2 0
BITMAP
00180000
00380000
0033FF00
0471FF80
0C600180
1C000180
38030180
70062180
E03E6180
801F6180
001FC180
1819F180
1831B180
18018180
18030780
18030300
18000000
18000000
1800C000
1800E000
18602180
18CC01C0
18CE04C0
19870400
01078600
0003FE00
0000FE00
ENDCHAR
STARTCHAR 5076
ENCODING 20598
SWIDTH 900 0
DWIDTH 30 0
BBX 25 26 3 -1
BITMAP
001FFC00
003FFE00
00308600
0630C600
0C37F600
1837F600
3830C600
7030C600
E030C600
803FFE00
001FFC00
1800C000
1800C000
1800C000
186FFF00
186FFF80
1860C180
1860C180
1860D980
1860D980
18600D80
1861E180
18678180
18600180
00600780
00600300
ENDCHAR
STARTCHAR 5077
ENCODING 20599
SWIDTH 930 0
DWIDTH 31 0
BBX 25 28 3 -1
BITMAP
00004000
0000C000
0001C000
00018000
00030000
06060000
0E0C1000
1C1C1F00
38300780
70600080
E0C3F000
8003F000
00000000
18000000
186F0300
186F8300
18618300
1861B300
187DB300
187DB300
1861B300
187DB300
187D8300
18618300
18618300
18618300
00678F00
00600700
ENDCHAR
STARTCHAR 507B
ENCODING 20603
SWIDTH 900 0
DWIDTH 30 0
BBX 25 28 3 -3
BITMAP
0000C000
0000C600
001CCC00
0000C800
0600C000
0E7FFF80
1C7FFF80
3800C000
7000C000
C01CCF00
8038C780
0070C000
1860C000
18000000
18018000
18030000
187FFF80
187FFF80
18060000
18061800
180C1800
180F3000
1803F000
1800FC00
1801CF80
00070100
001C0000
00700000
ENDCHAR
STARTCHAR 507E
ENCODING 20606
SWIDTH 900 0
DWIDTH 30 0
BBX 26 30 2 -4
BITMAP
00006000
00006000
001FFF00
001FFF00
00006000
02006000
06060C00
0C060C00
1C7FFFC0
387FFFC0
60060C00
C0060C00
00060C00
0C000000
0C07FE00
0C0FFF00
0C0C0300
0C0C0300
0C0C0300
0C0C6300
0C0C6300
0C0C4300
0C00C000
0C00C000
0C018000
0C030C00
00070F00
000E0380
001C0000
00300000
ENDCHAR
STARTCHAR 507F
ENCODING 20607
SWIDTH 900 0
DWIDTH 30 0
BBX 26 27 2 -2
BITMAP
00006000
00186100
001C6700
00006400
06006000
0C600000
1C67FF80
3867FFC0
706000C0
C06000C0
806000C0
0003FC00
1803FC00
18000000
18000000
18000000
187FFF80
187FFFC0
18000000
18030000
18030000
18030400
18060600
18060300
180EF180
000FE080
000F8000
ENDCHAR
STARTCHAR 5080
ENCODING 20608
SWIDTH 900 0
DWIDTH 30 0
BBX 26 29 2 0
BITMAP
0000C000
0001C000
00018000
00000000
00000000
06000000
0E1FFC00
1C3FFE00
38300600
70300600
E0318600
8037F600
0037F600
18318600
18318600
18318600
183FFE00
181FFE00
18030000
18030200
18020600
180666C0
18066740
180C6640
180C6080
18186080
00306080
00707FC0
00607FC0
ENDCHAR
STARTCHAR 5085
ENCODING 20613
SWIDTH 900 0
DWIDTH 30 0
BBX 26 31 2 -4
BITMAP
00000400
0000C700
0000C000
0000C000
007FFF80
0000C000
0600C000
0E00C000
1C37FF00
3833FF00
7030C300
C033FB00
0033FB00
0030C300
1833FB00
1833FB00
1830C300
1830C300
18000000
18000C00
18000C00
187FFFC0
187FFF80
18000C00
18000C00
180E0C00
18060C00
00000C00
00000C00
00007C00
00001C00
ENDCHAR
STARTCHAR 5088
ENCODING 20616
SWIDTH 900 0
DWIDTH 30 0
BBX 26 28 2 -2
BITMAP
003FFF80
003FFF00
00000000
00019800
06019800
0C1FFF00
183FFF80
30319980
60319980
C0319980
003FFF80
001FFF00
18000000
18000000
1800C000
1800C000
183FFF80
183FFF80
1800C000
1800C000
1800C300
1818C3C0
1870C000
1860C000
1800C000
0000C000
0000C000
0000C000
ENDCHAR
STARTCHAR 508D
ENCODING 20621
SWIDTH 900 0
DWIDTH 30 0
BBX 26 30 2 -3
BITMAP
00006000
00006000
00006000
00004000
001FFF80
061FFF80
0C000000
1C060C00
38070C00
70000800
C037FF80
8037FFC0
003000C0
183060C0
183060C0
18006000
18004000
183FFFC0
183FFFC0
18020000
18030000
18020000
18067E00
18067F00
180C0300
180C0300
00181F00
00180700
00700000
00400000
ENDCHAR
STARTCHAR 5091
ENCODING 20625
SWIDTH 900 0
DWIDTH 30 0
BBX 26 31 2 -2
BITMAP
00080000
00180C00
00180C00
00300C00
00200C00
004F7F80
0E0F7F80
1C030C00
38032C00
70633C00
60363C00
C0063FC0
00041FC0
000C0C00
18180C00
18300C00
18E0CC00
1800C000
1800C000
1800C000
18FFFF80
18FFFF80
1800C000
1800C000
1810CC00
1870CF00
18E0C100
0080C000
0000C000
0000C000
0000C000
ENDCHAR
STARTCHAR 50A3
ENCODING 20643
SWIDTH 900 0
DWIDTH 30 0
BBX 26 28 2 -2
BITMAP
0000C000
0000C000
003FFE00
061FFE00
0E018000
1C018000
381FFC00
701FFC00
C0030000
80020000
00060000
187FFF00
187FFF00
18080000
18180380
1830C1C0
1860C000
1800C300
1800C700
1838C000
181CC000
1800C000
1808C700
1878C180
0060C000
0000C000
0003C000
0001C000
ENDCHAR
STARTCHAR 50A5
ENCODING 20645
SWIDTH 900 0
DWIDTH 30 0
BBX 26 31 2 -3
BITMAP
0000C000
0000C200
0030C700
0018CC00
0000C000
06000000
0E4FFF00
1C6FFF80
38600180
70600180
E0600180
C007F000
000FF800
180C1800
180C1800
180C1800
180FF800
1807F800
18000000
18000000
18061800
18061800
18041800
18041800
180C1880
180C1880
00081FC0
00181FC0
00100000
00300000
00200000
ENDCHAR
STARTCHAR 50A7
ENCODING 20647
SWIDTH 870 0
DWIDTH 29 0
BBX 25 29 2 -2
BITMAP
0000C000
0000C000
0000C000
00000000
00000000
0667FF80
0E67FF80
1E600180
3C600980
38607980
6019E000
C0190000
00180000
18180000
1819FF00
1819FF00
18183000
18183000
18183000
18183000
18000000
187FFF80
187FFF80
18000000
18000000
18000800
000C0F00
001C0380
00700000
ENDCHAR
STARTCHAR 50A8
ENCODING 20648
SWIDTH 870 0
DWIDTH 29 0
BBX 27 27 1 -1
BITMAP
00001800
00001800
00601800
0661FF00
0E61FF00
1C401900
38001B80
70001300
60000600
C007FFE0
0007FFE0
01C03800
1BE06000
1861C000
18638000
186E0000
18607F80
1860FF80
1860C180
1860C180
1860DF80
1860DF80
187CC180
1870C180
1800C180
0000FF80
00007F80
ENDCHAR
STARTCHAR 50A9
ENCODING 20649
SWIDTH 900 0
DWIDTH 30 0
BBX 28 24 1 1
BITMAP
00000300
00001B00
02007300
0E00E000
1C01C000
39F19FF0
71FB1FF0
60180000
80180300
0018C300
18B0CFE0
19F0CFE0
18F0C300
1878C300
187CC300
1866C300
18C0CFE0
18C0CFE0
1980C300
1980C300
1B00C300
1A00C000
1800DFF0
0000DFF0
ENDCHAR
STARTCHAR 50AC
ENCODING 20652
SWIDTH 900 0
DWIDTH 30 0
BBX 26 29 2 -2
BITMAP
00006000
00006000
00186180
00186180
00186180
06180180
0E1FFF80
1C0FFF00
38000000
70000C00
E0000C00
800C0400
001C0000
1831FFC0
1861FFC0
18400C00
18180C00
18187F00
18187F80
18180C00
18180C00
18180C00
18187F80
18187F00
18180C00
18180C00
0019FFC0
0019FFC0
00180000
ENDCHAR
STARTCHAR 50B2
ENCODING 20658
SWIDTH 900 0
DWIDTH 30 0
BBX 27 29 2 -3
BITMAP
00180000
00180000
00180000
00FF8800
04FF9800
0C181800
1C183000
387F33E0
707F33E0
C0186000
80180000
00000000
19FF8000
19FF8100
18000100
18300300
18300300
182F0F00
18678E00
18618700
18618780
18418D80
18C18CC0
18C19860
1881B020
0187E000
01804000
01000000
01000000
ENDCHAR
STARTCHAR 50BA
ENCODING 20666
SWIDTH 900 0
DWIDTH 30 0
BBX 27 29 2 -2
BITMAP
00181000
00303000
00301800
00601800
006F9BC0
06CF9BE0
0C818C60
1C330CC0
381B0680
700E0600
C0C60700
804C0300
0019F180
1831F180
186000C0
18C00060
18000000
181FFF80
181FFF80
18000000
1800C000
1800C000
1820C080
1870C1E0
18E0C060
19C0C000
0000C000
0003C000
0001C000
ENDCHAR
STARTCHAR 50BB
ENCODING 20667
SWIDTH 900 0
DWIDTH 30 0
BBX 26 30 2 -2
BITMAP
00008000
00018000
00030000
00000000
001FFE00
003FFF00
0E313300
1C31E300
3831C300
7031E300
E0320300
803FFF00
001FFE00
18000000
180C0000
181C0C00
18180E00
18000700
18060100
180C0000
181DFC00
1819FC00
18301800
1801B800
1800F000
1800FC00
0001CF00
000381C0
001E0040
00300000
ENDCHAR
STARTCHAR 50CF
ENCODING 20687
SWIDTH 900 0
DWIDTH 30 0
BBX 26 30 2 -3
BITMAP
000C0000
00180000
00380000
0030F800
0060F800
06C03000
0C003000
1C000000
383FFC00
603FFE00
C0308600
80308600
00318600
183FFE00
181FFC00
18060000
181C8000
18398180
18008300
1800C600
183CC000
18F8C000
1800CC00
1800CF00
181EC1C0
1878C000
0060C000
0000C000
0003C000
00018000
ENDCHAR
STARTCHAR 50D6
ENCODING 20694
SWIDTH 900 0
DWIDTH 30 0
BBX 24 30 3 -2
BITMAP
0000C0
0000C0
00FFFF
00FFFF
0000C0
0C00C0
1C1FFC
3C1FFC
780000
600FF8
C01FFC
80180C
00180C
18180C
181FFC
180FF8
180008
180E18
180010
18FFFF
18FFFF
180000
180FF8
181FFC
18180C
18180C
00180C
00180C
001FFC
000FF8
ENDCHAR
STARTCHAR 50DA
ENCODING 20698
SWIDTH 900 0
DWIDTH 30 0
BBX 26 28 2 -2
BITMAP
00004000
0000C000
0000C000
007FFF80
067FFF80
0C070380
1C660300
386C0000
60181E00
C0300FC0
006FF800
00DFFC00
18180C00
18180C00
181BEC00
181BEC00
18180C00
181FFC00
181FFC00
18000000
1800C000
1800C000
1820C300
1860C380
18C0C1C0
0180C000
0007C000
0001C000
ENDCHAR
STARTCHAR 50E6
ENCODING 20710
SWIDTH 900 0
DWIDTH 30 0
BBX 27 29 1 -1
BITMAP
00180000
00180000
00180000
00080000
00000C00
05FF8C00
0DFF8C80
1C000CC0
38000CC0
703C0C00
E0FF0C00
C0C33FE0
00C33FE0
18C30800
18C30800
18FF0800
187E0980
18001980
18181980
18181980
18191980
1999D180
1B9811A0
1B1811A0
181831E0
181831E0
18783000
00383000
00002000
ENDCHAR
STARTCHAR 50E7
ENCODING 20711
SWIDTH 900 0
DWIDTH 30 0
BBX 25 29 3 -1
BITMAP
00180C00
000C1800
00041000
00000000
007FFF00
067FFF80
0C60C180
3860C180
3068CD80
607CD980
C064C180
0060C180
00600180
187FFF80
183FFF00
18000000
18000000
180FFC00
181FFE00
18180600
18180600
18180600
181BE600
181BE600
18180600
18180600
00180600
001FFE00
001FFE00
ENDCHAR
STARTCHAR 50EC
ENCODING 20716
SWIDTH 870 0
DWIDTH 29 0
BBX 26 26 2 -1
BITMAP
00001800
00081800
001C1800
06380000
0E73FF80
1CE3FF80
38C01800
70001800
E0301800
8031FF00
0031FF00
18301800
18301800
1831FF00
1831FF00
18301800
18301800
1833FF80
1833FF80
18300000
18000000
18000000
18000180
18331180
007318C0
00C18C00
ENDCHAR
STARTCHAR 50ED
ENCODING 20717
SWIDTH 870 0
DWIDTH 29 0
BBX 27 29 1 -2
BITMAP
00007FC0
01FF7FC0
01FF0000
00000400
00003600
04D83600
0CD83400
18D03FC0
30FF1FC0
60300C00
C0360980
00261980
006619A0
186711E0
184630E0
18C02000
18800000
180FFF00
181FFF80
18180180
18180180
18180180
1819F980
1819F980
18180180
18180180
00180180
001FFF80
000FFF00
ENDCHAR
STARTCHAR 50EE
ENCODING 20718
SWIDTH 900 0
DWIDTH 30 0
BBX 26 31 2 -3
BITMAP
0000C000
0000C000
0000C000
00000000
003FFF80
003FFF80
06000400
0E061C00
1C031800
387FFFC0
607FFFC0
C0000000
00000000
001FFE00
181FFF00
1818C300
181BFB00
181BFB00
1818C300
1818C300
181FFF00
180FFE00
1800C000
1800C000
183FFE00
181FFE00
1800C000
0000C000
00000000
007FFFC0
007FFFC0
ENDCHAR
STARTCHAR 50F3
ENCODING 20723
SWIDTH 900 0
DWIDTH 30 0
BBX 25 28 3 -1
BITMAP
007FFF00
007FFF00
00000000
00000000
06033000
0E033000
1C3FFE00
387FFF00
70633300
E0633300
807FFF00
003FFE00
18000000
1800C000
1800C600
1838C600
1808CC00
1800C000
187FFF80
187FFF80
1800C000
1800C000
1808CC00
1818CF00
1870C380
0040C000
0000C000
0000C000
ENDCHAR
STARTCHAR 50F5
ENCODING 20725
SWIDTH 900 0
DWIDTH 30 0
BBX 25 29 3 -3
BITMAP
007FFF80
007FFF80
00000000
000FFC00
061FFE00
0E18C600
1C18C600
381BF600
701BF600
C018C600
001FFE00
180FFC00
18000000
187FFF80
187FFF80
18000000
181FFC00
183FFE00
1830C600
1830C600
1837F600
1837F600
1830C600
183FFE00
181FFE00
00000000
00000000
007FFF80
007FFF80
ENDCHAR
STARTCHAR 50FB
ENCODING 20731
SWIDTH 900 0
DWIDTH 30 0
BBX 27 29 2 -2
BITMAP
00000600
00000600
00000600
00000000
06DF0000
0EDF3FC0
1CC33FC0
38C30000
70C30080
E0C319C0
80C31980
00DF0800
18DE0000
18C07FE0
18C07FE0
18C00000
18C00600
188E0600
19BF8600
19B1BFE0
19B1BFE0
19318600
19318600
1B318600
1A318600
00318600
003F8600
001F0600
00000600
ENDCHAR
STARTCHAR 5104
ENCODING 20740
SWIDTH 900 0
DWIDTH 30 0
BBX 26 31 2 -3
BITMAP
00018000
00018000
00018000
00000000
003FFE00
003FFE00
06000000
0E0C1800
1C0E3000
38022000
607FFF80
C07FFF80
00000000
00000000
180FF800
180FFC00
180C0C00
180DCC00
180DCC00
180C0C00
180FFC00
1807F800
18000000
1800C000
1820E000
18640180
186609C0
00C70800
00838C00
0001FC00
00007C00
ENDCHAR
STARTCHAR 5106
ENCODING 20742
SWIDTH 900 0
DWIDTH 30 0
BBX 28 27 1 -1
BITMAP
00330000
00330000
00330400
00FFEC00
06FFEC00
0E330C00
1C331800
380019F0
700031F0
E0402000
80400000
00C00000
18DF8000
199FC0C0
1980C080
1900C080
1878C580
18FCC780
18CCC300
18CCC180
18CCC3C0
18FCC3E0
1878C620
1800CC10
1803C800
0001D800
00002000
ENDCHAR
STARTCHAR 5107
ENCODING 20743
SWIDTH 900 0
DWIDTH 30 0
BBX 26 28 2 -3
BITMAP
003FFF00
00600180
00633180
00633180
06633180
0E7FFF80
1C3FFF00
38000000
703FFF80
C03FFF80
00000000
00000000
180FFC00
180FFC00
180C0C00
180C0C00
180C0C00
180FFC00
1807F800
18060180
181E0380
18380600
18700000
180C3800
180C1E00
000C0780
000F81C0
000F0000
ENDCHAR
STARTCHAR 510B
ENCODING 20747
SWIDTH 900 0
DWIDTH 30 0
BBX 26 30 2 -1
BITMAP
000C0000
000C0000
00187800
00307C00
00701800
06601000
0E000000
1C0FFFC0
380FFFC0
70000000
E0301800
8031D9C0
003398C0
18300000
1831FFC0
1831FFC0
18300000
1831FF00
1831FF00
18200000
1860FF80
1860FF80
18600000
1860FE00
1841FF00
18C18300
00C18300
00818300
0081FF00
0001FF00
ENDCHAR
STARTCHAR 5112
ENCODING 20754
SWIDTH 900 0
DWIDTH 30 0
BBX 25 28 3 -2
BITMAP
001FFE00
001FFE00
00000000
0600C000
0E00C000
1CCFFF80
38CFFF80
70C0C180
E0CEDD80
800EDC00
0000C000
180EDC00
180E9C00
18000000
18FFFF80
18FFFF80
18000000
1800C000
18000000
183FFF00
187FFF80
18600180
18600180
18633180
00633180
00633180
00633780
00000100
ENDCHAR
STARTCHAR 5121
ENCODING 20769
SWIDTH 900 0
DWIDTH 30 0
BBX 27 26 2 -1
BITMAP
007FFE00
007FFF00
00608300
00608300
066FFB00
0C6FFB00
18608300
30608300
60600300
C07FFF00
007FFE00
18000000
18000000
18000000
19FE3FC0
1BFF7FE0
1B036060
1B336660
1B336660
1BFB7F60
1BFB7F60
1B336660
1B336660
1B037FE0
03FF3FC0
01FE0000
ENDCHAR
STARTCHAR 513F
ENCODING 20799
SWIDTH 900 0
DWIDTH 30 0
BBX 21 28 5 -3
BITMAP
060000
060000
060000
060C00
060C00
060C00
060C00
060C00
040C00
040C00
0C0C00
0C0C00
0C0C00
0C0C00
0C0C00
080C00
180C00
180C00
180C00
180C00
300C10
300C10
300C18
600FF8
6007F8
400000
C00000
800000
ENDCHAR
STARTCHAR 5140
ENCODING 20800
SWIDTH 900 0
DWIDTH 30 0
BBX 22 26 4 -3
BITMAP
FFFFF8
FFFFF8
000000
000000
000000
000000
030000
030600
030600
020600
060600
060600
060600
060600
060600
0C0600
0C0600
0C0600
180608
180608
18060C
3007FC
3003FC
600000
600000
400000
ENDCHAR
STARTCHAR 5141
ENCODING 20801
SWIDTH 900 0
DWIDTH 30 0
BBX 22 29 4 -3
BITMAP
020000
060000
060000
0C0000
0C0180
0C01C0
1800C0
180060
100630
30FC00
3FE000
1E0000
000000
000000
060000
060600
060600
040600
0C0600
0C0600
0C0600
080608
180608
18060C
3007FC
3007FC
600000
600000
C00000
ENDCHAR
STARTCHAR 5143
ENCODING 20803
SWIDTH 900 0
DWIDTH 30 0
BBX 23 28 3 -4
BITMAP
1FFFC0
1FFFC0
000000
000000
000000
000000
000000
000000
000000
FFFFFC
FFFFFC
000000
000000
010000
030000
030300
030300
020300
060300
060300
040304
0C0304
0C0306
1803FE
1803FE
300000
200000
600000
ENDCHAR
STARTCHAR 5144
ENCODING 20804
SWIDTH 900 0
DWIDTH 30 0
BBX 20 27 5 -3
BITMAP
7FFF00
7FFF80
600180
600180
600180
600180
600180
600180
600180
600180
7FFF80
3FFF00
000000
000000
080000
180800
180C00
180C00
180C00
100C00
300C20
300C20
600C30
600FF0
400FF0
C00000
800000
ENDCHAR
STARTCHAR 5145
ENCODING 20805
SWIDTH 900 0
DWIDTH 30 0
BBX 23 31 3 -3
BITMAP
003000
003000
003000
001000
000000
FFFFFE
FFFFFE
000000
010000
030000
060180
0E01C0
0C00E0
183870
1FF830
1FE000
0E0000
000000
030300
030300
020300
060300
060300
060304
040304
0C0306
0C03FE
1801FE
180000
300000
300000
ENDCHAR
STARTCHAR 5146
ENCODING 20806
SWIDTH 900 0
DWIDTH 30 0
BBX 24 31 3 -3
BITMAP
00C000
00C000
00C000
00C300
00C300
00C300
00C300
00C300
60C30C
70C318
30C318
00C300
00C300
00C300
008300
008330
318338
31831C
618306
C18300
810300
030300
030300
030302
020302
0603FF
0601FF
040000
0C0000
0C0000
080000
ENDCHAR
STARTCHAR 5148
ENCODING 20808
SWIDTH 900 0
DWIDTH 30 0
BBX 22 30 4 -4
BITMAP
001800
001800
001800
0C1800
0C1800
0C1800
19FFC0
19FFC0
301800
201800
201800
001800
001800
000000
FFFFFC
FFFFFC
000000
000000
010000
030300
030300
030300
020300
060300
060308
040308
0C03FC
0C03F8
180000
100000
ENDCHAR
STARTCHAR 5149
ENCODING 20809
SWIDTH 900 0
DWIDTH 30 0
BBX 22 28 4 -3
BITMAP
006000
006000
006000
006000
006000
006060
3060C0
186080
006000
006000
006000
000000
FFFFFC
FFFFFC
000000
030600
030600
030600
060600
060600
060600
0C0610
0C0610
080618
1807FC
1007FC
300000
600000
ENDCHAR
STARTCHAR 514B
ENCODING 20811
SWIDTH 930 0
DWIDTH 31 0
BBX 21 30 5 -4
BITMAP
006000
006000
006000
FFFFF8
FFFFF8
006000
006000
006000
006000
07FE00
0FFF00
0C0300
0C0300
0C0300
0C0300
0C0300
0FFF00
07FE00
000000
030C00
020C00
020C00
060C00
060C10
0C0C10
0C0C18
180FF8
1807F8
300000
200000
ENDCHAR
STARTCHAR 514D
ENCODING 20813
SWIDTH 870 0
DWIDTH 29 0
BBX 21 31 4 -3
BITMAP
0C0000
180000
180000
30FE00
60FE00
600600
C00C00
001800
000000
000000
3FFF80
3FFFC0
3000C0
3040C0
3040C0
3040C0
30C0C0
3FFFC0
3FFF80
018000
018000
010C00
030C00
020C00
060C10
0C0C10
0C0C18
180FF8
3007F8
600000
400000
ENDCHAR
STARTCHAR 5150
ENCODING 20816
SWIDTH 870 0
DWIDTH 29 0
BBX 21 30 4 -3
BITMAP
60FFC0
61FFE0
618060
618060
618060
618060
619F60
619F60
618060
618060
618060
618060
61FFE0
60FFC0
600000
000000
040600
0C0600
0C0600
0C0600
080600
180600
180600
100610
300610
300618
6007F8
6007F8
C00000
800000
ENDCHAR
STARTCHAR 5151
ENCODING 20817
SWIDTH 900 0
DWIDTH 30 0
BBX 20 30 5 -3
BITMAP
180600
180C00
000800
000000
3FFF00
7FFF80
600180
600180
600180
600180
600180
600180
600180
600180
7FFF80
7FFF80
000000
000000
060000
040000
0C0C00
0C0C00
180C00
180C00
180C20
300C30
300FF0
600FF0
400000
C00000
ENDCHAR
STARTCHAR 5152
ENCODING 20818
SWIDTH 900 0
DWIDTH 30 0
BBX 22 29 4 -1
BITMAP
030000
061FC0
6C1FC0
6000C0
6000C0
6000C0
6000C0
6F0FC0
6F0FC0
6000C0
6000C0
6000C0
6000C0
7FFFC0
3FFF80
000000
0C0000
0C0000
0C0600
080600
180600
180600
100608
300608
30060C
6007FC
4007FC
C00000
800000
ENDCHAR
STARTCHAR 5154
ENCODING 20820
SWIDTH 930 0
DWIDTH 31 0
BBX 23 31 4 -2
BITMAP
040000
0C0000
180000
39FF80
31FF80
600380
C00300
000600
000400
000000
3FFFE0
3FFFE0
300060
306060
306060
304060
30C060
3FFFE0
3FFFE0
018000
038000
030C00
070CC0
060C60
0C0C04
0C0C04
180C06
300FFE
600FFE
C00000
800000
ENDCHAR
STARTCHAR 5155
ENCODING 20821
SWIDTH 900 0
DWIDTH 30 0
BBX 21 30 4 -4
BITMAP
7E07E0
FF0FF0
C30C30
C30C30
C30C30
C30C30
C3FC30
C3FC30
C00030
C00030
C00030
C00030
C00030
FFFFF0
7FFFE0
000000
000000
040000
040C00
0C0C00
0C0C00
080C00
180C00
180C10
100C10
300C18
300FF8
6007F8
400000
C00000
ENDCHAR
STARTCHAR 5156
ENCODING 20822
SWIDTH 930 0
DWIDTH 31 0
BBX 23 31 4 -4
BITMAP
001800
001800
001000
FFFFFE
FFFFFE
000000
000000
000000
00C010
01C018
31810E
738186
6300C0
C30460
07F810
07E000
020000
000000
018000
018300
010300
030300
030300
030308
020308
06030C
0603FC
0C03FC
0C0000
180000
100000
ENDCHAR
STARTCHAR 515A
ENCODING 20826
SWIDTH 900 0
DWIDTH 30 0
BBX 22 31 4 -4
BITMAP
003000
003010
183070
1C30E0
003000
000000
CFFFF8
DFFFFC
C0000C
C0000C
C0000C
C3FF0C
07FF80
060180
060180
060180
060180
07FF80
03FF00
000000
010000
030600
030600
030600
060608
060608
040608
0C07FC
0C03FC
180000
100000
ENDCHAR
STARTCHAR 515C
ENCODING 20828
SWIDTH 930 0
DWIDTH 31 0
BBX 23 29 4 -2
BITMAP
006000
18C000
388000
01FE3C
03FF3E
C30306
C30306
C30306
C37306
C37306
C30306
C30306
C30306
FFFF3E
79FE3C
000000
020000
060300
060300
060300
040300
0C0308
0C030C
18030C
1803FE
1003FE
300000
200000
200000
ENDCHAR
STARTCHAR 5162
ENCODING 20834
SWIDTH 930 0
DWIDTH 31 0
BBX 25 30 3 -4
BITMAP
0C006000
0C006000
0C006000
FFE7FF00
FFE7FF00
0C006000
0C006000
0C006000
0C006000
00000000
3F83FC00
7FC3FC00
60C30C00
60C30C00
60C30C00
60C30C00
7FC3FC00
3F81F800
00000000
19009000
13019800
13019800
33011800
33011900
23031900
23031980
63F21F80
43C61F80
C0040000
800C0000
ENDCHAR
STARTCHAR 5165
ENCODING 20837
SWIDTH 900 0
DWIDTH 30 0
BBX 22 26 4 0
BITMAP
006000
002000
003000
003000
003000
001800
001800
009800
018C00
018C00
018C00
030600
030600
030300
060300
060300
060180
0C0180
0C00C0
1800C0
180060
300030
300030
600018
400018
C0000C
ENDCHAR
STARTCHAR 5168
ENCODING 20840
SWIDTH 900 0
DWIDTH 30 0
BBX 22 28 4 0
BITMAP
003000
003000
006000
00C000
01C000
018000
030000
0E07C0
1C01F8
380078
600000
C00000
0FFF80
0FFF80
000000
003000
003000
003000
003000
03FF00
03FF00
003000
003000
003000
003000
000000
FFFFFC
FFFFFC
ENDCHAR
STARTCHAR 516B
ENCODING 20843
SWIDTH 900 0
DWIDTH 30 0
BBX 23 29 4 -3
BITMAP
000400
000600
000600
000600
018600
018600
018200
018300
018300
010300
030300
030100
030180
030180
060180
060080
0600C0
0C00C0
0C00C0
0C0060
180060
180060
180030
300030
300018
600018
600008
C0000C
800006
ENDCHAR
STARTCHAR 516C
ENCODING 20844
SWIDTH 870 0
DWIDTH 29 0
BBX 21 27 4 -1
BITMAP
000400
000600
000700
000300
000180
0601C0
0C00C0
1C0060
180030
300030
700018
600008
C00000
800000
008000
008000
018000
018000
030180
0301C0
0300C0
060060
060030
061C30
0FF818
0FE000
0F0000
ENDCHAR
STARTCHAR 516D
ENCODING 20845
SWIDTH 900 0
DWIDTH 30 0
BBX 22 27 4 -1
BITMAP
003000
003000
003000
002000
000000
000000
000000
000000
FFFFFC
FFFFFC
000000
000000
000000
000000
000000
000200
030300
060380
0601C0
0E00C0
0C0060
180030
180018
30000C
300004
600000
400000
ENDCHAR
STARTCHAR 516E
ENCODING 20846
SWIDTH 900 0
DWIDTH 30 0
BBX 21 30 4 -3
BITMAP
000C00
000E00
0C0700
0C0380
1801E0
380070
300038
600008
C00000
800000
000000
1FFFC0
1FFFC0
000000
000000
060000
060000
060000
07FF80
03FFC0
0000C0
0000C0
0000C0
0000C0
0000C0
0000C0
0000C0
0000C0
0003C0
0001C0
ENDCHAR
STARTCHAR 5170
ENCODING 20848
SWIDTH 900 0
DWIDTH 30 0
BBX 22 27 4 0
BITMAP
0000C0
0E0180
070180
010000
000000
000000
3FFFF0
3FFFF0
000000
000000
000000
000000
000000
000000
000000
07FFC0
07FFC0
000000
000000
000000
000000
000000
000000
000000
000000
FFFFFC
FFFFFC
ENDCHAR
STARTCHAR 5171
ENCODING 20849
SWIDTH 900 0
DWIDTH 30 0
BBX 22 28 4 -2
BITMAP
030600
030600
030600
030600
030600
030600
030600
7FFFF0
7FFFF0
030600
030600
030600
030600
030600
030600
030600
000000
000000
FFFFFC
FFFFFC
000000
000000
000000
000180
0601C0
0C0060
180030
300000
ENDCHAR
STARTCHAR 5172
ENCODING 20850
SWIDTH 870 0
DWIDTH 29 0
BBX 21 27 4 -3
BITMAP
7FFFC0
7FFFC0
000000
003000
003000
003000
003000
0FFF80
0FFF80
003000
003000
003000
003000
000000
000000
FFFFF8
FFFFF8
000000
000000
000300
0C0300
0C0180
1801C0
3800E0
300060
600030
400000
ENDCHAR
STARTCHAR 5173
ENCODING 20851
SWIDTH 900 0
DWIDTH 30 0
BBX 22 29 4 -1
BITMAP
040100
070300
030200
000000
000000
000000
1FFFE0
1FFFE0
000000
003000
003000
002000
002000
006000
006000
FFFFFC
FFFFFC
00C000
00C000
008000
018000
018700
0307E0
0300F8
060008
060000
0C0000
080000
180000
ENDCHAR
STARTCHAR 5174
ENCODING 20852
SWIDTH 900 0
DWIDTH 30 0
BBX 22 27 4 -1
BITMAP
00C000
00C000
006000
003030
001070
300060
3800C0
1C0180
0C0100
000000
000000
000000
FFFFFC
FFFFFC
000000
000000
000000
000000
000600
030700
0601C0
0E00E0
0C0030
180018
380000
300000
600000
ENDCHAR
STARTCHAR 5175
ENCODING 20853
SWIDTH 930 0
DWIDTH 31 0
BBX 23 29 4 -3
BITMAP
000080
000FC0
007F80
00F800
000000
000000
0C0000
0C0000
0C0000
0C0000
0C7FF0
0C7FF0
0C0000
0C0300
0C0300
0C0300
0C0300
0C0300
0C0000
000000
FFFFFE
FFFFFE
000000
000000
0000C0
0700E0
0E0070
1C0038
300000
ENDCHAR
STARTCHAR 5176
ENCODING 20854
SWIDTH 900 0
DWIDTH 30 0
BBX 22 29 4 -3
BITMAP
060300
060300
060300
060300
7FFFF8
7FFFF8
060300
060300
060300
06FB00
06FB00
060300
060300
060300
06FB00
06FB00
060300
060300
060300
000000
FFFFFC
FFFFFC
000000
000000
000300
0601C0
0E00E0
1C0030
380000
ENDCHAR
STARTCHAR 5177
ENCODING 20855
SWIDTH 900 0
DWIDTH 30 0
BBX 23 29 3 -3
BITMAP
07FF80
07FF80
060180
060180
060180
06FD80
06FD80
060180
060180
06FD80
06FD80
060180
060180
060180
06FD80
06FD80
060180
060180
000000
FFFFFE
FFFFFE
000000
000000
000180
0201E0
060070
0E0030
180000
100000
ENDCHAR
STARTCHAR 5178
ENCODING 20856
SWIDTH 900 0
DWIDTH 30 0
BBX 23 29 3 -2
BITMAP
00C600
00C600
00C600
00C600
00C600
1FFFF0
3FFFF0
30C630
30C630
30C630
30C630
33FFF0
33FFF0
30C630
30C630
30C630
30C630
30C630
30C630
000000
FFFFFE
FFFFFE
000000
000000
0000C0
0300E0
0F0070
1E0018
300000
ENDCHAR
STARTCHAR 5179
ENCODING 20857
SWIDTH 930 0
DWIDTH 31 0
BBX 23 27 4 -1
BITMAP
0C0180
0E0180
060300
000000
000000
FFFFFE
FFFFFE
000000
000040
0C00C0
0C0080
180180
180300
300300
200600
600680
7D07A0
730460
060040
0600C0
0C00C0
1C0180
188190
38C318
30C718
7F67C8
78260C
ENDCHAR
STARTCHAR 517B
ENCODING 20859
SWIDTH 870 0
DWIDTH 29 0
BBX 23 32 3 -3
BITMAP
000060
0700C0
078080
008000
000000
3FFFF0
3FFFF0
000000
001000
003000
07FFC0
07FFC0
006000
004000
00C000
018000
FFFFFE
FFFFFE
0E0000
1C00E0
18007C
31801E
418300
018300
038300
030300
030300
070300
060300
0E0300
0C0300
080000
ENDCHAR
STARTCHAR 517C
ENCODING 20860
SWIDTH 930 0
DWIDTH 31 0
BBX 23 30 4 -2
BITMAP
0400C0
0600C0
030180
000000
FFFFF8
FFFFF8
000000
018C00
018C00
0FFFC0
1FFFE0
018C60
018C60
018C60
FFFFFE
FFFFFE
018C60
018C60
018C60
1FFFE0
0FFFC0
018C00
018C00
018C40
198C70
718C38
E18C00
818C00
018C00
018C00
ENDCHAR
STARTCHAR 517D
ENCODING 20861
SWIDTH 870 0
DWIDTH 29 0
BBX 23 29 3 -1
BITMAP
030180
038180
018300
000000
0FFFE0
0FFFF0
0C1830
0C1830
0DFE30
0DFE30
0C1830
0C1830
0C0030
0FFFF0
07FFE0
000000
000000
FFFFFE
FFFFFE
000000
000000
03FF80
03FF80
030180
030180
030180
030180
03FF80
03FF80
ENDCHAR
STARTCHAR 5180
ENCODING 20864
SWIDTH 900 0
DWIDTH 30 0
BBX 24 30 3 -3
BITMAP
00C300
3EC378
3EC370
00C300
00C310
0EC318
7EC3FC
00C1F8
03FFC0
07FFE0
060060
061860
067F60
06FF60
061860
060060
07FFE0
03FFC0
00C300
00C300
1FFFF0
1FFFE0
00C300
FFFFFF
FFFFFF
000000
000000
0381C0
0700E0
0C0000
ENDCHAR
STARTCHAR 5181
ENCODING 20865
SWIDTH 900 0
DWIDTH 30 0
BBX 28 29 1 -2
BITMAP
30C00000
30823FC0
11837FE0
00030060
3FC30060
FFE30060
C0633FE0
C0637FE0
C6630000
C6630000
DFE31B00
DFE31B00
C6637FE0
C6637FE0
FFE71B00
7FE61B00
06061100
06067FE0
0606FFF0
FFE60000
FFEC6060
060C6060
060C60C0
06186600
06186380
061861C0
06106060
06007C00
00003000
ENDCHAR
STARTCHAR 5182
ENCODING 20866
SWIDTH 930 0
DWIDTH 31 0
BBX 21 28 5 -4
BITMAP
8FFFF0
DFFFF8
C00018
C00018
C00018
C00018
C00018
C00018
C00018
C00018
C00018
C00018
C00018
C00018
C00018
C00018
C00018
C00018
C00018
C00018
C00018
C00018
C00018
C00018
C00018
C00018
C00078
C00038
ENDCHAR
STARTCHAR 5185
ENCODING 20869
SWIDTH 900 0
DWIDTH 30 0
BBX 20 28 5 -2
BITMAP
002000
002000
002000
002000
006000
006000
8FFFE0
DFFFF0
C04030
C0C030
C0C030
C0C030
C18030
C18030
C18030
C31830
C31C30
C30E30
C60330
C40030
CC0030
C80030
C00030
C00030
C00030
C00030
C000F0
C00070
ENDCHAR
STARTCHAR 5188
ENCODING 20872
SWIDTH 900 0
DWIDTH 30 0
BBX 20 28 5 -3
BITMAP
8FFFE0
CFFFF0
C00030
C00030
C00030
C00030
C00830
C01830
C01830
C01830
C03030
C73030
C3E030
C0F030
C0FC30
C0CE30
C18030
C38030
C30030
C60030
CC0030
D80030
C00030
C00030
C00030
C00030
C000F0
C00070
ENDCHAR
STARTCHAR 5189
ENCODING 20873
SWIDTH 900 0
DWIDTH 30 0
BBX 24 30 3 -3
BITMAP
001800
001800
001800
001800
001800
09FFE0
1BFFF0
181830
181830
181830
181830
181830
19FF30
19FF30
181830
181830
181830
181830
181830
180030
FFFFFF
FFFFFF
180030
180030
180030
180030
180030
180030
1800F0
180070
ENDCHAR
STARTCHAR 518C
ENCODING 20876
SWIDTH 930 0
DWIDTH 31 0
BBX 27 26 2 -3
BITMAP
0DE1FC00
0DF1BE00
0C318600
0C318600
0C318600
0C318600
0C318600
0C318600
0C318600
0C318600
FFFFFFE0
FFFFFFE0
0C330600
0C330600
0C330600
0C330600
0C330600
0C330600
08330600
08330600
08320600
18361E00
18F60400
18660000
10060000
10040000
ENDCHAR
STARTCHAR 518D
ENCODING 20877
SWIDTH 900 0
DWIDTH 30 0
BBX 24 28 3 -3
BITMAP
7FFFFC
7FFFFC
000000
001800
001800
001800
001800
0DFFE0
0DFFF0
0C1830
0C1830
0C1830
0DFE30
0DFE30
0C1830
0C1830
0C1830
0C0030
FFFFFF
FFFFFF
0C0030
0C0030
0C0030
0C0030
0C0030
0C0030
0C01F0
0C0060
ENDCHAR
STARTCHAR 5192
ENCODING 20882
SWIDTH 930 0
DWIDTH 31 0
BBX 19 29 6 -2
BITMAP
C00000
CFFFC0
CFFFE0
C00060
C00060
C7F860
C7F860
C00060
C7F860
C7F860
000000
000000
1FFE00
3FFF00
300300
300300
300300
300300
31F300
31F300
300300
300300
31F300
31F300
300300
300300
300300
3FFF00
1FFF00
ENDCHAR
STARTCHAR 5195
ENCODING 20885
SWIDTH 900 0
DWIDTH 30 0
BBX 20 31 5 -3
BITMAP
C00000
DFFF00
CFFF00
C00300
C7F300
C7F300
C00300
C7E300
C7E300
100000
300000
63F000
E3F800
C01000
003000
000000
7FFE00
FFFF00
C00300
C08300
C18300
C18300
FFFF00
7FFE00
060000
063000
0C3020
383030
703FF0
E01FF0
800000
ENDCHAR
STARTCHAR 5196
ENCODING 20886
SWIDTH 900 0
DWIDTH 30 0
BBX 22 7 4 20
BITMAP
CFFFF8
CFFFFC
C0000C
C0000C
C0000C
C0000C
C0000C
ENDCHAR
STARTCHAR 5197
ENCODING 20887
SWIDTH 900 0
DWIDTH 30 0
BBX 21 27 4 -2
BITMAP
DFFFF0
CFFFF0
C00030
C00030
C00030
C00030
C00030
060000
067E00
067F00
060300
060300
060300
040300
040300
0C0300
0C0300
0C0300
0C0300
180300
180310
180318
3003F8
3003F8
300000
600000
600000
ENDCHAR
STARTCHAR 5199
ENCODING 20889
SWIDTH 900 0
DWIDTH 30 0
BBX 21 28 5 -3
BITMAP
600000
6FFFF0
67FFF8
600018
600018
660018
060000
060000
067FE0
067FE0
060000
060000
060000
060000
07FFF0
03FFF0
000030
000030
000030
000030
FFFE30
FFFE30
000030
000030
000030
000030
0000F0
000070
ENDCHAR
STARTCHAR 519B
ENCODING 20891
SWIDTH 900 0
DWIDTH 30 0
BBX 22 28 4 -2
BITMAP
6FFFF8
67FFF8
600018
608018
618018
018000
018000
7FFFF0
7FFFF0
030000
061800
061800
061800
041800
0FFFC0
07FFC0
001800
001800
001800
001800
FFFFFC
FFFFFC
001800
001800
001800
001800
001800
001800
ENDCHAR
STARTCHAR 519C
ENCODING 20892
SWIDTH 930 0
DWIDTH 31 0
BBX 22 29 4 -3
BITMAP
002000
002000
006000
006000
006000
604000
67FFF0
67FFF8
618018
618018
630018
030000
060000
0E0000
1C0070
1800E0
3001C0
660100
E60000
C60000
060600
060380
0601E0
060070
060038
060004
060000
07C000
078000
ENDCHAR
STARTCHAR 51A0
ENCODING 20896
SWIDTH 900 0
DWIDTH 30 0
BBX 23 29 4 -3
BITMAP
CFFFF0
CFFFF8
C00018
C00018
C00018
000000
000030
3FC030
3FC030
000030
000FFC
000FFC
000030
000030
FFE630
FFE730
000330
180130
180030
1980F0
3980F0
318030
318000
318004
618004
61FFFE
40FFFC
C00000
800000
ENDCHAR
STARTCHAR 51A2
ENCODING 20898
SWIDTH 900 0
DWIDTH 30 0
BBX 23 29 3 -3
BITMAP
CFFFFC
CFFFFE
C00006
C00006
C00006
C7FFC6
C7FFC6
000000
000000
003000
003000
1F1808
FE1818
001870
0018E0
301DC0
180D00
3F8C00
FE0C00
0C0C60
0C0C70
000C38
018C1C
0F8C06
7E0C00
F00C00
000800
007800
003800
ENDCHAR
STARTCHAR 51A4
ENCODING 20900
SWIDTH 900 0
DWIDTH 30 0
BBX 22 30 4 -4
BITMAP
800000
9FFFF0
9FFFF8
800018
800018
840018
8C0018
187F00
387F00
700600
400C00
000800
000000
3FFFC0
7FFFC0
6000C0
6060C0
6040C0
60C0C0
7FFFC0
3FFFC0
018000
038800
030CC0
060CC8
0E0C0C
1C0C0C
380FFC
700FFC
E00000
ENDCHAR
STARTCHAR 51A5
ENCODING 20901
SWIDTH 900 0
DWIDTH 30 0
BBX 23 29 3 -3
BITMAP
600000
67FFF8
67FFFC
60000C
60000C
63FF0C
67FF8C
060180
060180
060180
067D80
067D80
060180
060180
07FF80
03FF00
000000
001800
001800
001800
001000
FFFFFE
FFFFFE
000000
000000
0701C0
0600E0
0C0070
180000
ENDCHAR
STARTCHAR 51AB
ENCODING 20907
SWIDTH 900 0
DWIDTH 30 0
BBX 4 20 6 1
BITMAP
60
70
00
00
00
00
00
00
00
00
00
00
00
00
00
00
00
30
F0
C0
ENDCHAR
STARTCHAR 51AC
ENCODING 20908
SWIDTH 900 0
DWIDTH 30 0
BBX 22 28 4 -1
BITMAP
010000
030000
070000
0E0000
0CFF80
18FFC0
3801C0
200380
000300
018600
01EE00
007C00
007F00
00E7C0
03C0F0
0F003C
7C0000
E03000
003800
000C00
000400
000000
000000
000000
00C000
00F800
003E00
000700
ENDCHAR
STARTCHAR 51AF
ENCODING 20911
SWIDTH 900 0
DWIDTH 30 0
BBX 24 27 3 -1
BITMAP
007FF0
00FFF8
000018
600018
300018
000018
003018
003018
003018
003000
003000
003000
003FFE
001FFF
000003
000003
000003
000003
01FFF3
01FFF3
300003
F00003
C00003
000003
000003
00001F
000006
ENDCHAR
STARTCHAR 51B0
ENCODING 20912
SWIDTH 900 0
DWIDTH 30 0
BBX 27 26 2 -1
BITMAP
00018000
00018000
00018000
00018000
00018000
00018000
C0018000
60018000
00018000
00018300
01F18600
03F18000
00318000
00318000
00318000
00618C00
00618F80
00C181E0
01818000
73018000
E6018000
C0018000
00018000
00018000
000F8000
00038000
ENDCHAR
STARTCHAR 51B1
ENCODING 20913
SWIDTH 870 0
DWIDTH 29 0
BBX 25 24 2 0
BITMAP
00FFFF80
00FFFF80
60000000
30080000
00080000
00180000
00180000
00100000
0017FE00
0037FE00
00300C00
00200C00
00200C00
00600C00
007FD800
007FD800
00001800
00003000
00003000
30003000
F0006000
C0000000
03FFFF80
03FFFF80
ENDCHAR
STARTCHAR 51B2
ENCODING 20914
SWIDTH 900 0
DWIDTH 30 0
BBX 25 29 2 -2
BITMAP
0000C000
0000C000
0000C000
0000C000
6000C000
7000C000
3000C000
0000C000
003FFF00
007FFF80
0060C180
0060C180
0060C180
0060C180
0060C180
0060C180
007FFF80
007FFF00
0000C000
0000C000
0000C000
1800C000
7000C000
E000C000
4000C000
0000C000
0000C000
0000C000
0000C000
ENDCHAR
STARTCHAR 51B3
ENCODING 20915
SWIDTH 930 0
DWIDTH 31 0
BBX 25 28 3 -2
BITMAP
00030000
00030000
00030000
60030000
70030000
30030000
007FFC00
007FFC00
00060C00
00060C00
00060C00
00060C00
00060C00
00060000
000C0000
01FFFF80
01FFFF80
000C0000
00080000
00180000
00180000
30107800
E0303E00
40300F80
00600000
00600000
00C00000
00800000
ENDCHAR
STARTCHAR 51B5
ENCODING 20917
SWIDTH 900 0
DWIDTH 30 0
BBX 24 27 3 -3
BITMAP
00FFF0
00FFF8
00C018
C0C018
60C018
00C018
00C018
00C018
00C018
00FFF8
00FFF0
000000
000000
002020
003060
003060
006060
006060
006060
006060
306060
E06062
C04063
00C07F
00C03F
008000
018000
ENDCHAR
STARTCHAR 51B6
ENCODING 20918
SWIDTH 900 0
DWIDTH 30 0
BBX 24 27 3 0
BITMAP
000200
000600
000600
600C00
300C04
001806
001806
003003
007003
007FE1
007E00
000000
000000
000000
000000
000FFC
001FFE
001806
001806
001806
181806
701806
E01806
001806
001806
001FFE
001FFE
ENDCHAR
STARTCHAR 51B7
ENCODING 20919
SWIDTH 900 0
DWIDTH 30 0
BBX 24 27 3 0
BITMAP
000300
000300
000600
C00E00
E00C00
601800
003030
00303C
00600E
008003
010300
000300
000200
000000
000000
007FF8
007FF8
000018
000038
000030
300060
F000C0
C00000
000E00
000700
0003C0
000060
ENDCHAR
STARTCHAR 51BB
ENCODING 20923
SWIDTH 930 0
DWIDTH 31 0
BBX 26 29 2 -2
BITMAP
00020000
00030000
00020000
00060000
00060000
00FFFFC0
60FFFFC0
700C0000
300C0000
000C0000
00080000
0018C000
0018C000
0018C000
0010C000
003FFFC0
003FFFC0
0000C000
0000C000
0000C000
0000C000
1820C180
7060C1C0
E0C0C040
0100C000
0000C000
0000C000
0003C000
0001C000
ENDCHAR
STARTCHAR 51BC
ENCODING 20924
SWIDTH 900 0
DWIDTH 30 0
BBX 25 28 3 -1
BITMAP
00018000
00018000
00618000
00618000
C0618000
60DFF800
20DFF800
00818000
00818000
00018000
00018000
00000000
00000000
03FFFE00
03FFFE00
00000000
00000000
00000000
00306000
00306000
30206000
E0606200
C0606200
00406300
00C07F80
01803F00
01800000
03000000
ENDCHAR
STARTCHAR 51BD
ENCODING 20925
SWIDTH 870 0
DWIDTH 29 0
BBX 25 28 2 -1
BITMAP
00000180
00000180
03FF0180
03FF0180
E0000180
70400180
00600180
00C00180
01C03180
01803180
01003180
033E3180
021E3180
00063180
00063180
00063180
01863180
01CE3180
004C3180
000C0180
001C0180
30180180
F0180180
C0300180
00700180
00600780
00C00380
00800000
ENDCHAR
STARTCHAR 51C0
ENCODING 20928
SWIDTH 870 0
DWIDTH 29 0
BBX 25 30 2 -2
BITMAP
00100000
00300000
00300000
00600000
0060F800
0040F800
70403000
30003000
00002000
003FF800
003FFC00
00000C00
00030C00
00030C00
03FFFF80
03FFFF80
00030C00
00030C00
003FFC00
003FFC00
00030000
00030000
08030000
30030000
E0030000
40030000
00030000
00030000
000F0000
00030000
ENDCHAR
STARTCHAR 51C4
ENCODING 20932
SWIDTH 900 0
DWIDTH 30 0
BBX 26 32 2 -2
BITMAP
00018000
00018000
00018000
01FFFFC0
01FFFFC0
00018000
E0018000
301FFC00
001FFC00
00018C00
00018C00
01FFFF80
01FFFF80
00018C00
00018C00
001FFC00
001FF800
00000000
00030000
00030000
00FFFF80
00FFFF80
10060800
700C1800
E00E3800
800FF000
0001F800
0001FE00
00038700
000F0000
007C0000
00600000
ENDCHAR
STARTCHAR 51C6
ENCODING 20934
SWIDTH 900 0
DWIDTH 30 0
BBX 24 25 3 1
BITMAP
000030
000030
001030
607000
70E7FF
31C7FF
030000
060030
000030
000030
00C030
00C3FE
00C3FE
00C030
00C030
00C030
00C030
00C3FE
00C3FE
30C030
F0C030
C0C030
00C000
00C7FF
00C7FF
ENDCHAR
STARTCHAR 51C7
ENCODING 20935
SWIDTH 900 0
DWIDTH 30 0
BBX 28 27 1 -1
BITMAP
00600000
00600000
00600000
00600300
60600300
30600300
00600180
07FC3180
07FC60C0
0060C0C0
0060C060
00618060
00610000
00600000
00681800
066E1800
0C601800
08603000
00603000
00606080
186060C0
7060E0E0
E060FE60
0060FC30
0060F010
00600000
00600000
ENDCHAR
ENDFONT
